<svg xmlns="http://www.w3.org/2000/svg" viewBox="0 0 220 220"><defs><style>.cls-1{fill:#231f20;}.cls-2{fill:#eead2d;}</style></defs><g id="Camada_5" data-name="Camada 5"><path class="cls-1" d="M126.18,158.91a51.55,51.55,0,0,1-7.17,1.82h0a2,2,0,0,0,1.77,3.33q2.72-.54,5.33-1.34a2,2,0,0,0,.07-3.81Zm-17-104c-28.71.4-53.51,24.81-54.33,53.52a55.12,55.12,0,0,0,47,56.15,1.8,1.8,0,0,0,2.07-1.78h0a1.8,1.8,0,0,0-1.52-1.78A51.53,51.53,0,1,1,158,128.54a1.84,1.84,0,0,0,2,2.47h0a1.63,1.63,0,0,0,1.23-1,55.17,55.17,0,0,0-52.17-75.13Z"/><path class="cls-1" d="M176.47,137.92l0,4.64a26.74,26.74,0,0,0-33.19,12.32c-7.61-10.58-23.85-11.84-33.31-3.29v-5.07a27.21,27.21,0,0,1,32.51,1.78c8.84-11.05,21.87-14,34-10.38"/><path class="cls-1" d="M176.47,145.61l0,4.28c-11.8-6-27.37,0-29.51,15.24h-5.61c-3.47-10.93-13.79-14.39-22.41-11a19.54,19.54,0,0,0-9,7.19v-6c9.21-10.22,27.76-8.33,33.82,5.29,5.11-14.93,19.93-20.28,32.72-15"/><path class="cls-1" d="M96.23,90l17.1,9.87,17.1,9.87-17.1,9.88-17.1,9.87V90m-3.6-6.24v52l22.5-13,22.5-13-22.5-13-22.5-13Z"/><circle class="cls-2" cx="110" cy="110" r="86.69"/><path d="M144.54,67.6a.75.75,0,0,1-.66.19c-6.81-1.85-14.46.31-20,5.62l-14,13.5a.66.66,0,0,1-.92,0l-1.48-1.54a.63.63,0,0,1,.07-.91l14-13.49c6.51-6.29,15.55-8.83,23.6-6.66a.58.58,0,0,1,.37.79l-.83,2.2A.85.85,0,0,1,144.54,67.6Z"/><path d="M117.68,63,62.72,116c-12.16,11.73-13.55,30.08-3.11,40.89l1.73,1.79c10.44,10.82,28.83,10.08,41-1.66l55-53.06c12.16-11.73,13.55-30.08,3.11-40.89l-1.73-1.79C148.22,50.48,129.83,51.22,117.68,63Zm-5.14,72.5L98.6,149c-6.49,6.31-15.52,8.89-23.58,6.74a.57.57,0,0,1-.37-.78l.82-2.21a.8.8,0,0,1,.18-.27.61.61,0,0,1,.16-.12.68.68,0,0,1,.5-.07c6.82,1.82,14.46-.36,20-5.69l13.94-13.54a.65.65,0,0,1,.91,0l1.49,1.53A.64.64,0,0,1,112.54,135.46ZM156.35,67c8.53,8.83,7.39,23.82-2.54,33.4L127.49,125.8,94.82,92l26.33-25.42c9.93-9.58,24.94-10.19,33.47-1.35Z"/></g></svg>