<svg xmlns="http://www.w3.org/2000/svg" viewBox="0 0 220 220"><defs><style>.cls-1{fill:none;stroke:#fff;stroke-miterlimit:10;stroke-width:3px;}.cls-2{fill:#fff;}</style></defs><title>dica_d_white</title><g id="Camada_6" data-name="Camada 6"><circle class="cls-1" cx="110" cy="110.11" r="84.81"/><polygon class="cls-2" points="159.59 153.21 159.59 158.89 149.09 158.89 149.09 169.4 143.41 169.4 143.41 158.89 132.9 158.89 132.9 153.21 143.41 153.21 143.41 142.7 149.09 142.7 149.09 153.21 159.59 153.21"/><path class="cls-2" d="M148.79,81.29,129.24,61.74a3.55,3.55,0,0,0-2.54-1.06H73.75a3.6,3.6,0,0,0-3.6,3.6v91.77a3.6,3.6,0,0,0,3.6,3.6H125.1a1.81,1.81,0,0,0,1.8-1.8h0a1.8,1.8,0,0,0-1.8-1.8H73.75V64.28h53l19.55,19.55V134.9a1.8,1.8,0,0,0,1.8,1.8h0a1.81,1.81,0,0,0,1.8-1.8V83.83A3.63,3.63,0,0,0,148.79,81.29Z"/><path class="cls-2" d="M135.84,136.41h-55a1.8,1.8,0,0,1,0-3.6h55a1.8,1.8,0,0,1,0,3.6Z"/><path class="cls-2" d="M99.57,84.14H80.82a1.8,1.8,0,0,1,0-3.6H99.57a1.8,1.8,0,1,1,0,3.6Z"/><path class="cls-2" d="M107.19,84.14h-1.71a1.8,1.8,0,0,1,0-3.6h1.71a1.8,1.8,0,0,1,0,3.6Z"/><path class="cls-2" d="M99.57,119H80.82a1.8,1.8,0,0,1,0-3.6H99.57a1.8,1.8,0,1,1,0,3.6Z"/><path class="cls-2" d="M135.84,119h-21a1.8,1.8,0,0,1,0-3.6h21a1.8,1.8,0,0,1,0,3.6Z"/><path class="cls-2" d="M107.36,119h-1.7a1.8,1.8,0,0,1,0-3.6h1.7a1.8,1.8,0,0,1,0,3.6Z"/><path class="cls-2" d="M111.17,101.57H80.82a1.8,1.8,0,1,1,0-3.6h30.35a1.8,1.8,0,0,1,0,3.6Z"/><path class="cls-2" d="M121.23,101.57h-1.71a1.8,1.8,0,0,1,0-3.6h1.71a1.8,1.8,0,0,1,0,3.6Z"/></g></svg>