<svg xmlns="http://www.w3.org/2000/svg" viewBox="0 0 220 220"><defs><style>.cls-1{fill:#eead2d;}</style></defs><title>dica_d_outline</title><g id="Camada_1" data-name="Camada 1"><polygon class="cls-1" points="159.59 153.09 159.59 158.77 149.09 158.77 149.09 169.28 143.41 169.28 143.41 158.77 132.9 158.77 132.9 153.09 143.41 153.09 143.41 142.59 149.09 142.59 149.09 153.09 159.59 153.09"/><path class="cls-1" d="M148.79,81.17,129.24,61.63a3.55,3.55,0,0,0-2.54-1.06H73.75a3.6,3.6,0,0,0-3.6,3.6v91.76a3.6,3.6,0,0,0,3.6,3.6H125.1a1.8,1.8,0,0,0,1.8-1.8h0a1.81,1.81,0,0,0-1.8-1.8H73.75V64.17h53l19.55,19.55v51.06a1.79,1.79,0,0,0,1.8,1.8h0a1.8,1.8,0,0,0,1.8-1.8V83.72A3.64,3.64,0,0,0,148.79,81.17Z"/><path class="cls-1" d="M135.84,136.3h-55a1.8,1.8,0,1,1,0-3.6h55a1.8,1.8,0,0,1,0,3.6Z"/><path class="cls-1" d="M99.57,84H80.82a1.8,1.8,0,1,1,0-3.6H99.57a1.8,1.8,0,1,1,0,3.6Z"/><path class="cls-1" d="M107.19,84h-1.71a1.8,1.8,0,0,1,0-3.6h1.71a1.8,1.8,0,1,1,0,3.6Z"/><path class="cls-1" d="M99.57,118.87H80.82a1.8,1.8,0,1,1,0-3.6H99.57a1.8,1.8,0,1,1,0,3.6Z"/><path class="cls-1" d="M135.84,118.87h-21a1.8,1.8,0,1,1,0-3.6h21a1.8,1.8,0,0,1,0,3.6Z"/><path class="cls-1" d="M107.36,118.87h-1.7a1.8,1.8,0,1,1,0-3.6h1.7a1.8,1.8,0,0,1,0,3.6Z"/><path class="cls-1" d="M111.17,101.45H80.82a1.8,1.8,0,1,1,0-3.6h30.35a1.8,1.8,0,0,1,0,3.6Z"/><path class="cls-1" d="M121.23,101.45h-1.71a1.8,1.8,0,1,1,0-3.6h1.71a1.8,1.8,0,0,1,0,3.6Z"/></g></svg>