<svg xmlns="http://www.w3.org/2000/svg" viewBox="0 0 220 220"><defs><style>.cls-1{fill:none;stroke:#fff;stroke-miterlimit:10;stroke-width:3px;}.cls-2{fill:#fff;}</style></defs><title>forum_white</title><g id="Camada_6" data-name="Camada 6"><circle class="cls-1" cx="110" cy="110.11" r="84.81"/><path class="cls-2" d="M163.82,74.91v14H79.4v-14h84.42m.6-3.6H78.8a3,3,0,0,0-3,3V89.46a3,3,0,0,0,3,3h85.62a3,3,0,0,0,3-3V74.31a3,3,0,0,0-3-3Z"/><path class="cls-2" d="M164.42,95.46H78.8a3,3,0,0,0-3,3v15.15a3,3,0,0,0,3,3h43.5a1.78,1.78,0,0,0,1.37-.65l0,0a1.78,1.78,0,0,0-1.38-2.9H79.4v-14h84.42v11.63a1.78,1.78,0,0,0,1.43,1.75h0a1.78,1.78,0,0,0,2.13-1.74V98.46A3,3,0,0,0,164.42,95.46Z"/><path class="cls-2" d="M119.8,119.61h-41a3,3,0,0,0-3,3v15.14a3,3,0,0,0,3,3h40.82a1.8,1.8,0,0,0,1.8-1.8h0a1.8,1.8,0,0,0-1.8-1.8H79.4V123.21h40.4a1.81,1.81,0,0,0,1.79-1.62h0A1.81,1.81,0,0,0,119.8,119.61Z"/><path class="cls-2" d="M62.47,123.89a6.29,6.29,0,1,1-6.29,6.29,6.29,6.29,0,0,1,6.29-6.29m0-3.6a9.89,9.89,0,1,0,9.89,9.89,9.89,9.89,0,0,0-9.89-9.89Z"/><path class="cls-2" d="M62.47,99.74A6.29,6.29,0,1,1,56.18,106a6.29,6.29,0,0,1,6.29-6.29m0-3.6A9.89,9.89,0,1,0,72.36,106a9.89,9.89,0,0,0-9.89-9.89Z"/><path class="cls-2" d="M62.47,75.6a6.29,6.29,0,1,1-6.29,6.29,6.29,6.29,0,0,1,6.29-6.29m0-3.6a9.89,9.89,0,1,0,9.89,9.89A9.89,9.89,0,0,0,62.47,72Z"/><path class="cls-2" d="M159.61,121.44V140a.91.91,0,0,1-1.55.65h0a1,1,0,0,0-.71-.3h-23V121.44h25.24m-25.24-3.15a3.16,3.16,0,0,0-3.15,3.15v18.93a3.16,3.16,0,0,0,3.15,3.16h21.68a1,1,0,0,1,.69.28l4.91,4.91a.66.66,0,0,0,1.12-.46l0-26.82a3.15,3.15,0,0,0-3.14-3.15Zm20.82,18.61h-16.4a1.25,1.25,0,0,1-1.26-1.26h0a1.25,1.25,0,0,1,1.26-1.26h16.4a1.26,1.26,0,0,1,1.27,1.26h0A1.26,1.26,0,0,1,155.19,136.9Zm0-4.73h-16.4a1.26,1.26,0,0,1-1.26-1.26h0a1.26,1.26,0,0,1,1.26-1.27h16.4a1.27,1.27,0,0,1,1.27,1.27h0A1.27,1.27,0,0,1,155.19,132.17Zm0-4.73h-16.4a1.26,1.26,0,0,1-1.26-1.27h0a1.26,1.26,0,0,1,1.26-1.26h16.4a1.27,1.27,0,0,1,1.27,1.26h0A1.27,1.27,0,0,1,155.19,127.44Z"/></g></svg>