<svg xmlns="http://www.w3.org/2000/svg" viewBox="0 0 220 220"><defs><style>.cls-1{fill:#e33654;}.cls-2{fill:#fff;}</style></defs><title>forum</title><g id="Camada_2" data-name="Camada 2"><circle class="cls-1" cx="110" cy="110" r="84.81"/></g><g id="Camada_1" data-name="Camada 1"><path class="cls-2" d="M163.82,74.8v14H79.4v-14h84.42m.6-3.6H78.8a3,3,0,0,0-3,3V89.35a3,3,0,0,0,3,3h85.62a3,3,0,0,0,3-3V74.2a3,3,0,0,0-3-3Z"/><path class="cls-2" d="M164.42,95.34H78.8a3,3,0,0,0-3,3v15.15a3,3,0,0,0,3,3h43.5a1.78,1.78,0,0,0,1.37-.65l0,0a1.78,1.78,0,0,0-1.38-2.91H79.4v-14h84.42v11.64a1.76,1.76,0,0,0,1.43,1.74h0a1.78,1.78,0,0,0,2.13-1.74V98.34A3,3,0,0,0,164.42,95.34Z"/><path class="cls-2" d="M119.8,119.49h-41a3,3,0,0,0-3,3v15.15a3,3,0,0,0,3,3h40.82a1.8,1.8,0,0,0,1.8-1.8h0a1.79,1.79,0,0,0-1.8-1.8H79.4V123.09h40.4a1.81,1.81,0,0,0,1.79-1.62h0A1.81,1.81,0,0,0,119.8,119.49Z"/><path class="cls-2" d="M62.47,123.77a6.29,6.29,0,1,1-6.29,6.29,6.29,6.29,0,0,1,6.29-6.29m0-3.6a9.89,9.89,0,1,0,9.89,9.89,9.89,9.89,0,0,0-9.89-9.89Z"/><path class="cls-2" d="M62.47,99.63a6.29,6.29,0,1,1-6.29,6.29,6.29,6.29,0,0,1,6.29-6.29m0-3.6a9.89,9.89,0,1,0,9.89,9.89A9.89,9.89,0,0,0,62.47,96Z"/><path class="cls-2" d="M62.47,75.48a6.29,6.29,0,1,1-6.29,6.29,6.29,6.29,0,0,1,6.29-6.29m0-3.6a9.89,9.89,0,1,0,9.89,9.89,9.89,9.89,0,0,0-9.89-9.89Z"/><path class="cls-2" d="M159.61,121.33v18.58a.91.91,0,0,1-1.55.64h0a1,1,0,0,0-.71-.29h-23V121.33h25.24m-25.24-3.16a3.16,3.16,0,0,0-3.15,3.16v18.93a3.16,3.16,0,0,0,3.15,3.15h21.68a1,1,0,0,1,.69.29l4.91,4.91a.66.66,0,0,0,1.12-.47l0-26.81a3.15,3.15,0,0,0-3.14-3.16Zm20.82,18.62h-16.4a1.26,1.26,0,0,1-1.26-1.26h0a1.26,1.26,0,0,1,1.26-1.27h16.4a1.27,1.27,0,0,1,1.27,1.27h0A1.27,1.27,0,0,1,155.19,136.79Zm0-4.73h-16.4a1.26,1.26,0,0,1-1.26-1.27h0a1.26,1.26,0,0,1,1.26-1.26h16.4a1.27,1.27,0,0,1,1.27,1.26h0A1.27,1.27,0,0,1,155.19,132.06Zm0-4.74h-16.4a1.25,1.25,0,0,1-1.26-1.26h0a1.25,1.25,0,0,1,1.26-1.26h16.4a1.26,1.26,0,0,1,1.27,1.26h0A1.26,1.26,0,0,1,155.19,127.32Z"/></g></svg>