<svg xmlns="http://www.w3.org/2000/svg" viewBox="0 0 220 220"><defs><style>.cls-1{fill:#971ed9;}.cls-2{fill:#fff;}</style></defs><title>gabarito</title><g id="Camada_2" data-name="Camada 2"><circle class="cls-1" cx="110" cy="110" r="84.81"/></g><g id="Camada_1" data-name="Camada 1"><path class="cls-2" d="M149.2,83.41V94.6H76.72V83.41H149.2m.6-3.6H76.12a3,3,0,0,0-3,3V95.2a3,3,0,0,0,3,3H149.8a3,3,0,0,0,3-3V82.81a3,3,0,0,0-3-3Z"/><path class="cls-2" d="M149.2,104.41v11.18H76.72V104.41H149.2m.6-3.6H76.12a3,3,0,0,0-3,3v12.38a3,3,0,0,0,3,3H149.8a3,3,0,0,0,3-3V103.81a3,3,0,0,0-3-3Z"/><path class="cls-2" d="M113.18,136.59H76.72V125.4h72a1.36,1.36,0,0,0,.9-.34l1.11-1a1.3,1.3,0,0,0-.87-2.25H76.12a3,3,0,0,0-3,3v12.39a3,3,0,0,0,3,3h37.06a1.79,1.79,0,0,0,1.74-2.23h0A1.81,1.81,0,0,0,113.18,136.59Z"/><path class="cls-2" d="M61.53,126a5,5,0,1,1-5,5,5,5,0,0,1,5-5m0-3.6a8.6,8.6,0,1,0,8.6,8.6,8.6,8.6,0,0,0-8.6-8.6Z"/><path class="cls-2" d="M61.53,105a5,5,0,1,1-5,5,5,5,0,0,1,5-5m0-3.6a8.6,8.6,0,1,0,8.6,8.6,8.6,8.6,0,0,0-8.6-8.6Z"/><path class="cls-2" d="M61.53,84a5,5,0,1,1-5,5,5,5,0,0,1,5-5m0-3.6a8.6,8.6,0,1,0,8.6,8.6,8.6,8.6,0,0,0-8.6-8.6Z"/><path class="cls-2" d="M137.07,146.29l-10.5-10.5-3.5,3.5,14,14,30-30-3.5-3.5Z"/></g></svg>