<svg xmlns="http://www.w3.org/2000/svg" viewBox="0 0 220 220"><defs><style>.cls-1{fill:none;stroke:#fff;stroke-miterlimit:10;stroke-width:3px;}.cls-2{fill:#fff;}</style></defs><title>leia_mais_white</title><g id="Camada_6" data-name="Camada 6"><circle class="cls-1" cx="110" cy="110.11" r="84.81"/><path class="cls-2" d="M148.79,81.23,129.24,61.68a3.59,3.59,0,0,0-2.54-1H73.75a3.6,3.6,0,0,0-3.6,3.6V156a3.6,3.6,0,0,0,3.6,3.6h36.89a1.78,1.78,0,0,0,1.57-2.62l0,0a1.77,1.77,0,0,0-1.57-.94H73.75V64.23h53l19.55,19.55V121.6a1.79,1.79,0,0,0,.87,1.53l0,0a1.78,1.78,0,0,0,2.69-1.53V83.78A3.61,3.61,0,0,0,148.79,81.23Z"/><path class="cls-2" d="M111.16,135.24l0,0a1.75,1.75,0,0,1-1.63,1.07H80.88a1.84,1.84,0,0,1-1.83-1.45,1.8,1.8,0,0,1,1.76-2.15h28.72A1.78,1.78,0,0,1,111.16,135.24Z"/><path class="cls-2" d="M99.57,84.09H80.82a1.8,1.8,0,0,1,0-3.6H99.57a1.8,1.8,0,1,1,0,3.6Z"/><path class="cls-2" d="M107.19,84.09h-1.71a1.8,1.8,0,1,1,0-3.6h1.71a1.8,1.8,0,0,1,0,3.6Z"/><path class="cls-2" d="M99.57,118.93H80.82a1.8,1.8,0,1,1,0-3.6H99.57a1.8,1.8,0,1,1,0,3.6Z"/><path class="cls-2" d="M135.84,118.93h-21a1.8,1.8,0,1,1,0-3.6h21a1.8,1.8,0,0,1,0,3.6Z"/><path class="cls-2" d="M107.36,118.93h-1.7a1.8,1.8,0,1,1,0-3.6h1.7a1.8,1.8,0,0,1,0,3.6Z"/><path class="cls-2" d="M111.17,101.51H80.82a1.8,1.8,0,1,1,0-3.6h30.35a1.8,1.8,0,0,1,0,3.6Z"/><path class="cls-2" d="M121.23,101.51h-1.71a1.8,1.8,0,1,1,0-3.6h1.71a1.8,1.8,0,0,1,0,3.6Z"/><path class="cls-2" d="M152.27,158.35h-2.34l-.83-.8a19.29,19.29,0,1,0-2.08,2.08l.8.83v2.34l14.83,14.8,4.42-4.42Zm-17.79,0A13.35,13.35,0,1,1,147.82,145,13.33,13.33,0,0,1,134.48,158.35Z"/></g></svg>