<svg xmlns="http://www.w3.org/2000/svg" viewBox="0 0 220 220"><defs><style>.cls-1{fill:#eead2d;}</style></defs><title>leia_mais_outline</title><g id="Camada_1" data-name="Camada 1"><path class="cls-1" d="M148.79,81.12,129.24,61.56a3.59,3.59,0,0,0-2.54-1.05H73.75a3.6,3.6,0,0,0-3.6,3.6v91.77a3.6,3.6,0,0,0,3.6,3.6h36.89a1.78,1.78,0,0,0,1.57-2.62l0,0a1.77,1.77,0,0,0-1.57-.94H73.75V64.11h53l19.55,19.55v37.82a1.76,1.76,0,0,0,.87,1.53l0,0a1.78,1.78,0,0,0,2.69-1.53V83.67A3.58,3.58,0,0,0,148.79,81.12Z"/><path class="cls-1" d="M111.16,135.13l0,0a1.76,1.76,0,0,1-1.63,1.07H80.88a1.84,1.84,0,0,1-1.83-1.45,1.8,1.8,0,0,1,1.76-2.15h28.72A1.78,1.78,0,0,1,111.16,135.13Z"/><path class="cls-1" d="M99.57,84H80.82a1.8,1.8,0,1,1,0-3.6H99.57a1.8,1.8,0,1,1,0,3.6Z"/><path class="cls-1" d="M107.19,84h-1.71a1.8,1.8,0,0,1,0-3.6h1.71a1.8,1.8,0,1,1,0,3.6Z"/><path class="cls-1" d="M99.57,118.82H80.82a1.8,1.8,0,1,1,0-3.6H99.57a1.8,1.8,0,1,1,0,3.6Z"/><path class="cls-1" d="M135.84,118.82h-21a1.8,1.8,0,1,1,0-3.6h21a1.8,1.8,0,0,1,0,3.6Z"/><path class="cls-1" d="M107.36,118.82h-1.7a1.8,1.8,0,1,1,0-3.6h1.7a1.8,1.8,0,0,1,0,3.6Z"/><path class="cls-1" d="M111.17,101.39H80.82a1.8,1.8,0,0,1,0-3.6h30.35a1.8,1.8,0,0,1,0,3.6Z"/><path class="cls-1" d="M121.23,101.39h-1.71a1.8,1.8,0,0,1,0-3.6h1.71a1.8,1.8,0,0,1,0,3.6Z"/><path class="cls-1" d="M152.27,158.24h-2.34l-.83-.8a19.42,19.42,0,1,0-2.08,2.07l.8.83v2.35l14.83,14.8,4.42-4.42Zm-17.79,0a13.35,13.35,0,1,1,13.34-13.35A13.33,13.33,0,0,1,134.48,158.24Z"/></g></svg>