<svg xmlns="http://www.w3.org/2000/svg" viewBox="0 0 220 220"><defs><style>.cls-1{fill:none;stroke:#fff;stroke-miterlimit:10;stroke-width:3px;}.cls-2{fill:#fff;}</style></defs><title>livro_white</title><g id="Camada_6" data-name="Camada 6"><circle class="cls-1" cx="110" cy="110.11" r="84.81"/><path class="cls-2" d="M117.36,102.39a1.8,1.8,0,0,0,1.6,1,1.7,1.7,0,0,0,.81-.2c.11,0,10.65-5.41,15.85-7a1.79,1.79,0,1,0-1.08-3.42c-5.48,1.73-15.95,7.06-16.4,7.28A1.79,1.79,0,0,0,117.36,102.39Z"/><path class="cls-2" d="M119,81.87a1.7,1.7,0,0,0,.81-.2c.11,0,10.65-5.41,15.85-7a1.79,1.79,0,1,0-1.08-3.42c-5.48,1.74-15.95,7.06-16.4,7.28a1.79,1.79,0,0,0,.82,3.39Z"/><path class="cls-2" d="M111.79,151.2c2.74-.43,9.42-3,16.13-3,15.6,0,26.2,3.46,26.31,3.49a1.79,1.79,0,0,0,1.61-.25,1.76,1.76,0,0,0,.74-1.45V71.12a1.79,1.79,0,0,0-1.4-1.75s-1.4-.31-3.81-.75a1.79,1.79,0,1,0-.64,3.52l2.27.44v75a101.48,101.48,0,0,0-25.08-3A56.26,56.26,0,0,0,110.07,148a42,42,0,0,0-16.19-3.43A120.34,120.34,0,0,0,67,147.65V72.51a118,118,0,0,1,26.88-3.18,38.84,38.84,0,0,1,14.33,3v70.51a1.79,1.79,0,0,0,2.71,1.53c.18-.1,17.93-10.71,33.69-16a1.79,1.79,0,0,0,1.22-1.7V53.2a1.81,1.81,0,0,0-.77-1.47,1.79,1.79,0,0,0-1.65-.2c-14.33,5.37-28.84,14.4-29,14.49a1.79,1.79,0,0,0,1.89,3,191.66,191.66,0,0,1,25.93-13.24v69.56c-12.23,4.25-25,11.19-30.46,14.29V71.12a1.78,1.78,0,0,0-1-1.6,41.35,41.35,0,0,0-16.92-3.77A116.36,116.36,0,0,0,64.72,69.4a1.79,1.79,0,0,0-1.3,1.72V150a1.79,1.79,0,0,0,.71,1.43,1.76,1.76,0,0,0,1.08.36,1.66,1.66,0,0,0,.49-.07,115.37,115.37,0,0,1,28.18-3.51c6.55,0,12,2.46,14.33,3A13,13,0,0,0,111.79,151.2Z"/><path class="cls-2" d="M117.36,91.64a1.8,1.8,0,0,0,1.6,1,1.7,1.7,0,0,0,.81-.2c.11,0,10.65-5.41,15.85-7A1.79,1.79,0,1,0,134.54,82c-5.48,1.73-15.95,7.06-16.4,7.28A1.79,1.79,0,0,0,117.36,91.64Z"/><path class="cls-2" d="M117.36,113.14a1.8,1.8,0,0,0,1.6,1,1.7,1.7,0,0,0,.81-.2c.11,0,10.65-5.41,15.85-7a1.79,1.79,0,1,0-1.08-3.42c-5.48,1.73-15.95,7.06-16.4,7.28A1.79,1.79,0,0,0,117.36,113.14Z"/><path class="cls-2" d="M99.66,84.66c-11.06-2.59-23.64.71-24.16.85A1.8,1.8,0,0,0,76,89a1.82,1.82,0,0,0,.46-.06c.12,0,12.23-3.22,22.42-.83a1.79,1.79,0,1,0,.82-3.49Z"/><path class="cls-2" d="M99.66,95.41c-11.06-2.59-23.64.71-24.16.85A1.8,1.8,0,0,0,76,99.79a1.82,1.82,0,0,0,.46-.06c.12,0,12.23-3.22,22.42-.83a1.79,1.79,0,1,0,.82-3.49Z"/><path class="cls-2" d="M117.36,123.89a1.8,1.8,0,0,0,1.6,1,1.7,1.7,0,0,0,.81-.2c.11,0,10.65-5.41,15.85-7a1.79,1.79,0,1,0-1.08-3.42c-5.48,1.73-15.95,7.06-16.4,7.28A1.79,1.79,0,0,0,117.36,123.89Z"/><path class="cls-2" d="M99.66,106.16c-11.06-2.59-23.64.71-24.16.85a1.8,1.8,0,0,0,.46,3.53,1.82,1.82,0,0,0,.46-.06c.12,0,12.23-3.22,22.42-.83a1.79,1.79,0,1,0,.82-3.49Z"/><path class="cls-2" d="M99.66,127.66c-11.06-2.6-23.64.71-24.16.85A1.8,1.8,0,0,0,76,132a1.47,1.47,0,0,0,.46-.07c.12,0,12.23-3.21,22.42-.82a1.79,1.79,0,1,0,.82-3.49Z"/><path class="cls-2" d="M99.66,116.91c-11.06-2.6-23.64.71-24.16.85a1.8,1.8,0,0,0,.46,3.53,1.47,1.47,0,0,0,.46-.07c.12,0,12.23-3.21,22.42-.82a1.79,1.79,0,1,0,.82-3.49Z"/></g></svg>