<svg xmlns="http://www.w3.org/2000/svg" viewBox="0 0 220 220"><defs><style>.cls-1{fill:#11d05f;}.cls-2{fill:#fff;}</style></defs><title>livro</title><g id="Camada_2" data-name="Camada 2"><circle class="cls-1" cx="110" cy="110" r="84.81"/></g><g id="Camada_1" data-name="Camada 1"><path class="cls-2" d="M117.36,102.28a1.8,1.8,0,0,0,1.6,1,1.83,1.83,0,0,0,.81-.2c.11,0,10.65-5.41,15.85-7a1.79,1.79,0,1,0-1.08-3.42c-5.48,1.73-15.95,7-16.4,7.28A1.79,1.79,0,0,0,117.36,102.28Z"/><path class="cls-2" d="M119,81.76a1.83,1.83,0,0,0,.81-.2c.11,0,10.65-5.41,15.85-7a1.79,1.79,0,1,0-1.08-3.42c-5.48,1.73-15.95,7-16.4,7.28a1.79,1.79,0,0,0,.82,3.39Z"/><path class="cls-2" d="M111.79,151.09c2.74-.43,9.42-3,16.13-3,15.6,0,26.2,3.45,26.31,3.49a1.79,1.79,0,0,0,2.35-1.7V71a1.79,1.79,0,0,0-1.4-1.75s-1.4-.32-3.81-.76a1.79,1.79,0,0,0-.64,3.53l2.27.43v75a100.84,100.84,0,0,0-25.08-3,56.19,56.19,0,0,0-17.85,3.44,41.76,41.76,0,0,0-16.19-3.44A121,121,0,0,0,67,147.53V72.39a118.15,118.15,0,0,1,26.88-3.17,38.84,38.84,0,0,1,14.33,3v70.5a1.79,1.79,0,0,0,2.71,1.54c.18-.11,17.93-10.71,33.69-16a1.8,1.8,0,0,0,1.22-1.7V53.09a1.8,1.8,0,0,0-2.42-1.68c-14.33,5.38-28.84,14.4-29,14.49a1.79,1.79,0,0,0,1.89,3,193.55,193.55,0,0,1,25.93-13.23v69.55c-12.23,4.25-25,11.19-30.46,14.3V71a1.8,1.8,0,0,0-1-1.61,41.54,41.54,0,0,0-16.92-3.77,115.55,115.55,0,0,0-29.16,3.66A1.78,1.78,0,0,0,63.42,71v78.83a1.79,1.79,0,0,0,.71,1.43,1.76,1.76,0,0,0,1.08.36,1.66,1.66,0,0,0,.49-.07,115.37,115.37,0,0,1,28.18-3.51c6.55,0,12,2.46,14.33,2.95A13,13,0,0,0,111.79,151.09Z"/><path class="cls-2" d="M117.36,91.53a1.8,1.8,0,0,0,1.6,1,1.83,1.83,0,0,0,.81-.2c.11,0,10.65-5.41,15.85-7a1.79,1.79,0,1,0-1.08-3.42c-5.48,1.73-15.95,7-16.4,7.28A1.79,1.79,0,0,0,117.36,91.53Z"/><path class="cls-2" d="M117.36,113a1.8,1.8,0,0,0,1.6,1,1.83,1.83,0,0,0,.81-.2c.11,0,10.65-5.41,15.85-7a1.79,1.79,0,1,0-1.08-3.42c-5.48,1.73-15.95,7-16.4,7.28A1.79,1.79,0,0,0,117.36,113Z"/><path class="cls-2" d="M99.66,84.55C88.6,82,76,85.26,75.5,85.4A1.79,1.79,0,0,0,76,88.92a1.82,1.82,0,0,0,.46-.06c.12,0,12.23-3.22,22.42-.82a1.79,1.79,0,1,0,.82-3.49Z"/><path class="cls-2" d="M99.66,95.3C88.6,92.7,76,96,75.5,96.15A1.79,1.79,0,0,0,76,99.67a1.82,1.82,0,0,0,.46-.06c.12,0,12.23-3.22,22.42-.82a1.79,1.79,0,1,0,.82-3.49Z"/><path class="cls-2" d="M117.36,123.78a1.8,1.8,0,0,0,1.6,1,1.83,1.83,0,0,0,.81-.2c.11,0,10.65-5.41,15.85-7a1.79,1.79,0,1,0-1.08-3.42c-5.48,1.73-15.95,7-16.4,7.28A1.79,1.79,0,0,0,117.36,123.78Z"/><path class="cls-2" d="M99.66,106.05c-11.06-2.6-23.64.71-24.16.85a1.79,1.79,0,0,0,.46,3.52,1.82,1.82,0,0,0,.46-.06c.12,0,12.23-3.22,22.42-.82a1.79,1.79,0,1,0,.82-3.49Z"/><path class="cls-2" d="M99.66,127.55c-11.06-2.6-23.64.71-24.16.85a1.79,1.79,0,0,0,.46,3.52,1.82,1.82,0,0,0,.46-.06c.12,0,12.23-3.22,22.42-.82a1.79,1.79,0,1,0,.82-3.49Z"/><path class="cls-2" d="M99.66,116.8c-11.06-2.6-23.64.71-24.16.85a1.79,1.79,0,0,0,.46,3.52,1.82,1.82,0,0,0,.46-.06c.12,0,12.23-3.22,22.42-.82a1.79,1.79,0,1,0,.82-3.49Z"/></g></svg>