<svg xmlns="http://www.w3.org/2000/svg" viewBox="0 0 220 220"><defs><style>.cls-1{fill:#00d9a3;}.cls-2{fill:#fff;}</style></defs><title>livro_digital</title><g id="Camada_6" data-name="Camada 6"><circle class="cls-1" cx="110" cy="110" r="84.81"/><path class="cls-2" d="M139.38,59.56H80.62a6.78,6.78,0,0,0-6.77,6.78v87.33a6.78,6.78,0,0,0,6.77,6.77h58.76a6.78,6.78,0,0,0,6.78-6.77V66.34A6.79,6.79,0,0,0,139.38,59.56ZM110,157.36a3.09,3.09,0,1,1,3.08-3.09A3.09,3.09,0,0,1,110,157.36Zm33.15-9.25H76.85V66.34a3.78,3.78,0,0,1,3.77-3.78h58.76a3.79,3.79,0,0,1,3.78,3.78Z"/><path class="cls-2" d="M104.55,89.22H88.68l-3.42,7.61H82.12l13-28.49h3l13,28.49H108Zm-1.1-2.44L96.62,71.47,89.78,86.78Z"/><rect class="cls-2" x="115.98" y="93.77" width="21.54" height="3.06" rx="1.53"/><rect class="cls-2" x="82.12" y="105.33" width="55.4" height="3.06" rx="1.53"/><rect class="cls-2" x="82.12" y="116.89" width="32.13" height="3.06" rx="1.53"/><rect class="cls-2" x="115.98" y="116.89" width="21.54" height="3.06" rx="1.53"/><rect class="cls-2" x="82.12" y="128.45" width="21.54" height="3.06" rx="1.53"/><rect class="cls-2" x="105.21" y="128.45" width="32.31" height="3.06" rx="1.53"/></g></svg>