<svg xmlns="http://www.w3.org/2000/svg" viewBox="0 0 220 220"><defs><style>.cls-1{fill:#f0e100;}.cls-2{fill:#fff;}</style></defs><title>modelo</title><g id="Camada_2" data-name="Camada 2"><circle class="cls-1" cx="110" cy="110" r="84.81"/></g><g id="Camada_1" data-name="Camada 1"><path class="cls-2" d="M131.24,68.42,150.79,88v72.21H78.29V68.42h53m0-3.6H78.29a3.6,3.6,0,0,0-3.6,3.6v91.76a3.6,3.6,0,0,0,3.6,3.6h72.5a3.6,3.6,0,0,0,3.6-3.6V88a3.59,3.59,0,0,0-1.06-2.55L133.79,65.87a3.63,3.63,0,0,0-2.55-1.05Z"/><path class="cls-2" d="M140.38,140.54h-55a1.8,1.8,0,0,1,0-3.6h55a1.8,1.8,0,1,1,0,3.6Z"/><path class="cls-2" d="M104.11,88.28H85.36a1.8,1.8,0,0,1,0-3.6h18.75a1.8,1.8,0,0,1,0,3.6Z"/><path class="cls-2" d="M111.73,88.28H110a1.8,1.8,0,1,1,0-3.6h1.7a1.8,1.8,0,0,1,0,3.6Z"/><path class="cls-2" d="M104.11,123.12H85.36a1.8,1.8,0,1,1,0-3.6h18.75a1.8,1.8,0,0,1,0,3.6Z"/><path class="cls-2" d="M140.38,123.12h-21a1.8,1.8,0,1,1,0-3.6h21a1.8,1.8,0,1,1,0,3.6Z"/><path class="cls-2" d="M111.9,123.12h-1.7a1.8,1.8,0,1,1,0-3.6h1.7a1.8,1.8,0,0,1,0,3.6Z"/><path class="cls-2" d="M115.71,105.7H85.36a1.8,1.8,0,1,1,0-3.6h30.35a1.8,1.8,0,1,1,0,3.6Z"/><path class="cls-2" d="M125.77,105.7h-1.71a1.8,1.8,0,1,1,0-3.6h1.71a1.8,1.8,0,0,1,0,3.6Z"/><path class="cls-2" d="M124.71,57.27a3.6,3.6,0,0,0-2.54-1.05h-53a3.6,3.6,0,0,0-3.6,3.6v91.76a3.6,3.6,0,0,0,3.6,3.6h5.48v-3.6H69.21V59.82h53l5,5h4.08a3.45,3.45,0,0,1,1.24.22Z"/></g></svg>