<svg id="Camada_1" data-name="Camada 1" xmlns="http://www.w3.org/2000/svg" viewBox="0 0 48.46 58.91"><path d="M1.77,38.86l9.49,9.49C14.75,51.85,26.67,58,28,58.7a2,2,0,0,0,2.29-.36L47.89,40.76a2,2,0,0,0,.46-2c0-.06-2-5.57-2.46-7.38-.56-2.1-1.11-4.76-1.7-7.58-.8-3.85-1.7-8.21-2.91-12.6-.93-3.39-3-5.33-5.74-5.33a5.76,5.76,0,0,0-4.05,1.67h0a5.86,5.86,0,0,0-1.7,4.13v.13l.42,6.35L13.81,1.7A5.81,5.81,0,0,0,5.59,9.92l4.5,4.57a5.78,5.78,0,0,0-3,7A5.81,5.81,0,0,0,3.5,28.86a4.7,4.7,0,0,0,.17.45,5.79,5.79,0,0,0-1.93,9.53Zm5.44-5.44,4.05,4A2,2,0,0,0,14,34.64L7.72,28.31a1.88,1.88,0,1,1,2.66-2.66l4.5,4.51a2,2,0,0,0,2.79-2.78l-6.33-6.32A1.88,1.88,0,1,1,14,18.4l4.51,4.51a2,2,0,0,0,2.78-2.78l-13-13A1.88,1.88,0,0,1,11,4.47h0l20.1,20.11a2,2,0,0,0,3.36-1.53l-.77-11.49a2,2,0,0,1,.56-1.31,1.93,1.93,0,0,1,1.32-.56c1.06,0,1.64,1.33,1.95,2.44,1.17,4.27,2.06,8.57,2.85,12.36.6,2.87,1.16,5.58,1.74,7.79.39,1.44,1.53,4.74,2.15,6.51L28.53,54.48c-4.17-2.19-12.19-6.65-14.51-9L4.53,36a1.88,1.88,0,1,1,2.66-2.66h0Z"/></svg>