<svg xmlns="http://www.w3.org/2000/svg" viewBox="0 0 220 220"><defs><style>.cls-1{fill:none;stroke:#fff;stroke-miterlimit:10;stroke-width:3px;}.cls-2{fill:#fff;}</style></defs><title>objeto_white</title><g id="Camada_6" data-name="Camada 6"><circle class="cls-1" cx="110" cy="110.11" r="84.81"/><path class="cls-2" d="M123.28,151.49l9.49,9.49c3.49,3.49,15.41,9.65,16.76,10.35a2,2,0,0,0,2.29-.36l17.58-17.59a1.94,1.94,0,0,0,.46-2c0-.05-2-5.56-2.46-7.38-.56-2.1-1.11-4.76-1.7-7.57-.8-3.85-1.7-8.22-2.91-12.6-.93-3.39-3-5.34-5.74-5.34a5.76,5.76,0,0,0-4.1,1.71l0,0a5.8,5.8,0,0,0-1.7,4.13.62.62,0,0,0,0,.13l.42,6.35-16.4-16.41A5.82,5.82,0,1,0,127,122.6l4.56,4.56a5.74,5.74,0,0,0-1.56,1.1,5.82,5.82,0,0,0-1.41,5.88,5.56,5.56,0,0,0-2.21,1.38,5.81,5.81,0,0,0-1.21,6.43,5.8,5.8,0,0,0-1.93,9.54Zm5.44-5.44,4.05,4a2,2,0,0,0,2.78-2.78L129.23,141a1.88,1.88,0,1,1,2.66-2.66l4.5,4.51a2,2,0,0,0,2.79-2.79l-6.33-6.32a1.88,1.88,0,1,1,2.66-2.66l4.51,4.51a2,2,0,0,0,2.78-2.78l-13-13a1.88,1.88,0,1,1,2.66-2.66l20.1,20.1a2,2,0,0,0,3.36-1.52l-.77-11.5a1.93,1.93,0,0,1,.56-1.31,1.88,1.88,0,0,1,1.32-.55c1.06,0,1.64,1.32,1.95,2.44,1.17,4.26,2.06,8.56,2.85,12.36.6,2.87,1.16,5.58,1.74,7.78.39,1.44,1.53,4.74,2.15,6.52l-15.68,15.68c-4.17-2.19-12.19-6.64-14.51-9l-9.49-9.49a1.88,1.88,0,1,1,2.66-2.66Z"/><path class="cls-2" d="M158.8,71.88H61.2a3.6,3.6,0,0,0-3.6,3.6v69.27a3.6,3.6,0,0,0,3.6,3.6h52.61a1.78,1.78,0,0,0,1.77-1.68v0a1.78,1.78,0,0,0-1.79-1.9H61.2V75.48h97.6v35.66a1.76,1.76,0,0,0,1.26,1.71h0a1.79,1.79,0,0,0,2.3-1.7V75.48A3.6,3.6,0,0,0,158.8,71.88Z"/><path class="cls-2" d="M116.68,136.52H69.31V83.7h81.38v27.85a1.72,1.72,0,0,0,2.34,1.59l.08,0a1.74,1.74,0,0,0,1.18-1.63V83.7a3.6,3.6,0,0,0-3.6-3.6H69.31a3.6,3.6,0,0,0-3.6,3.6v52.82a3.6,3.6,0,0,0,3.6,3.6h47.37a1.79,1.79,0,0,0,1.72-1.27h0A1.79,1.79,0,0,0,116.68,136.52Z"/></g></svg>