<svg xmlns="http://www.w3.org/2000/svg" viewBox="0 0 220 220"><defs><style>.cls-1{fill:#eead2d;}</style></defs><title>objeto_outline</title><g id="Camada_1" data-name="Camada 1"><path class="cls-1" d="M123.28,151.37l9.49,9.49c3.49,3.5,15.41,9.66,16.76,10.35a2,2,0,0,0,2.29-.36l17.58-17.58a2,2,0,0,0,.46-2.05c0-.06-2-5.57-2.46-7.38-.56-2.1-1.11-4.76-1.7-7.58-.8-3.85-1.7-8.21-2.91-12.6-.93-3.39-3-5.33-5.74-5.33A5.75,5.75,0,0,0,153,120l0,0a5.83,5.83,0,0,0-1.7,4.13.53.53,0,0,0,0,.13l.42,6.35-16.4-16.4a5.81,5.81,0,1,0-8.22,8.22L131.6,127a5.77,5.77,0,0,0-3,7,5.8,5.8,0,0,0-3.42,7.82,5.79,5.79,0,0,0-1.93,9.53Zm5.44-5.44,4.05,4a2,2,0,0,0,2.78-2.78l-6.32-6.33a1.88,1.88,0,1,1,2.66-2.66l4.5,4.51a2,2,0,0,0,2.79-2.78l-6.33-6.32a1.88,1.88,0,1,1,2.66-2.66l4.51,4.51a2,2,0,0,0,2.78-2.78l-13-13a1.88,1.88,0,1,1,2.66-2.66l20.1,20.11a2,2,0,0,0,2.21.4,2,2,0,0,0,1.15-1.93l-.77-11.49a1.91,1.91,0,0,1,.56-1.31,1.89,1.89,0,0,1,1.32-.56c1.06,0,1.64,1.33,1.95,2.44,1.17,4.27,2.06,8.57,2.85,12.36.6,2.87,1.16,5.58,1.74,7.79.39,1.44,1.53,4.74,2.15,6.51l-15.68,15.69c-4.17-2.19-12.19-6.65-14.51-9l-9.49-9.49a1.88,1.88,0,1,1,2.66-2.66Z"/><path class="cls-1" d="M158.8,71.76H61.2a3.6,3.6,0,0,0-3.6,3.6v69.28a3.6,3.6,0,0,0,3.6,3.6h52.61a1.78,1.78,0,0,0,1.77-1.68v0a1.78,1.78,0,0,0-1.79-1.89H61.2V75.36h97.6V111a1.75,1.75,0,0,0,1.26,1.7h0a1.78,1.78,0,0,0,2.3-1.7V75.36A3.6,3.6,0,0,0,158.8,71.76Z"/><path class="cls-1" d="M116.68,136.41H69.31V83.59h81.38v27.84A1.73,1.73,0,0,0,153,113l.08,0a1.72,1.72,0,0,0,1.18-1.62V83.59a3.6,3.6,0,0,0-3.6-3.6H69.31a3.6,3.6,0,0,0-3.6,3.6v52.82a3.6,3.6,0,0,0,3.6,3.6h47.37a1.8,1.8,0,0,0,1.72-1.27h0A1.79,1.79,0,0,0,116.68,136.41Z"/></g></svg>