<svg xmlns="http://www.w3.org/2000/svg" viewBox="0 0 220 220"><defs><style>.cls-1{fill:#eead2d;}.cls-2{fill:#fff;}</style></defs><title>video_c</title><g id="Camada_2" data-name="Camada 2"><circle class="cls-1" cx="110" cy="110" r="84.81"/></g><g id="Camada_1" data-name="Camada 1"><polygon class="cls-2" points="165.13 145.34 165.13 152.29 152.29 152.29 152.29 165.13 145.34 165.13 145.34 152.29 132.5 152.29 132.5 145.34 145.34 145.34 145.34 132.5 152.29 132.5 152.29 145.34 165.13 145.34"/><path class="cls-2" d="M96.5,90.3l17.1,9.87L130.7,110l-17.1,9.87-17.1,9.88V90.3m-3.6-6.24v52l22.5-13,22.5-13-22.5-13-22.5-13Z"/><path class="cls-2" d="M158.29,128a1.86,1.86,0,0,0,3.61.65,55.06,55.06,0,1,0-33.25,33.25,1.86,1.86,0,0,0-.65-3.61h0A51.54,51.54,0,1,1,158.29,128Z"/></g></svg>