<svg xmlns="http://www.w3.org/2000/svg" viewBox="0 0 220 220"><defs><style>.cls-1{fill:#d436e3;}.cls-2{fill:#fff;}</style></defs><title>enquete</title><g id="Camada_2" data-name="Camada 2"><circle class="cls-1" cx="110" cy="110" r="84.81"/></g><g id="Camada_1" data-name="Camada 1"><path class="cls-2" d="M150.42,117.83a4.16,4.16,0,1,1-4.16,4.16,4.16,4.16,0,0,1,4.16-4.16m0,17.72c5.78,0,11.88,2.9,11.88,4.17v2.17H138.53v-2.17c0-1.27,6.1-4.17,11.89-4.17m0-21.48a7.93,7.93,0,1,0,7.92,7.92A7.92,7.92,0,0,0,150.42,114.07Zm0,17.92c-5.29,0-15.85,2.65-15.85,7.92v6h31.69v-6C166.26,134.64,155.71,132,150.42,132Z"/><path class="cls-2" d="M154.82,77.74V89.82H78.5V77.74h76.32m.6-3.6H77.9a3,3,0,0,0-3,3V90.42a3,3,0,0,0,3,3h77.52a3,3,0,0,0,3-3V77.14a3,3,0,0,0-3-3Z"/><path class="cls-2" d="M153.64,96.15H77.9a3,3,0,0,0-3,3v13.28a3,3,0,0,0,3,3h55.88a1.78,1.78,0,0,0,1.66-1.16l0,0a1.77,1.77,0,0,0-1.67-2.4H78.5V99.75h76.32v3.49A1.77,1.77,0,0,0,156,104.9l0,0a1.78,1.78,0,0,0,2.4-1.67v-2.32A4.78,4.78,0,0,0,153.64,96.15Z"/><path class="cls-2" d="M78.5,121.76h54.23a1.7,1.7,0,0,0,1.69-1.72v-.14h0a1.71,1.71,0,0,0-1.7-1.73H77.9a3,3,0,0,0-3,3v13.28a3,3,0,0,0,3,3h46.71a1.8,1.8,0,0,0,1.51-.84l0,0a1.78,1.78,0,0,0-1.51-2.72H78.5Z"/><path class="cls-2" d="M62.75,122.39a5.42,5.42,0,1,1-5.41,5.41,5.42,5.42,0,0,1,5.41-5.41m0-3.6a9,9,0,1,0,9,9,9,9,0,0,0-9-9Z"/><path class="cls-2" d="M62.75,100.37a5.42,5.42,0,1,1-5.41,5.42,5.42,5.42,0,0,1,5.41-5.42m0-3.6a9,9,0,1,0,9,9,9,9,0,0,0-9-9Z"/><path class="cls-2" d="M62.75,78.36a5.42,5.42,0,1,1-5.41,5.42,5.42,5.42,0,0,1,5.41-5.42m0-3.6a9,9,0,1,0,9,9,9,9,0,0,0-9-9Z"/></g></svg>