<svg xmlns="http://www.w3.org/2000/svg" viewBox="0 0 220 220"><defs><style>.cls-1{fill:none;stroke:#fff;stroke-miterlimit:10;stroke-width:3px;}.cls-2{fill:#fff;}</style></defs><title>enquete_white</title><g id="Camada_6" data-name="Camada 6"><circle class="cls-1" cx="110" cy="110.11" r="84.81"/><path class="cls-2" d="M150.42,118a4.16,4.16,0,1,1-4.16,4.16,4.16,4.16,0,0,1,4.16-4.16m0,17.72c5.78,0,11.88,2.89,11.88,4.16V142H138.53v-2.18c0-1.27,6.1-4.16,11.89-4.16m0-21.49a7.93,7.93,0,1,0,7.92,7.93A7.93,7.93,0,0,0,150.42,114.18Zm0,17.92c-5.29,0-15.85,2.66-15.85,7.93V146h31.69V140C166.26,134.76,155.71,132.1,150.42,132.1Z"/><path class="cls-2" d="M154.82,77.86V89.93H78.5V77.86h76.32m.6-3.6H77.9a3,3,0,0,0-3,3V90.53a3,3,0,0,0,3,3h77.52a3,3,0,0,0,3-3V77.26a3,3,0,0,0-3-3Z"/><path class="cls-2" d="M153.64,96.26H77.9a3,3,0,0,0-3,3v13.28a3,3,0,0,0,3,3h55.88a1.77,1.77,0,0,0,1.66-1.16l0,0a1.78,1.78,0,0,0-1.67-2.41H78.5V99.86h76.32v3.49A1.77,1.77,0,0,0,156,105h0a1.78,1.78,0,0,0,2.4-1.67v-2.31A4.78,4.78,0,0,0,153.64,96.26Z"/><path class="cls-2" d="M78.5,121.88h54.23a1.71,1.71,0,0,0,1.69-1.73V120a1.7,1.7,0,0,0-1.7-1.72H77.9a3,3,0,0,0-3,3v13.27a3,3,0,0,0,3,3h46.71a1.8,1.8,0,0,0,1.51-.84l0,0a1.78,1.78,0,0,0-1.51-2.72H78.5Z"/><path class="cls-2" d="M62.75,122.5a5.42,5.42,0,1,1-5.41,5.41,5.42,5.42,0,0,1,5.41-5.41m0-3.6a9,9,0,1,0,9,9,9,9,0,0,0-9-9Z"/><path class="cls-2" d="M62.75,100.49a5.42,5.42,0,1,1-5.41,5.41,5.42,5.42,0,0,1,5.41-5.41m0-3.6a9,9,0,1,0,9,9,9,9,0,0,0-9-9Z"/><path class="cls-2" d="M62.75,78.48a5.42,5.42,0,1,1-5.41,5.41,5.42,5.42,0,0,1,5.41-5.41m0-3.6a9,9,0,1,0,9,9,9,9,0,0,0-9-9Z"/></g></svg>