<svg  xmlns="http://www.w3.org/2000/svg" viewBox="0 0 220 220"><defs><style>.cls-1{fill:#eead2d;}</style></defs><title>exercicio_outline</title><g id="Camada_1" data-name="Camada 1"><path class="cls-1" d="M159.29,71.57l5.17,5.18a2.45,2.45,0,0,1,0,3.47L160.65,84,152,75.39l3.81-3.82A2.47,2.47,0,0,1,159.29,71.57Z"/><polygon class="cls-1" points="124.42 102.97 150.47 76.93 159.11 85.57 133.07 111.61 124.43 111.61 124.42 102.97"/><path class="cls-1" d="M163.82,93.69v3.56h-3.56a1.8,1.8,0,0,0-1.27.53h0a1.8,1.8,0,0,0,1.27,3.07h4.16a3,3,0,0,0,3-3V93.69a1.8,1.8,0,0,0-3.07-1.27h0A1.8,1.8,0,0,0,163.82,93.69Zm-49.17,3.56H79.39V83.31h51.86a1.8,1.8,0,0,0,1.27-.53h0a1.8,1.8,0,0,0-1.27-3.07H78.79a3,3,0,0,0-3,3V97.85a3,3,0,0,0,3,3h35.86a1.8,1.8,0,0,0,1.49-.79h0A1.8,1.8,0,0,0,114.65,97.25Z"/><path class="cls-1" d="M164.42,103.85H153.66a1.8,1.8,0,0,0-1.27.53h0a1.8,1.8,0,0,0,1.27,3.07h10.16v14H79.39v-14H113.8a1.8,1.8,0,0,0,1.8-1.8h0a1.8,1.8,0,0,0-1.8-1.8h-35a3,3,0,0,0-3,3V122a3,3,0,0,0,3,3h85.63a3,3,0,0,0,3-3V106.85A3,3,0,0,0,164.42,103.85Z"/><path class="cls-1" d="M163.82,131.6v13.94H79.4V131.6h84.42m.6-3.6H78.8a3,3,0,0,0-3,3v15.14a3,3,0,0,0,3,3h85.62a3,3,0,0,0,3-3V131a3,3,0,0,0-3-3Z"/><path class="cls-1" d="M62.47,132.28a6.29,6.29,0,1,1-6.29,6.29,6.29,6.29,0,0,1,6.29-6.29m0-3.6a9.89,9.89,0,1,0,9.89,9.89,9.89,9.89,0,0,0-9.89-9.89Z"/><path class="cls-1" d="M62.47,108.13a6.3,6.3,0,1,1-6.29,6.29,6.3,6.3,0,0,1,6.29-6.29m0-3.6a9.9,9.9,0,1,0,9.89,9.89,9.89,9.89,0,0,0-9.89-9.89Z"/><path class="cls-1" d="M62.47,84a6.29,6.29,0,1,1-6.29,6.29A6.29,6.29,0,0,1,62.47,84m0-3.6a9.89,9.89,0,1,0,9.89,9.89,9.89,9.89,0,0,0-9.89-9.89Z"/></g></svg>