<svg xmlns="http://www.w3.org/2000/svg" viewBox="0 0 220 220"><defs><style>.cls-1{fill:none;stroke:#fff;stroke-miterlimit:10;stroke-width:3px;}.cls-2{fill:#fff;}</style></defs><title>exercicio_white</title><g id="Camada_6" data-name="Camada 6"><circle class="cls-1" cx="110" cy="110.11" r="84.81"/><path class="cls-2" d="M159.29,71.69l5.17,5.17a2.45,2.45,0,0,1,0,3.47l-3.81,3.81L152,75.5l3.81-3.81A2.45,2.45,0,0,1,159.29,71.69Z"/><polygon class="cls-2" points="124.42 103.08 150.47 77.04 159.11 85.68 133.07 111.72 124.43 111.72 124.42 103.08"/><path class="cls-2" d="M163.82,93.81v3.55h-3.56a1.8,1.8,0,0,0-1.27.53h0a1.8,1.8,0,0,0,1.27,3.07h4.16a3,3,0,0,0,3-3V93.81a1.8,1.8,0,0,0-3.07-1.28h0A1.81,1.81,0,0,0,163.82,93.81Zm-49.17,3.55H79.39V83.42h51.86a1.8,1.8,0,0,0,1.27-.53h0a1.8,1.8,0,0,0-1.27-3.07H78.79a3,3,0,0,0-3,3V98a3,3,0,0,0,3,3h35.86a1.78,1.78,0,0,0,1.49-.79h0A1.8,1.8,0,0,0,114.65,97.36Z"/><path class="cls-2" d="M164.42,104H153.66a1.8,1.8,0,0,0-1.27.53h0a1.8,1.8,0,0,0,1.27,3.07h10.16v14H79.39v-14H113.8a1.79,1.79,0,0,0,1.8-1.8h0a1.8,1.8,0,0,0-1.8-1.8h-35a3,3,0,0,0-3,3v15.15a3,3,0,0,0,3,3h85.63a3,3,0,0,0,3-3V107A3,3,0,0,0,164.42,104Z"/><path class="cls-2" d="M163.82,131.71v13.95H79.4V131.71h84.42m.6-3.6H78.8a3,3,0,0,0-3,3v15.15a3,3,0,0,0,3,3h85.62a3,3,0,0,0,3-3V131.11a3,3,0,0,0-3-3Z"/><path class="cls-2" d="M62.47,132.39a6.29,6.29,0,1,1-6.29,6.29,6.29,6.29,0,0,1,6.29-6.29m0-3.6a9.89,9.89,0,1,0,9.89,9.89,9.89,9.89,0,0,0-9.89-9.89Z"/><path class="cls-2" d="M62.47,108.25a6.29,6.29,0,1,1-6.29,6.29,6.29,6.29,0,0,1,6.29-6.29m0-3.6a9.89,9.89,0,1,0,9.89,9.89,9.89,9.89,0,0,0-9.89-9.89Z"/><path class="cls-2" d="M62.47,84.1a6.29,6.29,0,1,1-6.29,6.29,6.29,6.29,0,0,1,6.29-6.29m0-3.6a9.89,9.89,0,1,0,9.89,9.89,9.89,9.89,0,0,0-9.89-9.89Z"/></g></svg>