<svg xmlns="http://www.w3.org/2000/svg" viewBox="0 0 220 220"><defs><style>.cls-1{fill:none;stroke:#fff;stroke-miterlimit:10;stroke-width:3px;}.cls-2{fill:#fff;}</style></defs><title>gabarito_white</title><g id="Camada_6" data-name="Camada 6"><circle class="cls-1" cx="110" cy="110.11" r="84.81"/><path class="cls-2" d="M149.2,83.52V94.71H76.72V83.52H149.2m.6-3.6H76.12a3,3,0,0,0-3,3V95.31a3,3,0,0,0,3,3H149.8a3,3,0,0,0,3-3V82.92a3,3,0,0,0-3-3Z"/><path class="cls-2" d="M149.2,104.52v11.19H76.72V104.52H149.2m.6-3.6H76.12a3,3,0,0,0-3,3v12.39a3,3,0,0,0,3,3H149.8a3,3,0,0,0,3-3V103.92a3,3,0,0,0-3-3Z"/><path class="cls-2" d="M113.18,136.71H76.72V125.52h72a1.37,1.37,0,0,0,.9-.35l1.11-1a1.29,1.29,0,0,0-.87-2.25H76.12a3,3,0,0,0-3,3v12.39a3,3,0,0,0,3,3h37.06a1.8,1.8,0,0,0,1.74-2.24h0A1.8,1.8,0,0,0,113.18,136.71Z"/><path class="cls-2" d="M61.53,126.11a5,5,0,1,1-5,5,5,5,0,0,1,5-5m0-3.6a8.6,8.6,0,1,0,8.6,8.6,8.6,8.6,0,0,0-8.6-8.6Z"/><path class="cls-2" d="M61.53,105.11a5,5,0,1,1-5,5,5,5,0,0,1,5-5m0-3.6a8.6,8.6,0,1,0,8.6,8.6,8.6,8.6,0,0,0-8.6-8.6Z"/><path class="cls-2" d="M61.53,84.11a5,5,0,1,1-5,5,5,5,0,0,1,5-5m0-3.6a8.61,8.61,0,1,0,8.6,8.6,8.6,8.6,0,0,0-8.6-8.6Z"/><path class="cls-2" d="M137.07,146.41l-10.5-10.5-3.5,3.5,14,14,30-30-3.5-3.5Z"/></g></svg>