<svg xmlns="http://www.w3.org/2000/svg" viewBox="0 0 220 220"><defs><style>.cls-1{fill:none;stroke:#fff;stroke-miterlimit:10;stroke-width:3px;}.cls-2{fill:#fff;}</style></defs><title>modelo_white</title><g id="Camada_6" data-name="Camada 6"><circle class="cls-1" cx="110" cy="110" r="84.81"/><path class="cls-2" d="M131.24,68.53l19.55,19.55V160.3H78.29V68.53h53m0-3.6H78.29a3.6,3.6,0,0,0-3.6,3.6V160.3a3.6,3.6,0,0,0,3.6,3.6h72.5a3.61,3.61,0,0,0,3.6-3.6V88.08a3.57,3.57,0,0,0-1.06-2.54L133.79,66a3.59,3.59,0,0,0-2.55-1.06Z"/><path class="cls-2" d="M140.38,140.66h-55a1.8,1.8,0,0,1,0-3.6h55a1.8,1.8,0,1,1,0,3.6Z"/><path class="cls-2" d="M104.11,88.39H85.36a1.8,1.8,0,0,1,0-3.6h18.75a1.8,1.8,0,0,1,0,3.6Z"/><path class="cls-2" d="M111.73,88.39H110a1.8,1.8,0,0,1,0-3.6h1.7a1.8,1.8,0,0,1,0,3.6Z"/><path class="cls-2" d="M104.11,123.24H85.36a1.8,1.8,0,0,1,0-3.6h18.75a1.8,1.8,0,0,1,0,3.6Z"/><path class="cls-2" d="M140.38,123.24h-21a1.8,1.8,0,0,1,0-3.6h21a1.8,1.8,0,1,1,0,3.6Z"/><path class="cls-2" d="M111.9,123.24h-1.7a1.8,1.8,0,0,1,0-3.6h1.7a1.8,1.8,0,0,1,0,3.6Z"/><path class="cls-2" d="M115.71,105.81H85.36a1.8,1.8,0,1,1,0-3.6h30.35a1.8,1.8,0,1,1,0,3.6Z"/><path class="cls-2" d="M125.77,105.81h-1.71a1.8,1.8,0,1,1,0-3.6h1.71a1.8,1.8,0,0,1,0,3.6Z"/><path class="cls-2" d="M124.71,57.39a3.57,3.57,0,0,0-2.54-1.06h-53a3.61,3.61,0,0,0-3.6,3.6V151.7a3.61,3.61,0,0,0,3.6,3.6h5.48v-3.6H69.21V59.93h53l5,5h4.08a3.68,3.68,0,0,1,1.24.22Z"/></g></svg>