<?xml version="1.0" encoding="utf-8"?>
<!-- Generator: Adobe Illustrator 25.1.0, SVG Export Plug-In . SVG Version: 6.00 Build 0)  -->
<svg version="1.1" id="Camada_1" xmlns="http://www.w3.org/2000/svg" xmlns:xlink="http://www.w3.org/1999/xlink" x="0px" y="0px"
	 viewBox="0 0 220 220" style="enable-background:new 0 0 220 220;" xml:space="preserve">
<style type="text/css">
	.st0{fill:#F0B400;}
	.st1{fill:#FFFFFF;}
</style>
<g id="Camada_2_1_">
	<circle class="st0" cx="110" cy="110" r="84.8"/>
</g>
<g id="Camada_1_1_">
	<path class="st1" d="M123.3,151.4l9.5,9.5c3.5,3.5,15.4,9.7,16.8,10.4c0.8,0.4,1.7,0.2,2.3-0.4l17.6-17.6c0.5-0.5,0.7-1.3,0.5-2.1
		c0-0.1-2-5.6-2.5-7.4c-0.6-2.1-1.1-4.8-1.7-7.6c-0.8-3.9-1.7-8.2-2.9-12.6c-0.9-3.4-3-5.3-5.7-5.3c-1.5,0-3,0.6-4,1.7l0,0
		c-1.1,1.1-1.7,2.6-1.7,4.1c0,0,0,0.1,0,0.1l0.4,6.4l-16.4-16.4c-2.3-2.3-6-2.3-8.2,0c-2.3,2.3-2.3,6,0,8.2l4.5,4.6
		c-2.6,1.2-3.9,4.2-3,7c-3,1-4.6,4.3-3.6,7.4c0.1,0.2,0.1,0.3,0.2,0.4c-3,1.2-4.4,4.5-3.3,7.5C122.2,150.1,122.7,150.8,123.3,151.4
		L123.3,151.4z M128.7,145.9l4.1,4c0.9,0.6,2.2,0.4,2.8-0.5c0.5-0.7,0.5-1.6,0-2.3l-6.3-6.3c-0.7-0.7-0.7-1.9,0-2.7s1.9-0.7,2.7,0
		l4.5,4.5c0.9,0.6,2.2,0.4,2.8-0.5c0.5-0.7,0.5-1.6,0-2.3l-6.3-6.3c-0.7-0.7-0.7-1.9,0-2.7s1.9-0.7,2.7,0l4.5,4.5
		c0.9,0.6,2.2,0.4,2.8-0.5c0.5-0.7,0.5-1.6,0-2.3l-13-13c-0.7-0.7-0.7-1.9,0-2.7s1.9-0.7,2.7,0l0,0l20.1,20.1
		c0.6,0.6,1.5,0.7,2.2,0.4c0.7-0.3,1.2-1.1,1.1-1.9l-0.8-11.5c0-0.5,0.2-1,0.6-1.3c0.3-0.4,0.8-0.6,1.3-0.6c1.1,0,1.6,1.3,1.9,2.4
		c1.2,4.3,2.1,8.6,2.9,12.4c0.6,2.9,1.2,5.6,1.7,7.8c0.4,1.4,1.5,4.7,2.1,6.5L150,167c-4.2-2.2-12.2-6.6-14.5-9l-9.5-9.5
		c-0.7-0.7-0.7-1.9,0-2.7C126.8,145.1,128,145.1,128.7,145.9L128.7,145.9L128.7,145.9z"/>
	<path class="st1" d="M158.8,71.8H61.2c-2,0-3.6,1.6-3.6,3.6v69.3c0,2,1.6,3.6,3.6,3.6h0h52.6c0.9,0,1.7-0.7,1.8-1.7l0,0
		c0.1-1-0.7-1.8-1.7-1.9c0,0-0.1,0-0.1,0H61.2V75.4h97.6V111c0,0.8,0.5,1.5,1.3,1.7l0,0c0.9,0.3,1.9-0.2,2.2-1.2
		c0.1-0.2,0.1-0.3,0.1-0.5V75.4C162.4,73.4,160.8,71.8,158.8,71.8z"/>
	<path class="st1" d="M116.7,136.4H69.3V83.6h81.4v27.8c0,1,0.8,1.7,1.8,1.7c0.2,0,0.4,0,0.5-0.1h0.1c0.7-0.2,1.2-0.9,1.2-1.6V83.6
		c0-2-1.6-3.6-3.6-3.6l0,0H69.3c-2,0-3.6,1.6-3.6,3.6v52.8c0,2,1.6,3.6,3.6,3.6c0,0,0,0,0,0h47.4c0.8,0,1.5-0.5,1.7-1.3l0,0
		c0.3-0.9-0.2-1.9-1.2-2.2C117.1,136.4,116.9,136.4,116.7,136.4z"/>
</g>
</svg>
