<svg xmlns="http://www.w3.org/2000/svg" viewBox="0 0 220 220"><defs><style>.cls-1{fill:none;stroke:#fff;stroke-miterlimit:10;stroke-width:3px;}.cls-2{fill:#fff;}</style></defs><title>recurso_i_white</title><g id="Camada_6" data-name="Camada 6"><circle class="cls-1" cx="110" cy="110" r="84.81"/><path class="cls-2" d="M174.62,153.35,149.1,128.43l-2.55-2.55-6.8-6.8a5.4,5.4,0,0,0-7.64,0l-.65.65a5.4,5.4,0,0,0,0,7.64l6.8,6.8,2.55,2.55,25.52,24.92a5.41,5.41,0,0,0,7.64,0l.65-.65A5.4,5.4,0,0,0,174.62,153.35ZM134,124.82a1.8,1.8,0,0,1,0-2.54l.65-.66a1.81,1.81,0,0,1,1.28-.52,1.79,1.79,0,0,1,1.27.52l6.81,6.81-3.2,3.2Z"/><path class="cls-2" d="M120.45,123.72l-3.89-.3a.88.88,0,0,1-.81-.81l-.3-3.89a.88.88,0,0,0-1.76,0l-.3,3.89a.88.88,0,0,1-.81.81l-3.89.3a.88.88,0,0,0,0,1.76l3.89.3a.88.88,0,0,1,.81.81l.3,3.89a.88.88,0,0,0,1.76,0l.3-3.89a.88.88,0,0,1,.81-.81l3.89-.3A.88.88,0,0,0,120.45,123.72Z"/><path class="cls-2" d="M117.39,99.48l-3.89-.3a.88.88,0,0,1-.81-.81l-.3-3.89a.88.88,0,0,0-1.76,0l-.3,3.89a.88.88,0,0,1-.81.81l-3.89.3a.88.88,0,0,0,0,1.76l3.89.3a.88.88,0,0,1,.81.81l.3,3.89a.88.88,0,0,0,1.76,0l.3-3.89a.88.88,0,0,1,.81-.81l3.89-.3A.88.88,0,0,0,117.39,99.48Z"/><path class="cls-2" d="M132.3,103.69l3.89.29a.89.89,0,0,1,.81.82l.3,3.88a.88.88,0,0,0,1.76,0l.3-3.88a.89.89,0,0,1,.81-.82l3.89-.29a.89.89,0,0,0,0-1.77l-3.89-.29a.89.89,0,0,1-.81-.82l-.3-3.89a.88.88,0,0,0-1.76,0l-.3,3.89a.89.89,0,0,1-.81.82l-3.89.29A.89.89,0,0,0,132.3,103.69Z"/><path class="cls-2" d="M158.22,71.49H60.62a3.6,3.6,0,0,0-3.6,3.6v69.27a3.6,3.6,0,0,0,3.6,3.6h78.6a1.8,1.8,0,0,0,1.27-3.07h0a1.77,1.77,0,0,0-1.27-.53H60.62V75.09h97.6v53.23a1.8,1.8,0,0,0,.53,1.27h0a1.8,1.8,0,0,0,3.07-1.27V75.09A3.6,3.6,0,0,0,158.22,71.49Z"/><path class="cls-2" d="M150.1,79.72H68.73a3.6,3.6,0,0,0-3.6,3.6v52.81a3.59,3.59,0,0,0,3.6,3.6H131a1.8,1.8,0,0,0,1.28-3.07h0a1.81,1.81,0,0,0-1.28-.53H68.73V83.32H150.1V120.2a1.8,1.8,0,0,0,.53,1.27h0a1.8,1.8,0,0,0,3.07-1.27V83.32A3.6,3.6,0,0,0,150.1,79.72Z"/></g></svg>