<svg xmlns="http://www.w3.org/2000/svg" viewBox="0 0 220 220"><defs><style>.cls-1{fill:#23dce4;}.cls-2{fill:#fff;}</style></defs><title>recurso_i</title><g id="Camada_2" data-name="Camada 2"><circle class="cls-1" cx="110" cy="110" r="84.81"/></g><g id="Camada_1" data-name="Camada 1"><path class="cls-2" d="M174.62,153.24,149.1,128.32l-2.55-2.55-6.8-6.81a5.42,5.42,0,0,0-7.64,0l-.65.66a5.39,5.39,0,0,0,0,7.63l6.8,6.81,2.55,2.54,25.52,24.93a5.41,5.41,0,0,0,7.64,0l.65-.65A5.4,5.4,0,0,0,174.62,153.24ZM134,124.71a1.81,1.81,0,0,1,0-2.55l.65-.65a1.82,1.82,0,0,1,1.28-.53,1.8,1.8,0,0,1,1.27.53l6.81,6.81-3.2,3.19Z"/><path class="cls-2" d="M120.45,123.6l-3.89-.29a.88.88,0,0,1-.81-.82l-.3-3.88a.88.88,0,0,0-1.76,0l-.3,3.88a.88.88,0,0,1-.81.82l-3.89.29a.89.89,0,0,0,0,1.77l3.89.29a.89.89,0,0,1,.81.82l.3,3.89a.88.88,0,0,0,1.76,0l.3-3.89a.89.89,0,0,1,.81-.82l3.89-.29A.89.89,0,0,0,120.45,123.6Z"/><path class="cls-2" d="M117.39,99.36l-3.89-.29a.88.88,0,0,1-.81-.82l-.3-3.88a.88.88,0,0,0-1.76,0l-.3,3.88a.88.88,0,0,1-.81.82l-3.89.29a.89.89,0,0,0,0,1.77l3.89.29a.89.89,0,0,1,.81.82l.3,3.89a.88.88,0,0,0,1.76,0l.3-3.89a.89.89,0,0,1,.81-.82l3.89-.29A.89.89,0,0,0,117.39,99.36Z"/><path class="cls-2" d="M132.3,103.57l3.89.3a.88.88,0,0,1,.81.81l.3,3.89a.88.88,0,0,0,1.76,0l.3-3.89a.88.88,0,0,1,.81-.81l3.89-.3a.88.88,0,0,0,0-1.76l-3.89-.3a.88.88,0,0,1-.81-.81l-.3-3.89a.88.88,0,0,0-1.76,0l-.3,3.89a.88.88,0,0,1-.81.81l-3.89.3A.88.88,0,0,0,132.3,103.57Z"/><path class="cls-2" d="M158.22,71.38H60.62A3.6,3.6,0,0,0,57,75v69.27a3.6,3.6,0,0,0,3.6,3.6h78.6a1.8,1.8,0,0,0,1.27-3.08h0a1.8,1.8,0,0,0-1.27-.52H60.62V75h97.6V128.2a1.77,1.77,0,0,0,.53,1.27h0a1.79,1.79,0,0,0,3.07-1.27V75A3.6,3.6,0,0,0,158.22,71.38Z"/><path class="cls-2" d="M150.1,79.6H68.73a3.6,3.6,0,0,0-3.6,3.6V136a3.6,3.6,0,0,0,3.6,3.6H131a1.8,1.8,0,0,0,1.28-3.07h0A1.81,1.81,0,0,0,131,136H68.73V83.2H150.1v36.88a1.81,1.81,0,0,0,.53,1.28h0a1.8,1.8,0,0,0,3.07-1.28V83.2A3.6,3.6,0,0,0,150.1,79.6Z"/></g></svg>