<svg xmlns="http://www.w3.org/2000/svg" viewBox="0 0 220 220"><defs><style>.cls-1{fill:#eead2d;}</style></defs><title>video_outline</title><g id="Camada_1" data-name="Camada 1"><path class="cls-1" d="M126.18,158.91a51.55,51.55,0,0,1-7.17,1.82h0a2,2,0,0,0,1.77,3.33q2.72-.54,5.33-1.34a2,2,0,0,0,.07-3.81Zm-17-104c-28.71.4-53.51,24.81-54.33,53.52a55.12,55.12,0,0,0,47,56.15,1.8,1.8,0,0,0,2.07-1.78h0a1.8,1.8,0,0,0-1.52-1.78A51.53,51.53,0,1,1,158,128.54a1.84,1.84,0,0,0,2,2.47h0a1.63,1.63,0,0,0,1.23-1,55.17,55.17,0,0,0-52.17-75.13Z"/><path class="cls-1" d="M176.47,137.92l0,4.64a26.74,26.74,0,0,0-33.19,12.32c-7.61-10.58-23.85-11.84-33.31-3.29v-5.07a27.21,27.21,0,0,1,32.51,1.78c8.84-11.05,21.87-14,34-10.38"/><path class="cls-1" d="M176.47,145.61l0,4.28c-11.8-6-27.37,0-29.51,15.24h-5.61c-3.47-10.93-13.79-14.39-22.41-11a19.54,19.54,0,0,0-9,7.19v-6c9.21-10.22,27.76-8.33,33.82,5.29,5.11-14.93,19.93-20.28,32.72-15"/><path class="cls-1" d="M96.23,90l17.1,9.87,17.1,9.87-17.1,9.88-17.1,9.87V90m-3.6-6.24v52l22.5-13,22.5-13-22.5-13-22.5-13Z"/></g></svg>