<svg xmlns="http://www.w3.org/2000/svg" viewBox="0 0 220 220"><defs><style>.cls-1{fill:none;stroke:#fff;stroke-miterlimit:10;stroke-width:3px;}.cls-2{fill:#fff;}</style></defs><title>video_white</title><g id="Camada_6" data-name="Camada 6"><circle class="cls-1" cx="110" cy="110.11" r="84.81"/><path class="cls-2" d="M126.18,159a51.55,51.55,0,0,1-7.17,1.82h0a2,2,0,0,0,1.77,3.33,52.57,52.57,0,0,0,5.33-1.34,2,2,0,0,0,.07-3.81Zm-17-104c-28.71.4-53.51,24.81-54.33,53.52a55.12,55.12,0,0,0,47,56.15,1.8,1.8,0,0,0,2.07-1.78h0a1.8,1.8,0,0,0-1.52-1.78A51.53,51.53,0,1,1,158,128.65a1.84,1.84,0,0,0,2,2.47h0a1.62,1.62,0,0,0,1.23-1A55.18,55.18,0,0,0,109.15,55Z"/><path class="cls-2" d="M176.47,138l0,4.63A26.76,26.76,0,0,0,143.24,155c-7.61-10.57-23.85-11.84-33.31-3.29v-5.07a27.21,27.21,0,0,1,32.51,1.79c8.84-11.06,21.87-14,34-10.38"/><path class="cls-2" d="M176.47,145.72l0,4.28c-11.8-6-27.37,0-29.51,15.25h-5.61c-3.47-10.94-13.79-14.4-22.41-11a19.42,19.42,0,0,0-9,7.19v-6c9.21-10.22,27.76-8.33,33.82,5.29,5.11-14.93,19.93-20.28,32.72-15"/><path class="cls-2" d="M96.23,90.08l17.1,9.87,17.1,9.88-17.1,9.87-17.1,9.87V90.08m-3.6-6.23v52l22.5-13,22.5-13-22.5-13-22.5-13Z"/></g></svg>