<svg xmlns="http://www.w3.org/2000/svg" viewBox="0 0 220 220"><defs><style>.cls-1{fill:none;stroke:#fff;stroke-miterlimit:10;stroke-width:3px;}.cls-2{fill:#fff;}</style></defs><title>video_c_white</title><g id="Camada_6" data-name="Camada 6"><circle class="cls-1" cx="110" cy="110.11" r="84.81"/><polygon class="cls-2" points="165.13 145.46 165.13 152.4 152.29 152.4 152.29 165.25 145.34 165.25 145.34 152.4 132.5 152.4 132.5 145.46 145.34 145.46 145.34 132.61 152.29 132.61 152.29 145.46 165.13 145.46"/><path class="cls-2" d="M96.5,90.41l17.1,9.87,17.1,9.88L113.6,120,96.5,129.9V90.41m-3.6-6.24v52l22.5-13,22.5-13-22.5-13-22.5-13Z"/><path class="cls-2" d="M158.29,128.11a1.86,1.86,0,0,0,3.61.65A55.11,55.11,0,1,0,128.65,162a1.86,1.86,0,0,0-.65-3.61h0a51.54,51.54,0,1,1,30.29-30.29Z"/></g></svg>