<svg xmlns="http://www.w3.org/2000/svg" viewBox="0 0 72 72"><defs><style>.cls-1{fill:#373737;}</style></defs><g id="Camada_3" data-name="Camada 3"><path class="cls-1" d="M61.23,4.77a6,6,0,0,1,6,6V61.23a6,6,0,0,1-6,6H10.77a6,6,0,0,1-6-6V10.77a6,6,0,0,1,6-6H61.23m0-4H10.77a10,10,0,0,0-10,10V61.23a10,10,0,0,0,10,10H61.23a10,10,0,0,0,10-10V10.77a10,10,0,0,0-10-10Z"/><path class="cls-1" d="M48.18,43.94a.83.83,0,0,1-.26.6.86.86,0,0,1-.6.26H44.48v6.32a.85.85,0,0,1-.24.6.73.73,0,0,1-.58.26H37.94a.75.75,0,0,1-.59-.26.88.88,0,0,1-.23-.6V44.8H24.69a.85.85,0,0,1-.61-.26.83.83,0,0,1-.26-.6V39.76a2.33,2.33,0,0,1,.48-1.33L37.89,20.62a1.56,1.56,0,0,1,.48-.45A1.24,1.24,0,0,1,39,20h4.61a.8.8,0,0,1,.6.26.83.83,0,0,1,.26.6V39.12h2.84a.89.89,0,0,1,.86.86ZM37.33,29.66c0-.18,0-.26-.17-.26s-.07,0-.13.08l-6.75,9.21a.34.34,0,0,0-.09.26c0,.11.09.17.26.17h6.88Z"/></g></svg>