<svg xmlns="http://www.w3.org/2000/svg" viewBox="0 0 72 72"><defs><style>.cls-1{fill:#373737;}</style></defs><g id="Camada_3" data-name="Camada 3"><path class="cls-1" d="M61.23,4.77a6,6,0,0,1,6,6V61.23a6,6,0,0,1-6,6H10.77a6,6,0,0,1-6-6V10.77a6,6,0,0,1,6-6H61.23m0-4H10.77a10,10,0,0,0-10,10V61.23a10,10,0,0,0,10,10H61.23a10,10,0,0,0,10-10V10.77a10,10,0,0,0-10-10Z"/><path class="cls-1" d="M49.57,51.49c0,.46-.24.69-.73.69h-6a.73.73,0,0,1-.56-.22,1.21,1.21,0,0,1-.3-.56l-1.55-7H31.59L30,51.4a1.21,1.21,0,0,1-.3.56.73.73,0,0,1-.56.22h-6c-.49,0-.73-.23-.73-.69a.15.15,0,0,1,0-.09.35.35,0,0,0,0-.13L28.88,24.6A6.68,6.68,0,0,1,30,22.11a5.07,5.07,0,0,1,1.7-1.45A6.66,6.66,0,0,1,33.78,20,14.19,14.19,0,0,1,36,19.82a13.66,13.66,0,0,1,2.22.18,6.63,6.63,0,0,1,2.06.66A5.07,5.07,0,0,1,42,22.11a6.68,6.68,0,0,1,1.12,2.49l6.41,26.67a.35.35,0,0,0,0,.13A.15.15,0,0,1,49.57,51.49Zm-13-24.91a2.16,2.16,0,0,0-.17-.5q-.09-.15-.39-.15c-.31,0-.51.22-.6.65L32.8,38.45h6.41Z"/></g></svg>