<svg xmlns="http://www.w3.org/2000/svg" viewBox="0 0 71.74 71.74"><defs><style>.cls-1{fill:none;}.cls-2{fill:#373737;}</style></defs><g id="Camada_5" data-name="Camada 5"><path class="cls-1" d="M68.75,21.67v33.5a6,6,0,0,1-.19,1.52,5.88,5.88,0,0,1-7.18,4.24,36.62,36.62,0,0,0-9-1.06A30.81,30.81,0,0,0,38.87,62.6a6.12,6.12,0,0,1-5.56,0,30.84,30.84,0,0,0-6.81-2.16,17,17,0,0,0,4.51-10,6.07,6.07,0,0,0-3.59-6.17V37.73a13.44,13.44,0,0,0-24-8.33V21.67a6.06,6.06,0,0,1,3.63-5.5,32.12,32.12,0,0,1,12.71-2.34,27.57,27.57,0,0,1,16.34,4.45,27.52,27.52,0,0,1,16.33-4.45,32,32,0,0,1,12.68,2.34A6.06,6.06,0,0,1,68.75,21.67Z"/><path class="cls-1" d="M68.75,21.67v33.5a6,6,0,0,1-.19,1.52,5.88,5.88,0,0,1-7.18,4.24,36.62,36.62,0,0,0-9-1.06A30.81,30.81,0,0,0,38.87,62.6a6.12,6.12,0,0,1-5.56,0,30.84,30.84,0,0,0-6.81-2.16,17,17,0,0,0,4.51-10,6.07,6.07,0,0,0-3.59-6.17V37.73a13.44,13.44,0,0,0-24-8.33V21.67a6.06,6.06,0,0,1,3.63-5.5,32.12,32.12,0,0,1,12.71-2.34,27.57,27.57,0,0,1,16.34,4.45,27.52,27.52,0,0,1,16.33-4.45,32,32,0,0,1,12.68,2.34A6.06,6.06,0,0,1,68.75,21.67Z"/><path class="cls-2" d="M65.12,16.17a32,32,0,0,0-12.68-2.34,27.52,27.52,0,0,0-16.33,4.45,27.57,27.57,0,0,0-16.34-4.45A32.12,32.12,0,0,0,7.06,16.17a6.06,6.06,0,0,0-3.63,5.5V29.4a13.44,13.44,0,0,1,24,8.33v6.55A6.07,6.07,0,0,1,31,50.45a17,17,0,0,1-4.51,10,30.84,30.84,0,0,1,6.81,2.16,6.12,6.12,0,0,0,5.56,0,30.81,30.81,0,0,1,13.54-2.73,36.62,36.62,0,0,1,9,1.06,5.88,5.88,0,0,0,7.18-4.24,6,6,0,0,0,.19-1.52V21.67A6.06,6.06,0,0,0,65.12,16.17ZM62.84,51.64a3,3,0,0,1-3,3,3.27,3.27,0,0,1-.53-.05,37.33,37.33,0,0,0-6.84-.6,35.86,35.86,0,0,0-16.34,4.46V24.22a35.76,35.76,0,0,1,16.34-4.45,37.36,37.36,0,0,1,8,.83,3,3,0,0,1,2.38,2.92Z"/><path class="cls-2" d="M42,33.16a2.22,2.22,0,0,1-.68-4.33,39.49,39.49,0,0,1,15.92-1.35,2.22,2.22,0,1,1-.5,4.42,35.28,35.28,0,0,0-14,1.16A5.46,5.46,0,0,1,42,33.16Z"/><path class="cls-2" d="M42,41.06a2.22,2.22,0,0,1-.68-4.33,39.31,39.31,0,0,1,15.92-1.34,2.22,2.22,0,1,1-.51,4.42,35.23,35.23,0,0,0-14,1.16A2.72,2.72,0,0,1,42,41.06Z"/><path class="cls-2" d="M42,49a2.22,2.22,0,0,1-.68-4.33,39.48,39.48,0,0,1,15.92-1.34,2.23,2.23,0,0,1-.51,4.43,35,35,0,0,0-14,1.15A2.72,2.72,0,0,1,42,49Z"/><path class="cls-2" d="M65.12,16.17a32,32,0,0,0-12.68-2.34,27.52,27.52,0,0,0-16.33,4.45,27.57,27.57,0,0,0-16.34-4.45A32.12,32.12,0,0,0,7.06,16.17a6.06,6.06,0,0,0-3.63,5.5V29.4a13.44,13.44,0,0,1,24,8.33v6.55A6.07,6.07,0,0,1,31,50.45a17,17,0,0,1-4.51,10,30.84,30.84,0,0,1,6.81,2.16,6.12,6.12,0,0,0,5.56,0,30.81,30.81,0,0,1,13.54-2.73,36.62,36.62,0,0,1,9,1.06,5.88,5.88,0,0,0,7.18-4.24,6,6,0,0,0,.19-1.52V21.67A6.06,6.06,0,0,0,65.12,16.17ZM62.84,51.64a3,3,0,0,1-3,3,3.27,3.27,0,0,1-.53-.05,37.33,37.33,0,0,0-6.84-.6,35.86,35.86,0,0,0-16.34,4.46V24.22a35.76,35.76,0,0,1,16.34-4.45,37.36,37.36,0,0,1,8,.83,3,3,0,0,1,2.38,2.92Z"/><rect class="cls-2" x="7.96" y="33.16" width="12.02" height="21.54" rx="6.01"/><path class="cls-2" d="M23.37,67.55a1.09,1.09,0,0,1-.32.78,1.15,1.15,0,0,1-.78.32H5.67a1.1,1.1,0,0,1-1.1-1.1,1.13,1.13,0,0,1,1.1-1.1H12.3v-5.7A12.12,12.12,0,0,1,1.9,50,1.12,1.12,0,0,1,3,48.74H3a1.14,1.14,0,0,1,1.12,1,9.88,9.88,0,0,0,19.65,0A1.12,1.12,0,0,1,26,50a12.13,12.13,0,0,1-10.4,10.8v5.7h6.63A1.1,1.1,0,0,1,23.37,67.55Z"/></g></svg>