<svg xmlns="http://www.w3.org/2000/svg" width="22.076" height="17.17" viewBox="0 0 22.076 17.17"><defs><style>.a{fill:#373737;}</style></defs><path class="a" d="M21.283,12.525,16.258,5.347a4.379,4.379,0,0,0-7.7.985A4.283,4.283,0,0,0,0,6.543v8.585a4.293,4.293,0,0,0,8.585,0V9.413a4.441,4.441,0,0,0,.491.958L14.1,17.55a4.381,4.381,0,1,0,7.179-5.025ZM6.132,10.835H2.453V6.543a1.84,1.84,0,1,1,3.679,0ZM13.6,12.556,11.084,8.965a1.929,1.929,0,1,1,3.162-2.211l2.514,3.591L13.6,12.556Z" transform="translate(0 -2.25)"/></svg>