<svg xmlns="http://www.w3.org/2000/svg" width="25" height="25" viewBox="0 0 25 25"><defs><style>.a{fill:none;}.b{fill:#373737;}</style></defs><rect class="a" width="25" height="25"/><path class="b" d="M16.406,10.538,14.2,8.33a1.037,1.037,0,0,1,0-1.469h0a1.037,1.037,0,0,1,1.469,0L17.135,8.33l3.687-3.687a1.037,1.037,0,0,1,1.469,0h0a1.037,1.037,0,0,1,0,1.469l-4.417,4.417A1.028,1.028,0,0,1,16.406,10.538ZM10.333,7.111H3.042A1.045,1.045,0,0,0,2,8.153H2A1.045,1.045,0,0,0,3.042,9.194h7.292a1.045,1.045,0,0,0,1.042-1.042h0A1.045,1.045,0,0,0,10.333,7.111Zm10.719,5.948h0a1.037,1.037,0,0,0-1.469,0l-1.958,1.958-1.958-1.958a1.037,1.037,0,0,0-1.469,0h0a1.037,1.037,0,0,0,0,1.469l1.958,1.958L14.2,18.444a1.037,1.037,0,0,0,0,1.469h0a1.037,1.037,0,0,0,1.469,0l1.958-1.958,1.958,1.958a1.037,1.037,0,0,0,1.469,0h0a1.037,1.037,0,0,0,0-1.469l-1.958-1.958,1.958-1.958A1.037,1.037,0,0,0,21.052,13.059ZM10.333,15.444H3.042A1.045,1.045,0,0,0,2,16.486H2a1.045,1.045,0,0,0,1.042,1.042h7.292a1.045,1.045,0,0,0,1.042-1.042h0A1.045,1.045,0,0,0,10.333,15.444Z" transform="translate(0.083 0.181)"/></svg>