<?xml version="1.0" encoding="UTF-8"?>
<!-- Generator: visioncortex VTracer 0.6.2 -->
<svg version="1.1" xmlns="http://www.w3.org/2000/svg" width="1280" height="1280">
<path d="M0 0 C1.53754572 -0.00231135 3.07509034 -0.00549235 4.61263269 -0.00945449 C8.78894014 -0.01771852 12.96515489 -0.01371594 17.14146245 -0.00748205 C21.66435217 -0.00292382 26.18722687 -0.00995788 30.71011353 -0.01544189 C39.55094193 -0.0243016 48.39173624 -0.02242927 57.23256595 -0.01661661 C64.42170367 -0.01208689 71.61083188 -0.01149287 78.79997063 -0.01366425 C80.33887418 -0.01412394 80.33887418 -0.01412394 81.90886668 -0.01459293 C83.99348017 -0.01523243 86.07809366 -0.01588085 88.16270714 -0.01653811 C107.67674759 -0.02223131 127.1907692 -0.01569926 146.70480656 -0.00493738 C163.42523833 0.00399854 180.14564233 0.00244378 196.86607361 -0.0067749 C216.31520193 -0.01749311 235.76431378 -0.02168348 255.21344465 -0.01555037 C257.28978216 -0.01491332 259.36611968 -0.01428458 261.4424572 -0.01366425 C262.46387573 -0.01335569 263.48529427 -0.01304714 264.53766488 -0.01272924 C271.71328599 -0.01100705 278.88889659 -0.01390709 286.06451607 -0.01862335 C294.81607697 -0.02424938 303.56760203 -0.02267959 312.31915886 -0.01206186 C316.77876019 -0.00682847 321.23830188 -0.00470837 325.69790268 -0.01136017 C329.78937576 -0.01737031 333.88073458 -0.01396208 337.97219747 -0.00340506 C339.44303848 -0.00119233 340.91388938 -0.00225873 342.38472391 -0.00715664 C351.04028792 -0.03374261 359.35065476 0.5120635 367.89392561 1.78839326 C371.56175116 2.32872198 375.16673558 2.61401873 378.86680603 2.81646729 C384.84083716 3.14723285 384.84083716 3.14723285 387.05430603 4.25396729 C388.86207462 4.55476568 390.67597383 4.81895895 392.49180603 5.06646729 C398.38951786 5.94288703 404.21717498 7.0387169 410.05430603 8.25396729 C411.27331604 8.50303833 411.27331604 8.50303833 412.51695251 8.75714111 C416.56260039 9.61250666 420.23247185 10.64580197 424.05430603 12.25396729 C425.9420804 12.76396008 427.83877149 13.24175151 429.74180603 13.69146729 C437.90454626 15.68969011 445.72575713 18.01439559 453.49571228 21.22662354 C456.1160599 22.27876311 458.7608869 23.20631447 461.42930603 24.12896729 C466.55675988 25.96588305 471.3041168 28.31951896 476.14024353 30.81256104 C478.80725231 32.13176511 481.46449363 33.25455372 484.24180603 34.31646729 C488.23194466 35.86185431 491.87291127 37.70602613 495.57774353 39.83990479 C498.51774722 41.51858197 501.50250802 43.10230886 504.49180603 44.69146729 C514.81109768 50.25076198 524.57270026 56.47788152 534.26963806 63.04644775 C535.92184639 64.16434411 537.57963893 65.27397518 539.23789978 66.38287354 C540.60108337 67.30906494 540.60108337 67.30906494 541.99180603 68.25396729 C542.78457947 68.79021729 543.57735291 69.32646729 544.39414978 69.87896729 C544.94200134 70.33271729 545.48985291 70.78646729 546.05430603 71.25396729 C546.05430603 71.91396729 546.05430603 72.57396729 546.05430603 73.25396729 C547.12745056 73.62521729 547.12745056 73.62521729 548.22227478 74.00396729 C551.36840309 75.39260323 553.69241566 77.09860675 556.36680603 79.25396729 C557.24981384 79.95521729 558.13282166 80.65646729 559.04258728 81.37896729 C559.70645447 81.99771729 560.37032166 82.61646729 561.05430603 83.25396729 C561.05430603 83.91396729 561.05430603 84.57396729 561.05430603 85.25396729 C561.63051697 85.51177979 562.20672791 85.76959229 562.80039978 86.03521729 C565.24824388 87.35883489 567.0606833 88.88404449 569.11680603 90.75396729 C571.3886261 92.81212289 573.4913786 94.545349 576.05430603 96.25396729 C576.05430603 96.91396729 576.05430603 97.57396729 576.05430603 98.25396729 C577.01336853 98.65615479 577.01336853 98.65615479 577.99180603 99.06646729 C580.05430603 100.25396729 580.05430603 100.25396729 581.05430603 103.25396729 C581.71430603 103.58396729 582.37430603 103.91396729 583.05430603 104.25396729 C583.71430603 104.58396729 584.37430603 104.91396729 585.05430603 105.25396729 C585.38430603 106.24396729 585.71430603 107.23396729 586.05430603 108.25396729 C586.71430603 108.58396729 587.37430603 108.91396729 588.05430603 109.25396729 C588.71430603 109.58396729 589.37430603 109.91396729 590.05430603 110.25396729 C590.38430603 111.24396729 590.71430603 112.23396729 591.05430603 113.25396729 C591.71430603 113.25396729 592.37430603 113.25396729 593.05430603 113.25396729 C594.67930603 114.62896729 594.67930603 114.62896729 596.05430603 116.25396729 C596.05430603 116.91396729 596.05430603 117.57396729 596.05430603 118.25396729 C596.71430603 118.25396729 597.37430603 118.25396729 598.05430603 118.25396729 C599.6186339 119.94671013 601.10759175 121.70966581 602.55430603 123.50396729 C603.74539978 124.96576416 603.74539978 124.96576416 604.96055603 126.45709229 C606.64178637 128.7029149 607.93566502 130.70054758 609.05430603 133.25396729 C609.71430603 133.25396729 610.37430603 133.25396729 611.05430603 133.25396729 C612.39298877 134.88816498 613.65084349 136.58900999 614.86680603 138.31646729 C615.57450134 139.31677979 616.28219666 140.31709229 617.01133728 141.34771729 C618.02260681 142.78631104 618.02260681 142.78631104 619.05430603 144.25396729 C620.05361733 145.60864226 621.05347828 146.96291227 622.05430603 148.31646729 C624.05430603 151.25396729 624.05430603 151.25396729 624.05430603 153.25396729 C624.71430603 153.25396729 625.37430603 153.25396729 626.05430603 153.25396729 C629.05430603 157.63858267 629.05430603 157.63858267 629.05430603 160.25396729 C629.71430603 160.25396729 630.37430603 160.25396729 631.05430603 160.25396729 C631.05430603 161.24396729 631.05430603 162.23396729 631.05430603 163.25396729 C631.71430603 163.25396729 632.37430603 163.25396729 633.05430603 163.25396729 C634.31944275 164.9788208 634.31944275 164.9788208 635.73399353 167.38287354 C636.25090759 168.25363525 636.76782166 169.12439697 637.30039978 170.02154541 C638.10670837 171.40503174 638.10670837 171.40503174 638.92930603 172.81646729 C639.45911072 173.71172119 639.98891541 174.6069751 640.53477478 175.52935791 C641.57274448 177.28720982 642.60511114 179.04838396 643.63145447 180.81304932 C644.51934422 182.33623424 645.41685077 183.85390243 646.32872009 185.362854 C649.05430603 189.92670958 649.05430603 189.92670958 649.05430603 193.25396729 C649.71430603 193.25396729 650.37430603 193.25396729 651.05430603 193.25396729 C653.26686778 197.90891933 655.47496789 202.5659238 657.67539978 207.22662354 C659.02984989 210.09527942 660.39468941 212.95711753 661.77696228 215.81256104 C665.28523138 223.15653768 668.04586574 230.62870327 670.67930603 238.31646729 C671.7425852 241.40698751 672.9106049 244.4283021 674.17930603 247.44146729 C676.67958126 253.54751133 678.30691263 259.90104088 680.05430603 266.25396729 C680.76054155 268.7129041 681.46883156 271.1712519 682.17930603 273.62896729 C682.80688513 275.83656906 683.43220451 278.04481568 684.05430603 280.25396729 C684.27215759 281.02611572 684.49000916 281.79826416 684.71446228 282.59381104 C685.83031157 286.76791394 686.36255694 290.83506001 686.77696228 295.11724854 C687.02734137 297.4679913 687.02734137 297.4679913 687.99180603 300.50396729 C690.45524338 309.19845205 691.16837057 318.14506906 691.77305603 327.12896729 C692.12117441 330.99694926 692.82823457 334.73688774 693.58164978 338.54302979 C694.24123863 342.32612618 694.53557939 346.11347894 694.80821228 349.94146729 C694.98751115 352.41035133 694.98751115 352.41035133 696.05430603 355.25396729 C696.23331413 357.43900269 696.37405589 359.62727599 696.49180603 361.81646729 C696.82412285 366.95419087 697.46066058 371.78545357 698.58164978 376.80084229 C699.29032275 380.47891356 699.545035 384.17349039 699.80821228 387.90631104 C699.98484245 390.40491063 699.98484245 390.40491063 701.05430603 393.25396729 C701.23331413 395.43900269 701.37405589 397.62727599 701.49180603 399.81646729 C701.82412285 404.95419087 702.46066058 409.78545357 703.58164978 414.80084229 C704.29032275 418.47891356 704.545035 422.17349039 704.80821228 425.90631104 C704.98484245 428.40491063 704.98484245 428.40491063 706.05430603 431.25396729 C706.2326345 433.27219266 706.37367795 435.29382533 706.49180603 437.31646729 C706.8371047 442.26574827 707.51311746 446.92958789 708.58164978 451.76568604 C709.28279476 455.45683771 709.54421678 459.16188503 709.80821228 462.90631104 C709.98484245 465.40491063 709.98484245 465.40491063 711.05430603 468.25396729 C711.2326345 470.27219266 711.37367795 472.29382533 711.49180603 474.31646729 C711.83878731 479.22299939 712.47609398 483.87168549 713.51524353 488.67193604 C715.0571611 496.05749774 716.05378899 503.47864966 716.55430603 511.00396729 C716.85754504 515.45147281 717.45843961 519.57273743 718.51524353 523.89459229 C720.17761572 531.17048215 721.05901125 538.56585617 721.55430603 546.00396729 C721.85745682 550.45017891 722.4568991 554.57042931 723.51524353 558.89068604 C725.33103289 566.85121187 726.2338124 574.96903858 726.71055603 583.10943604 C726.9945854 585.70765924 727.46561826 588.0050285 728.06602478 590.53521729 C729.6268231 598.12765916 729.40127529 605.85091651 729.36680603 613.56646729 C729.36564789 614.36399414 729.36448975 615.161521 729.36329651 615.98321533 C729.32704785 628.60218072 728.657183 640.87003707 726.05430603 653.25396729 C725.80293884 654.4566626 725.55157166 655.65935791 725.29258728 656.89849854 C724.15469377 661.7812056 722.72185522 666.44575833 720.85118103 671.09381104 C719.8622253 673.77465671 719.13661359 676.50224288 718.36680603 679.25396729 C714.82804516 690.84507836 708.71555987 701.30635151 702.67930603 711.75396729 C702.03614441 712.87690186 702.03614441 712.87690186 701.37998962 714.02252197 C700.33013195 715.80229665 699.19952769 717.53400613 698.05430603 719.25396729 C697.39430603 719.25396729 696.73430603 719.25396729 696.05430603 719.25396729 C695.97180603 719.80826416 695.88930603 720.36256104 695.80430603 720.93365479 C693.00720786 729.58717724 683.18303337 737.66144437 677.05430603 744.25396729 C676.12038025 745.269104 676.12038025 745.269104 675.16758728 746.30474854 C671.13570697 750.52258559 666.77929747 754.18096242 662.17930603 757.75396729 C661.3212738 758.42299072 661.3212738 758.42299072 660.44590759 759.10552979 C656.30492022 762.25396729 656.30492022 762.25396729 654.05430603 762.25396729 C654.05430603 762.91396729 654.05430603 763.57396729 654.05430603 764.25396729 C650.20579808 767.23852447 646.28747388 769.79192591 642.01524353 772.14068604 C640.49860248 773.00172727 639.00850474 773.9096167 637.53086853 774.83599854 C636.65172791 775.38642822 635.77258728 775.93685791 634.86680603 776.50396729 C634.04825134 777.02474854 633.22969666 777.54552979 632.38633728 778.08209229 C630.05430603 779.25396729 630.05430603 779.25396729 626.05430603 779.25396729 C626.05430603 779.91396729 626.05430603 780.57396729 626.05430603 781.25396729 C617.80482046 784.86688067 609.5698726 788.30933212 601.05430603 791.25396729 C600.30922791 791.51951416 599.56414978 791.78506104 598.79649353 792.05865479 C592.64829132 794.19620179 586.39074353 795.77824434 580.05430603 797.25396729 C579.21899353 797.45119385 578.38368103 797.64842041 577.52305603 797.85162354 C571.68159451 799.13181397 565.90392458 799.65561631 559.93711853 800.00787354 C557.21808593 800.14363442 557.21808593 800.14363442 555.32725525 800.76104736 C552.13369995 801.45361322 549.07039352 801.38393334 545.80430603 801.38677979 C545.10917908 801.38773651 544.41405212 801.38869324 543.69786072 801.38967896 C542.23203948 801.39035773 540.7662152 801.38852458 539.30039978 801.38433838 C537.06204958 801.3789858 534.82390002 801.38429358 532.58555603 801.39068604 C531.15847226 801.3900252 529.73138861 801.38874393 528.30430603 801.38677979 C527.01008728 801.38565186 525.71586853 801.38452393 524.38243103 801.38336182 C521.68998042 801.27868174 519.60641272 801.00290394 517.05430603 800.25396729 C515.07689089 800.10378386 513.09724902 799.98178386 511.11680603 799.87896729 C488.77349744 798.2386354 467.73409618 789.30832619 448.02110291 779.253479 C444.70753778 777.56954956 441.3802676 775.91325256 438.05430603 774.25396729 C438.05430603 773.59396729 438.05430603 772.93396729 438.05430603 772.25396729 C437.34403259 772.00517822 436.63375916 771.75638916 435.90196228 771.50006104 C432.73334612 770.11351981 430.26084726 768.38458292 427.49180603 766.31646729 C426.56239197 765.62681885 425.63297791 764.93717041 424.67539978 764.22662354 C423.81043884 763.57564697 422.94547791 762.92467041 422.05430603 762.25396729 C421.28215759 761.71642822 420.51000916 761.17888916 419.71446228 760.62506104 C419.16661072 760.1726001 418.61875916 759.72013916 418.05430603 759.25396729 C418.05430603 758.59396729 418.05430603 757.93396729 418.05430603 757.25396729 C417.43555603 756.94459229 416.81680603 756.63521729 416.17930603 756.31646729 C414.80430603 755.62896729 413.42930603 754.94146729 412.05430603 754.25396729 C412.05430603 753.59396729 412.05430603 752.93396729 412.05430603 752.25396729 C411.39430603 752.25396729 410.73430603 752.25396729 410.05430603 752.25396729 C408.42930603 750.87896729 408.42930603 750.87896729 407.05430603 749.25396729 C407.05430603 748.59396729 407.05430603 747.93396729 407.05430603 747.25396729 C406.39430603 747.25396729 405.73430603 747.25396729 405.05430603 747.25396729 C403.36289978 745.60943604 403.36289978 745.60943604 401.49180603 743.44146729 C400.56174744 742.37992432 400.56174744 742.37992432 399.61289978 741.29693604 C398.05430603 739.25396729 398.05430603 739.25396729 397.05430603 736.25396729 C396.39430603 736.25396729 395.73430603 736.25396729 395.05430603 736.25396729 C393.82090759 734.83624268 393.82090759 734.83624268 392.44493103 732.85162354 C391.94042419 732.13063477 391.43591736 731.409646 390.91612244 730.66680908 C390.38422302 729.89119629 389.85232361 729.1155835 389.30430603 728.31646729 C388.76080505 727.53247559 388.21730408 726.74848389 387.65733337 725.94073486 C386.58763645 724.39463584 385.52097626 722.84643059 384.45762634 721.29595947 C383.36335498 719.70366899 382.25460311 718.12132682 381.14024353 716.54302979 C377.84563785 711.8037307 375.26466027 706.86110043 372.74571228 701.67193604 C370.80768245 697.755594 368.74758356 693.91499554 366.67930603 690.06646729 C363.26086928 683.67718664 360.10807207 677.20404896 357.0721283 670.62579346 C354.74374679 665.61951495 352.23629326 660.73856773 349.61680603 655.87896729 C345.98351375 649.13677542 342.66601395 642.28601029 339.43174744 635.3447876 C336.59538234 629.29732686 333.52774429 623.40598378 330.35899353 617.52740479 C327.75956973 612.67273177 325.36167121 607.75344965 323.05430603 602.75396729 C320.06173145 596.27378895 316.85924067 589.94195369 313.46250916 583.66412354 C309.82831312 576.92956817 306.48543569 570.11622661 303.05430603 563.25396729 C213.95430603 563.25396729 124.85430603 563.25396729 33.05430603 563.25396729 C26.57768279 575.3370868 26.57768279 575.3370868 20.61680603 587.62896729 C17.42515534 594.48489985 14.02143932 601.18027347 10.43174744 607.83502197 C7.18791105 613.89413052 4.26258817 620.08094491 1.35899353 626.30865479 C-1.22978476 631.82897644 -4.00938188 637.20454274 -6.92860413 642.5557251 C-9.59949564 647.49694028 -12.01007528 652.53896277 -14.38319397 657.62896729 C-17.59944689 664.52657362 -21.01916225 671.26843 -24.63417053 677.96466064 C-27.313858 682.96357892 -29.76128639 688.04019391 -32.13319397 693.19146729 C-35.03920199 699.47648853 -38.1985452 705.42067501 -41.94569397 711.25396729 C-42.46518616 712.09701416 -42.98467834 712.94006104 -43.51991272 713.80865479 C-46.93499453 719.30144372 -50.54179981 724.64955779 -54.25819397 729.94146729 C-54.90739807 730.87877686 -54.90739807 730.87877686 -55.56971741 731.83502197 C-56.64376656 733.34580033 -57.78901539 734.80547583 -58.94569397 736.25396729 C-59.60569397 736.25396729 -60.26569397 736.25396729 -60.94569397 736.25396729 C-61.21381897 736.83662354 -61.48194397 737.41927979 -61.75819397 738.01959229 C-62.96050387 740.28183329 -64.2839531 742.05973046 -65.94569397 744.00396729 C-66.46131897 744.61756104 -66.97694397 745.23115479 -67.50819397 745.86334229 C-68.94569397 747.25396729 -68.94569397 747.25396729 -70.94569397 747.25396729 C-70.94569397 747.91396729 -70.94569397 748.57396729 -70.94569397 749.25396729 C-72.27381897 750.62896729 -72.27381897 750.62896729 -74.19569397 752.25396729 C-74.92401428 752.87142822 -75.65233459 753.48888916 -76.40272522 754.12506104 C-77.24190491 754.8276001 -78.08108459 755.53013916 -78.94569397 756.25396729 C-79.89831116 757.06994385 -80.85092834 757.88592041 -81.83241272 758.72662354 C-97.70565705 772.25396729 -97.70565705 772.25396729 -101.94569397 772.25396729 C-101.94569397 772.91396729 -101.94569397 773.57396729 -101.94569397 774.25396729 C-104.76132719 775.6617839 -107.57729455 777.06887463 -110.39491272 778.47271729 C-112.73716672 779.64770939 -115.07330892 780.83497567 -117.40272522 782.03521729 C-125.09529108 785.97215335 -132.83821043 789.2763908 -140.94569397 792.25396729 C-141.81065491 792.60974854 -142.67561584 792.96552979 -143.56678772 793.33209229 C-145.71087392 794.16296969 -147.69887563 794.73069399 -149.94569397 795.19146729 C-152.63353602 795.75217606 -155.29787766 796.3424694 -157.96131897 797.01177979 C-164.72495224 798.69451946 -171.20527606 799.68153521 -178.16835022 800.04302979 C-180.79823115 800.14588051 -180.79823115 800.14588051 -182.66615295 800.7588501 C-185.86242694 801.45308204 -188.92653658 801.38393067 -192.19569397 801.38677979 C-192.89082092 801.38773651 -193.58594788 801.38869324 -194.30213928 801.38967896 C-195.76796052 801.39035773 -197.2337848 801.38852458 -198.69960022 801.38433838 C-200.93795042 801.3789858 -203.17609998 801.38429358 -205.41444397 801.39068604 C-206.84152774 801.3900252 -208.26861139 801.38874393 -209.69569397 801.38677979 C-210.98991272 801.38565186 -212.28413147 801.38452393 -213.61756897 801.38336182 C-216.30716616 801.27879268 -218.39600719 801.00430577 -220.94569397 800.25396729 C-222.73637639 800.15164258 -224.52835241 800.07124016 -226.32069397 800.00396729 C-232.76368055 799.55105893 -238.90299097 798.31434854 -245.19569397 796.87896729 C-246.11785706 796.66981689 -247.04002014 796.4606665 -247.99012756 796.24517822 C-269.88290423 791.09902042 -291.33745729 781.87520607 -309.94569397 769.25396729 C-310.95889709 768.58881104 -311.97210022 767.92365479 -313.01600647 767.23834229 C-344.95415825 745.84362856 -372.12639658 713.512864 -383.04335022 676.24615479 C-383.77132557 673.83217591 -384.57233148 671.52869901 -385.50819397 669.19146729 C-387.48985941 663.98557863 -388.80559988 658.70303238 -389.94569397 653.25396729 C-390.08539612 652.59461182 -390.22509827 651.93525635 -390.36903381 651.25592041 C-392.90113841 638.70125941 -393.23986465 626.20106776 -393.25819397 613.44146729 C-393.26168854 612.66095001 -393.26518311 611.88043274 -393.26878357 611.07626343 C-393.29240928 601.55685081 -392.77955687 592.32136474 -391.42103577 582.89581299 C-390.91281597 579.00207149 -390.65338974 575.1746672 -390.44569397 571.25396729 C-389.89854292 561.48204146 -388.9795288 551.70327263 -386.88319397 542.12896729 C-385.78849282 537.06279221 -385.54265716 532.00818836 -385.22303772 526.84381104 C-384.66032038 519.56018805 -383.42537846 512.38944775 -381.88319397 505.25396729 C-380.87052909 500.3947459 -380.55470322 495.56704386 -380.22303772 490.62115479 C-379.62827536 483.40023718 -378.39885525 476.27209388 -376.88319397 469.19146729 C-375.92910701 464.60593307 -375.56445363 460.06451603 -375.22303772 455.39849854 C-374.59339344 448.2595739 -373.38484731 441.1954474 -371.88319397 434.19146729 C-370.92313315 429.58466382 -370.56560666 425.01987779 -370.22303772 420.33209229 C-369.61280013 413.55931451 -368.30523829 406.89724895 -366.88319397 400.25396729 C-365.92953084 395.62611367 -365.56701851 391.03919777 -365.22303772 386.33209229 C-364.61280013 379.55931451 -363.30523829 372.89724895 -361.88319397 366.25396729 C-360.92979731 361.62740675 -360.56736067 357.04174551 -360.22303772 352.33599854 C-359.62803127 345.72388456 -358.44047242 339.20388923 -356.88319397 332.75396729 C-356.11713509 329.46166841 -355.77355596 326.31463764 -355.57069397 322.94146729 C-354.98379615 314.71441747 -353.12303791 306.74102235 -351.43788147 298.68463135 C-350.99990756 296.52170066 -350.59973055 294.35860438 -350.22694397 292.18365479 C-348.85741138 284.24362655 -347.0559678 276.52777724 -344.94569397 268.75396729 C-344.69642151 267.83373779 -344.44714905 266.9135083 -344.19032288 265.96539307 C-342.87665075 261.23703485 -341.40580531 256.6460646 -339.62879944 252.07232666 C-338.60361961 249.34339908 -337.81557831 246.55382372 -337.00819397 243.75396729 C-335.66795034 239.32046174 -334.14605488 235.35483338 -331.95350647 231.28912354 C-330.29016447 227.93020423 -329.11282628 224.40061369 -327.87538147 220.86724854 C-326.96231597 218.30069047 -325.97296744 215.77669638 -324.94569397 213.25396729 C-324.28569397 213.25396729 -323.62569397 213.25396729 -322.94569397 213.25396729 C-322.85417053 212.5901001 -322.76264709 211.92623291 -322.66835022 211.24224854 C-321.73206118 207.37056684 -320.11087654 204.01657279 -318.38319397 200.44146729 C-318.0538385 199.74859619 -317.72448303 199.0557251 -317.38514709 198.34185791 C-316.57697146 196.64351781 -315.7620102 194.9484096 -314.94569397 193.25396729 C-314.28569397 193.25396729 -313.62569397 193.25396729 -312.94569397 193.25396729 C-312.83394836 192.52564697 -312.72220276 191.79732666 -312.60707092 191.04693604 C-311.91353302 188.11815288 -310.91696698 186.13277301 -309.36366272 183.56646729 C-308.843526 182.70279541 -308.32338928 181.83912354 -307.78749084 180.94927979 C-307.24157288 180.05982666 -306.69565491 179.17037354 -306.13319397 178.25396729 C-305.59887756 177.36451416 -305.06456116 176.47506104 -304.51405334 175.55865479 C-301.87892361 171.21539052 -299.15283209 167.2012142 -295.94569397 163.25396729 C-295.61569397 162.26396729 -295.28569397 161.27396729 -294.94569397 160.25396729 C-294.28569397 160.25396729 -293.62569397 160.25396729 -292.94569397 160.25396729 C-292.48163147 159.07834229 -292.48163147 159.07834229 -292.00819397 157.87896729 C-290.94569397 155.25396729 -290.94569397 155.25396729 -289.94569397 153.25396729 C-289.28569397 153.25396729 -288.62569397 153.25396729 -287.94569397 153.25396729 C-287.48163147 152.07834229 -287.48163147 152.07834229 -287.00819397 150.87896729 C-285.94569397 148.25396729 -285.94569397 148.25396729 -284.94569397 146.25396729 C-284.28569397 146.25396729 -283.62569397 146.25396729 -282.94569397 146.25396729 C-282.68788147 145.68806885 -282.43006897 145.12217041 -282.16444397 144.53912354 C-280.81715283 142.01295265 -279.23151222 139.92752361 -277.44569397 137.69146729 C-275.50182999 135.24928224 -273.67917882 132.85419456 -271.94569397 130.25396729 C-271.28569397 130.25396729 -270.62569397 130.25396729 -269.94569397 130.25396729 C-269.58991272 129.42058838 -269.58991272 129.42058838 -269.22694397 128.57037354 C-267.64495657 125.71025607 -265.66906682 123.5844806 -263.44569397 121.19146729 C-261.04032666 118.59476394 -258.91165193 116.20290422 -256.94569397 113.25396729 C-256.28569397 113.25396729 -255.62569397 113.25396729 -254.94569397 113.25396729 C-254.94569397 112.59396729 -254.94569397 111.93396729 -254.94569397 111.25396729 C-253.57069397 109.62896729 -253.57069397 109.62896729 -251.94569397 108.25396729 C-251.28569397 108.25396729 -250.62569397 108.25396729 -249.94569397 108.25396729 C-249.94569397 107.59396729 -249.94569397 106.93396729 -249.94569397 106.25396729 C-248.57069397 104.62896729 -248.57069397 104.62896729 -246.94569397 103.25396729 C-246.28569397 103.25396729 -245.62569397 103.25396729 -244.94569397 103.25396729 C-244.94569397 102.59396729 -244.94569397 101.93396729 -244.94569397 101.25396729 C-243.33631897 99.59771729 -243.33631897 99.59771729 -241.19569397 97.75396729 C-240.49960022 97.14552979 -239.80350647 96.53709229 -239.08631897 95.91021729 C-237.10108605 94.37419766 -235.22697352 93.28157069 -232.94569397 92.25396729 C-232.94569397 91.59396729 -232.94569397 90.93396729 -232.94569397 90.25396729 C-232.14131897 89.98584229 -231.33694397 89.71771729 -230.50819397 89.44146729 C-229.66256897 89.04959229 -228.81694397 88.65771729 -227.94569397 88.25396729 C-227.61569397 87.26396729 -227.28569397 86.27396729 -226.94569397 85.25396729 C-225.04103285 83.6180258 -223.14865967 82.11575795 -221.13319397 80.62896729 C-220.55513 80.19382812 -219.97706604 79.75868896 -219.38148499 79.31036377 C-217.57420649 77.951894 -215.7600368 76.60298109 -213.94569397 75.25396729 C-212.81484943 74.4045532 -211.68461881 73.55432104 -210.55506897 72.70318604 C-207.6898639 70.54722508 -204.81901665 68.3990891 -201.94569397 66.25396729 C-201.23542053 65.67517822 -200.52514709 65.09638916 -199.79335022 64.50006104 C-197.94569397 63.25396729 -197.94569397 63.25396729 -194.94569397 63.25396729 C-194.94569397 62.59396729 -194.94569397 61.93396729 -194.94569397 61.25396729 C-193.20838928 59.92877197 -193.20838928 59.92877197 -190.77381897 58.42584229 C-189.88791077 57.87637939 -189.00200256 57.3269165 -188.08924866 56.76080322 C-187.13437561 56.18104736 -186.17950256 55.6012915 -185.19569397 55.00396729 C-184.2279303 54.4113208 -183.26016663 53.81867432 -182.26307678 53.20806885 C-176.61129892 49.77832509 -170.94386395 46.54208497 -164.96522522 43.71099854 C-161.04199636 41.81790104 -157.22103273 39.75082599 -153.38319397 37.69146729 C-144.34061192 32.87559071 -135.28585699 28.62541052 -125.61366272 25.21490479 C-123.1089847 24.31278064 -120.65572965 23.33301096 -118.19569397 22.31646729 C-111.56260981 19.62709182 -104.74591259 17.47537204 -97.94569397 15.25396729 C-96.36981506 14.71642822 -96.36981506 14.71642822 -94.76210022 14.16802979 C-92.38478611 13.3964743 -90.07532302 12.76906795 -87.63319397 12.25396729 C-86.87393616 12.09025635 -86.11467834 11.92654541 -85.33241272 11.75787354 C-83.68930062 11.41096443 -82.0460641 11.06464426 -80.40272522 10.71881104 C-79.59190491 10.5447876 -78.78108459 10.37076416 -77.94569397 10.19146729 C-77.20319397 10.03549072 -76.46069397 9.87951416 -75.69569397 9.71881104 C-73.9312825 9.40684844 -73.9312825 9.40684844 -72.94569397 8.25396729 C-71.57544743 8.06871936 -70.19866187 7.93090869 -68.82069397 7.81646729 C-65.83857122 7.52013648 -63.35277798 7.08456272 -60.44569397 6.25396729 C-56.87393682 5.23346524 -53.55026431 4.81097924 -49.86366272 4.50006104 C-47.86430421 4.35066688 -47.86430421 4.35066688 -45.94569397 3.25396729 C-43.90730446 3.06785346 -41.86438218 2.93052278 -39.82069397 2.81646729 C-34.64770523 2.49414373 -29.58562557 1.96122537 -24.45011234 1.23468399 C-16.29465294 0.16084496 -8.22305588 -0.02742861 0 0 Z M-17.94569397 83.25396729 C-20.40280395 83.401067 -22.86141483 83.52421097 -25.32069397 83.62896729 C-43.00439685 84.5720432 -60.01581026 89.56435085 -76.89002991 94.63970947 C-78.80395108 95.21161276 -80.72232611 95.76855207 -82.64100647 96.32427979 C-88.03435959 97.91350449 -93.04406315 99.58959282 -97.99647522 102.25787354 C-100.22280973 103.39557955 -102.48853391 104.29114503 -104.82069397 105.19146729 C-112.91451353 108.3720661 -120.37300538 112.37741489 -127.71913147 117.01959229 C-129.82590591 118.18755847 -131.5926949 118.80270719 -133.94569397 119.25396729 C-133.94569397 119.91396729 -133.94569397 120.57396729 -133.94569397 121.25396729 C-135.01110413 121.64068604 -135.01110413 121.64068604 -136.09803772 122.03521729 C-139.14805943 123.34057637 -141.73645682 124.93441244 -144.50819397 126.75396729 C-147.59267113 128.77320892 -150.60773144 130.68316139 -153.94569397 132.25396729 C-153.94569397 132.91396729 -153.94569397 133.57396729 -153.94569397 134.25396729 C-154.72944397 134.56334229 -155.51319397 134.87271729 -156.32069397 135.19146729 C-158.86899525 136.18271767 -158.86899525 136.18271767 -160.94569397 137.25396729 C-160.94569397 137.91396729 -160.94569397 138.57396729 -160.94569397 139.25396729 C-161.49096741 139.50275635 -162.03624084 139.75154541 -162.59803772 140.00787354 C-165.42945946 141.51074132 -167.92010175 143.30057542 -170.50819397 145.19146729 C-171.93325256 146.22593994 -171.93325256 146.22593994 -173.38710022 147.28131104 C-175.42662855 148.85377181 -177.28519108 150.29155478 -178.94569397 152.25396729 C-178.94569397 152.91396729 -178.94569397 153.57396729 -178.94569397 154.25396729 C-179.50289124 154.48664307 -180.0600885 154.71931885 -180.63417053 154.95904541 C-183.54493042 156.58966122 -185.5675053 158.61635922 -187.93006897 160.97271729 C-188.86463928 161.90470947 -189.79920959 162.83670166 -190.76210022 163.79693604 C-191.24308167 164.28210693 -191.72406311 164.76727783 -192.21961975 165.26715088 C-193.69774245 166.75603067 -195.18629308 168.23388379 -196.67616272 169.71099854 C-198.07028381 171.10898682 -198.07028381 171.10898682 -199.49256897 172.53521729 C-200.77405823 173.82009033 -200.77405823 173.82009033 -202.08143616 175.13092041 C-204.16563563 177.03354334 -204.16563563 177.03354334 -203.94569397 179.25396729 C-204.60569397 179.25396729 -205.26569397 179.25396729 -205.94569397 179.25396729 C-207.69970175 181.25767756 -209.33078476 183.26682143 -210.94569397 185.37896729 C-211.43263733 186.00770752 -211.91958069 186.63644775 -212.42127991 187.28424072 C-216.63609849 192.7648689 -220.69176531 198.35381884 -224.66444397 204.01177979 C-226.06260333 205.99888983 -227.47587417 207.97560145 -228.91444397 209.93365479 C-232.72628656 215.16657904 -235.68841753 220.49919584 -238.48475647 226.33599854 C-239.81675751 228.99643911 -241.27799408 231.44024311 -242.88319397 233.94146729 C-246.81471087 240.33275524 -249.39075369 247.29330952 -252.14051819 254.24859619 C-253.22981344 256.96159535 -254.4041347 259.63594082 -255.57069397 262.31646729 C-257.87517344 267.79532907 -259.6404602 273.39728451 -261.33485413 279.0881958 C-262.85190705 284.16018036 -262.85190705 284.16018036 -263.94569397 285.25396729 C-264.46177937 287.45396562 -264.93330422 289.66448405 -265.38319397 291.87896729 C-266.10467826 295.42217287 -266.82606084 298.87480744 -267.91444397 302.32427979 C-269.65126458 308.22532472 -270.19244405 314.4246143 -271.00819397 320.50396729 C-271.35073289 323.03035097 -271.69566942 325.55641109 -272.04335022 328.08209229 C-272.19296204 329.19487549 -272.34257385 330.30765869 -272.49671936 331.4541626 C-272.94569397 334.25396729 -272.94569397 334.25396729 -273.94569397 337.25396729 C-274.10304293 339.0430832 -274.22185067 340.83566741 -274.32069397 342.62896729 C-274.76210666 348.92265793 -275.55324565 355.13396668 -276.44569397 361.37896729 C-276.57637268 362.3037085 -276.70705139 363.22844971 -276.84169006 364.18121338 C-277.35108163 367.67593652 -277.82613508 370.89529061 -278.94569397 374.25396729 C-279.12528315 376.20949395 -279.26577116 378.16872529 -279.38319397 380.12896729 C-279.98727489 388.61441648 -281.2085451 396.94066393 -283.00819397 405.25396729 C-283.75793225 408.87001267 -284.14667304 412.38147117 -284.38319397 416.06646729 C-284.78838679 422.21803095 -285.57406387 428.27963311 -286.44569397 434.37896729 C-286.57645325 435.30427246 -286.70721252 436.22957764 -286.8419342 437.18292236 C-287.35124751 440.67706356 -287.82631764 443.89583829 -288.94569397 447.25396729 C-289.12528315 449.20949395 -289.26577116 451.16872529 -289.38319397 453.12896729 C-289.98727489 461.61441648 -291.2085451 469.94066393 -293.00819397 478.25396729 C-293.75793225 481.87001267 -294.14667304 485.38147117 -294.38319397 489.06646729 C-294.78838679 495.21803095 -295.57406387 501.27963311 -296.44569397 507.37896729 C-296.57645325 508.30427246 -296.70721252 509.22957764 -296.8419342 510.18292236 C-297.35124751 513.67706356 -297.82631764 516.89583829 -298.94569397 520.25396729 C-299.12528315 522.20949395 -299.26577116 524.16872529 -299.38319397 526.12896729 C-299.98727489 534.61441648 -301.2085451 542.94066393 -303.00819397 551.25396729 C-303.75793225 554.87001267 -304.14667304 558.38147117 -304.38319397 562.06646729 C-304.78838679 568.21803095 -305.57406387 574.27963311 -306.44569397 580.37896729 C-306.57645325 581.30427246 -306.70721252 582.22957764 -306.8419342 583.18292236 C-307.35124751 586.67706356 -307.82631764 589.89583829 -308.94569397 593.25396729 C-309.14645648 595.41774099 -309.30892537 597.58520806 -309.44569397 599.75396729 C-309.66250702 603.19200286 -309.85511665 605.98223533 -310.94569397 609.25396729 C-311.04186704 611.76578157 -311.08504159 614.24313351 -311.07069397 616.75396729 C-311.07456116 617.4307251 -311.07842834 618.10748291 -311.08241272 618.80474854 C-311.07631813 621.89470495 -310.93009626 624.3007604 -309.94569397 627.25396729 C-309.67899681 629.98867145 -309.50210177 632.72307236 -309.32460022 635.46490479 C-308.93114843 638.36103446 -308.09154043 640.57744291 -306.94569397 643.25396729 C-306.55861966 644.68826319 -306.18401618 646.12597146 -305.82069397 647.56646729 C-302.61665741 658.2944106 -297.01925495 668.16089715 -290.57069397 677.25396729 C-290.14200012 677.85950439 -289.71330627 678.4650415 -289.2716217 679.08892822 C-288.21909302 680.52028329 -287.08893915 681.89397301 -285.94569397 683.25396729 C-285.28569397 683.25396729 -284.62569397 683.25396729 -283.94569397 683.25396729 C-283.94569397 683.91396729 -283.94569397 684.57396729 -283.94569397 685.25396729 C-282.61236064 686.92063395 -282.61236064 686.92063395 -280.94569397 688.25396729 C-280.28569397 688.25396729 -279.62569397 688.25396729 -278.94569397 688.25396729 C-278.94569397 688.91396729 -278.94569397 689.57396729 -278.94569397 690.25396729 C-276.77304742 692.29852788 -276.77304742 692.29852788 -274.07069397 694.37896729 C-273.16577209 695.10342041 -272.26085022 695.82787354 -271.32850647 696.57427979 C-269.15913586 698.44601963 -269.15913586 698.44601963 -266.94569397 698.25396729 C-266.94569397 698.91396729 -266.94569397 699.57396729 -266.94569397 700.25396729 C-262.79527636 703.2008939 -258.35505957 705.71446861 -253.94569397 708.25396729 C-253.08846741 708.74767822 -252.23124084 709.24138916 -251.34803772 709.75006104 C-245.40272308 712.93611446 -239.24677113 714.75185445 -232.75428772 716.45709229 C-229.94569397 717.25396729 -229.94569397 717.25396729 -228.94569397 718.25396729 C-209.82002467 723.48491957 -187.87805205 722.67717179 -168.94569397 717.25396729 C-167.97760803 716.98842041 -167.00952209 716.72287354 -166.01210022 716.44927979 C-154.32048678 712.94024308 -144.22710991 706.75862409 -134.93397522 698.91802979 C-132.94569397 697.25396729 -132.94569397 697.25396729 -129.94569397 695.25396729 C-129.94569397 694.59396729 -129.94569397 693.93396729 -129.94569397 693.25396729 C-129.28569397 693.25396729 -128.62569397 693.25396729 -127.94569397 693.25396729 C-116.96203194 681.87554362 -109.66301142 668.13123312 -103.12928772 653.91412354 C-101.21609328 649.77266996 -99.13601966 645.75433111 -96.94569397 641.75396729 C-93.92499468 636.21901978 -91.17259122 630.59364001 -88.50819397 624.87896729 C-85.31191327 618.02508703 -81.91296098 611.327909 -78.32313538 604.6729126 C-75.07929899 598.61380405 -72.15397611 592.42698966 -69.25038147 586.19927979 C-66.66160318 580.67895813 -63.88200606 575.30339183 -60.96278381 569.95220947 C-58.2918914 565.01099263 -55.88134136 559.96895928 -53.50819397 554.87896729 C-50.31181912 548.02488514 -46.91638354 541.32530609 -43.32093811 534.6729126 C-40.49879294 529.40948021 -37.94999849 524.04961514 -35.44569397 518.62896729 C-22.64238866 491.22393631 -22.64238866 491.22393631 -9.94569397 485.25396729 C-9.94569397 484.59396729 -9.94569397 483.93396729 -9.94569397 483.25396729 C-9.22381897 483.29521729 -8.50194397 483.33646729 -7.75819397 483.37896729 C-4.95812225 483.42041385 -4.95812225 483.42041385 -2.63458413 482.26205951 C0.39250485 481.12717311 2.6625749 481.00225143 5.88904858 480.99949169 C7.06325774 480.9936595 8.23746691 480.9878273 9.44725817 480.98181838 C10.7332314 480.9855977 12.01920462 480.98937703 13.34414673 480.99327087 C14.7272701 480.99025008 16.1103918 480.98636096 17.49351054 480.98167831 C21.29386522 480.97137981 25.09412575 480.97358485 28.89448822 480.9778589 C32.99348146 480.98032285 37.09245185 480.97131595 41.19143677 480.96382141 C49.22262417 480.95106198 57.25377817 480.94928237 65.284974 480.95162167 C71.81414023 480.95340404 78.34329631 480.95165694 84.87246132 480.94739723 C85.80141802 480.94680204 86.73037471 480.94620685 87.68748162 480.94559363 C89.57464864 480.94438188 91.46181565 480.94316775 93.34898267 480.94195125 C111.05444342 480.93107038 128.75988514 480.93324047 146.46534697 480.9393361 C162.65694625 480.94450259 178.84848533 480.93325786 195.0400727 480.91423788 C211.66728744 480.89485607 228.29447371 480.88660428 244.92169982 480.89036113 C254.25582059 480.89227306 263.58989014 480.88978667 272.92400169 480.87564659 C280.87266435 480.86372726 288.82124429 480.8623339 296.76990809 480.87443676 C300.82379388 480.88032231 304.87752843 480.88143399 308.93140411 480.86943436 C312.64685704 480.85856459 316.36203265 480.86169177 320.07747266 480.87569604 C322.04919966 480.87958693 324.02093902 480.86880459 325.99263686 480.85739917 C335.06640342 480.91247653 343.50814103 481.83241482 350.99180603 487.37896729 C353.46828599 489.18576392 355.11203876 490.27321153 358.05430603 491.25396729 C358.74050634 492.5773536 359.40217064 493.91346676 360.05430603 495.25396729 C360.81485291 496.10990479 361.57539978 496.96584229 362.35899353 497.84771729 C365.49811412 501.56081948 367.33495653 505.65242359 369.30430603 510.06646729 C372.23179368 516.44396617 375.2780453 522.70659599 378.61680603 528.87896729 C381.98258206 535.12046351 385.06633716 541.44620761 388.03721619 547.8838501 C390.36545438 552.88950477 392.87261481 557.76991599 395.49180603 562.62896729 C399.12509831 569.37115915 402.44259811 576.22192428 405.67686462 583.16314697 C408.51322972 589.21060771 411.58086777 595.10195079 414.74961853 600.98052979 C417.71883758 606.52583086 420.40211902 612.17381837 423.03721619 617.8838501 C425.36545243 622.88950058 427.87254721 627.76995416 430.49180603 632.62896729 C433.74850868 638.67050881 436.77693768 644.7845181 439.67930603 651.00396729 C443.21405365 658.57416102 446.93680666 665.97900726 451.05430603 673.25396729 C451.57250916 674.19498291 452.09071228 675.13599854 452.62461853 676.10552979 C453.33231384 677.16900635 453.33231384 677.16900635 454.05430603 678.25396729 C454.71430603 678.25396729 455.37430603 678.25396729 456.05430603 678.25396729 C456.30180603 678.79021729 456.54930603 679.32646729 456.80430603 679.87896729 C458.3608314 682.83636548 460.08866276 685.55120779 462.05430603 688.25396729 C462.71430603 688.25396729 463.37430603 688.25396729 464.05430603 688.25396729 C464.05430603 688.91396729 464.05430603 689.57396729 464.05430603 690.25396729 C464.71430603 690.25396729 465.37430603 690.25396729 466.05430603 690.25396729 C466.38430603 691.24396729 466.71430603 692.23396729 467.05430603 693.25396729 C467.71430603 693.25396729 468.37430603 693.25396729 469.05430603 693.25396729 C469.05430603 693.91396729 469.05430603 694.57396729 469.05430603 695.25396729 C488.02192818 712.46236647 511.53745211 720.72073644 536.99180603 720.50396729 C538.7030365 720.49490356 538.7030365 720.49490356 540.44883728 720.48565674 C548.15848731 720.39468904 555.52963172 720.05580948 563.05430603 718.25396729 C563.88961853 718.05931885 564.72493103 717.86467041 565.58555603 717.66412354 C571.77135684 716.01000908 577.42034453 713.34415105 583.17149353 710.55865479 C585.50778143 709.5013104 587.5537275 708.74925096 590.05430603 708.25396729 C590.05430603 707.59396729 590.05430603 706.93396729 590.05430603 706.25396729 C590.87543884 706.03611572 591.69657166 705.81826416 592.54258728 705.59381104 C596.93780092 703.91688303 600.41809331 701.51949738 604.24180603 698.81646729 C604.952724 698.325979 605.66364197 697.83549072 606.39610291 697.33013916 C611.02550425 694.14415597 611.02550425 694.14415597 615.05430603 690.25396729 C615.05430603 689.59396729 615.05430603 688.93396729 615.05430603 688.25396729 C615.71430603 688.25396729 616.37430603 688.25396729 617.05430603 688.25396729 C618.7209727 686.92063395 618.7209727 686.92063395 620.05430603 685.25396729 C620.05430603 684.59396729 620.05430603 683.93396729 620.05430603 683.25396729 C620.71430603 683.25396729 621.37430603 683.25396729 622.05430603 683.25396729 C623.88546745 680.9156683 625.57833648 678.58342219 627.24180603 676.12896729 C627.73358337 675.40628662 628.22536072 674.68360596 628.73204041 673.93902588 C634.63794984 665.09370739 639.7328594 655.88874369 642.44883728 645.53521729 C642.91423339 643.78172484 643.46800262 642.05151066 644.05821228 640.33599854 C646.70608793 632.14315976 647.23268694 623.68358954 647.24180603 615.12896729 C647.24261169 614.39444336 647.24341736 613.65991943 647.24424744 612.90313721 C647.21129693 609.76222165 647.05424593 607.25378698 646.05430603 604.25396729 C645.87529793 602.06893188 645.73455617 599.88065858 645.61680603 597.69146729 C645.28276273 592.59730688 644.68356662 587.77995595 643.59336853 582.80084229 C642.03375665 575.43224123 641.05390545 568.01548831 640.55430603 560.50396729 C640.25115524 556.05775566 639.65171296 551.93750526 638.59336853 547.61724854 C636.97744147 540.53293062 636.08470984 533.30601408 635.55430603 526.06646729 C635.21829516 521.56274262 634.53913673 517.28629332 633.59336853 512.87506104 C632.11066839 505.66570021 631.09129654 498.4053376 630.55430603 491.06646729 C630.2164173 486.54350055 629.54186811 482.23970507 628.59336853 477.80865479 C627.1430953 470.93562079 626.06180394 464.07349986 625.55430603 457.06646729 C625.23672709 452.77079425 624.60271435 448.76649802 623.59336853 444.58599854 C622.02891637 437.81804243 621.05642186 430.99038027 620.55430603 424.06646729 C620.23672709 419.77079425 619.60271435 415.76649802 618.59336853 411.58599854 C617.02891637 404.81804243 616.05642186 397.99038027 615.55430603 391.06646729 C615.23667897 386.71043908 614.57010203 382.66021699 613.52696228 378.42584229 C612.85538959 375.33993801 612.5720257 372.24472344 612.30039978 369.10162354 C612.14403503 367.16241635 612.14403503 367.16241635 611.05430603 365.25396729 C610.87347441 363.5489834 610.73354395 361.83953514 610.61680603 360.12896729 C610.27746538 355.99224319 609.63903839 352.22534109 608.52696228 348.23834229 C607.81157627 345.23490348 607.56261643 342.20846051 607.30039978 339.13677979 C607.14753607 337.16749293 607.14753607 337.16749293 606.05430603 335.25396729 C605.78106264 333.08536898 605.6097413 330.91678553 605.43321228 328.73834229 C605.11920024 326.17330799 605.11920024 326.17330799 604.10508728 323.52349854 C602.79491819 319.44687576 602.26176663 315.42288468 601.67930603 311.19146729 C600.65431982 304.21256642 599.19141298 297.66077834 596.95274353 290.95318604 C596.02563972 288.16784371 595.35285086 285.35570452 594.66368103 282.50396729 C590.4730011 267.03068754 584.61463405 251.38726705 577.05430603 237.25396729 C576.55930603 236.24334229 576.06430603 235.23271729 575.55430603 234.19146729 C564.82564191 213.18116672 551.12575183 194.32160127 536.05430603 176.25396729 C535.50838806 175.58478271 534.96247009 174.91559814 534.40000916 174.22613525 C533.86827087 173.58434326 533.33653259 172.94255127 532.78868103 172.28131104 C532.07276794 171.4091394 532.07276794 171.4091394 531.34239197 170.51934814 C530.11745818 169.02037009 530.11745818 169.02037009 528.05430603 169.25396729 C527.72430603 168.26396729 527.39430603 167.27396729 527.05430603 166.25396729 C526.39430603 166.25396729 525.73430603 166.25396729 525.05430603 166.25396729 C525.05430603 165.59396729 525.05430603 164.93396729 525.05430603 164.25396729 C524.39430603 164.25396729 523.73430603 164.25396729 523.05430603 164.25396729 C522.72430603 163.26396729 522.39430603 162.27396729 522.05430603 161.25396729 C521.39430603 161.25396729 520.73430603 161.25396729 520.05430603 161.25396729 C520.05430603 160.59396729 520.05430603 159.93396729 520.05430603 159.25396729 C519.39430603 159.25396729 518.73430603 159.25396729 518.05430603 159.25396729 C517.72430603 158.26396729 517.39430603 157.27396729 517.05430603 156.25396729 C516.39430603 156.25396729 515.73430603 156.25396729 515.05430603 156.25396729 C515.05430603 155.59396729 515.05430603 154.93396729 515.05430603 154.25396729 C511.57432096 150.61763189 511.57432096 150.61763189 507.05430603 149.25396729 C507.05430603 148.59396729 507.05430603 147.93396729 507.05430603 147.25396729 C504.30593956 144.64221552 501.10166534 142.50058835 498.05430603 140.25396729 C497.09645203 139.54240479 497.09645203 139.54240479 496.11924744 138.81646729 C481.16092603 127.72852925 466.31298216 117.96585218 449.33164978 110.26177979 C446.62773904 109.02922447 444.06325494 107.71123088 441.51524353 106.18365479 C437.67869356 104.04454002 433.8948584 102.63378435 429.74180603 101.25396729 C425.09339677 99.67083143 420.50279582 98.07759213 415.99180603 96.12896729 C409.85965344 93.61133735 403.39583199 92.22785302 396.96153259 90.71099854 C394.31552549 90.07693232 391.686587 89.38002034 389.05430603 88.69146729 C377.56746147 85.85080167 366.39575434 83.9683089 354.57774353 83.46490479 C351.05430603 83.25396729 351.05430603 83.25396729 348.22764921 82.74864876 C345.01290929 82.24751409 342.0091619 82.12861545 338.75737762 82.12812614 C337.50555931 82.1255184 336.25374099 82.12291065 334.96398878 82.12022388 C333.58267674 82.12238573 332.20136485 82.12464238 330.8200531 82.12698364 C329.3465968 82.12583112 327.87314079 82.12424271 326.39968538 82.1222564 C322.35445551 82.11808114 318.30924921 82.12014565 314.26401925 82.12324262 C309.89995937 82.12550381 305.53590356 82.1220135 301.17184448 82.1192627 C292.62410896 82.11481375 284.07638222 82.11577759 275.52864635 82.11867534 C268.58232926 82.12093279 261.63601462 82.1212404 254.68969727 82.12015152 C253.20730924 82.11992167 253.20730924 82.11992167 251.69497398 82.11968718 C249.68740857 82.11936746 247.67984316 82.11904324 245.67227775 82.11871459 C226.84290107 82.11586236 208.01352926 82.11914279 189.18415338 82.12451495 C173.02416927 82.12898276 156.86419235 82.12820675 140.70420837 82.12359619 C121.94266437 82.1182459 103.18112464 82.11613703 84.41957998 82.11920846 C82.41935825 82.11952701 80.41913652 82.11984138 78.41891479 82.12015152 C77.43474163 82.1203058 76.45056846 82.12046007 75.43657187 82.12061902 C68.49779329 82.12148281 61.55901742 82.12002426 54.62023926 82.11767197 C46.1653626 82.11486873 37.71049523 82.11562333 29.25561965 82.12095271 C24.94101171 82.12358262 20.62641927 82.12460676 16.31181145 82.12130356 C12.36292355 82.11832605 8.41406552 82.11995776 4.46518034 82.12528111 C3.03592217 82.12639906 1.60666149 82.12582785 0.17740494 82.12340532 C-1.76465015 82.12036587 -3.70671231 82.12408052 -5.64876556 82.12812614 C-7.26719132 82.12836967 -7.26719132 82.12836967 -8.91831255 82.12861812 C-12.00457205 82.25640514 -14.90803139 82.71092748 -17.94569397 83.25396729 Z " fill="#000000" transform="translate(471.94569396972656,238.74603271484375)"/>
<path d="M0 0 C10.43369461 6.86833447 16.6358409 15.28401253 19.390625 27.48828125 C19.7578945 31.32341172 19.74330306 35.11505932 19.68359375 38.96484375 C19.67934891 40.01610443 19.67510406 41.06736511 19.67073059 42.15048218 C19.65408639 45.47168808 19.61646114 48.79226219 19.578125 52.11328125 C19.56305973 54.3801995 19.54937457 56.64712737 19.53710938 58.9140625 C19.50422982 64.43901361 19.45417509 69.96360227 19.390625 75.48828125 C20.25933731 75.4782885 20.25933731 75.4782885 21.14559937 75.46809387 C27.21338305 75.40134431 33.28106117 75.35631741 39.34912109 75.32348633 C41.60892987 75.3084683 43.86870984 75.2880478 46.12841797 75.26196289 C49.39037214 75.2252713 52.65193847 75.2084845 55.9140625 75.1953125 C57.41155533 75.17208672 57.41155533 75.17208672 58.93930054 75.14839172 C71.02523488 75.14553974 80.58310521 78.75241956 89.24609375 87.32421875 C98.78387756 98.11015698 100.28119818 109.50223709 99.55029297 123.453125 C98.74740947 133.68682042 93.37938709 142.1930877 85.765625 148.92578125 C76.59082605 156.13599853 67.42260767 157.959745 55.9140625 157.78125 C54.33717148 157.77488274 54.33717148 157.77488274 52.72842407 157.76838684 C49.40721817 157.75174264 46.08664406 157.71411739 42.765625 157.67578125 C40.49870675 157.66071598 38.23177888 157.64703082 35.96484375 157.63476562 C30.43989264 157.60188607 24.91530398 157.55183134 19.390625 157.48828125 C19.40061775 158.35699356 19.40061775 158.35699356 19.41081238 159.24325562 C19.47756194 165.3110393 19.52258884 171.37871742 19.55541992 177.44677734 C19.57043795 179.70658612 19.59085845 181.96636609 19.61694336 184.22607422 C19.65363495 187.48802839 19.67042175 190.74959472 19.68359375 194.01171875 C19.69907761 195.0100473 19.71456146 196.00837585 19.73051453 197.03695679 C19.73336651 209.12289113 16.12648669 218.68076146 7.5546875 227.34375 C-3.23125073 236.88153381 -14.62333084 238.37885443 -28.57421875 237.64794922 C-38.80791417 236.84506572 -47.31418145 231.47704334 -54.046875 223.86328125 C-61.25709228 214.6884823 -63.08083875 205.52026392 -62.90234375 194.01171875 C-62.89809891 192.96045807 -62.89385406 191.90919739 -62.88948059 190.82608032 C-62.87283639 187.50487442 -62.83521114 184.18430031 -62.796875 180.86328125 C-62.78180973 178.596363 -62.76812457 176.32943513 -62.75585938 174.0625 C-62.72297982 168.53754889 -62.67292509 163.01296023 -62.609375 157.48828125 C-63.47808731 157.498274 -63.47808731 157.498274 -64.36434937 157.50846863 C-70.43213305 157.57521819 -76.49981117 157.62024509 -82.56787109 157.65307617 C-84.82767987 157.6680942 -87.08745984 157.6885147 -89.34716797 157.71459961 C-92.60912214 157.7512912 -95.87068847 157.768078 -99.1328125 157.78125 C-100.13114105 157.79673386 -101.1294696 157.81221771 -102.15805054 157.82817078 C-114.24398488 157.83102276 -123.80185521 154.22414294 -132.46484375 145.65234375 C-142.00262756 134.86640552 -143.49994818 123.47432541 -142.76904297 109.5234375 C-141.94555691 99.02713817 -136.30526076 90.74168797 -128.796875 83.61328125 C-122.36878428 78.30039535 -114.06513 75.35287137 -105.74902344 75.37475586 C-104.78832947 75.37483139 -103.8276355 75.37490692 -102.83782959 75.37498474 C-101.80853333 75.38014603 -100.77923706 75.38530731 -99.71875 75.390625 C-98.12912445 75.39274742 -98.12912445 75.39274742 -96.50738525 75.39491272 C-93.12468638 75.40050743 -89.74205385 75.413059 -86.359375 75.42578125 C-84.06510512 75.43079693 -81.77083421 75.43535972 -79.4765625 75.43945312 C-73.85414406 75.45047514 -68.23176427 75.46720804 -62.609375 75.48828125 C-62.61936775 74.61956894 -62.61936775 74.61956894 -62.62956238 73.73330688 C-62.69631194 67.6655232 -62.74133884 61.59784508 -62.77416992 55.52978516 C-62.78918795 53.26997638 -62.80960845 51.01019641 -62.83569336 48.75048828 C-62.87238495 45.48853411 -62.88917175 42.22696778 -62.90234375 38.96484375 C-62.91782761 37.9665152 -62.93331146 36.96818665 -62.94926453 35.93960571 C-62.95218627 23.55801567 -59.09838579 14.52926184 -50.7265625 5.4453125 C-38.0582521 -6.58188908 -15.02636251 -8.70539265 0 0 Z " fill="#000000" transform="translate(461.609375,403.51171875)"/>
<path d="M0 0 C9.14984663 6.02319786 15.79724267 13.62631822 18.81640625 24.28125 C21.09353319 36.99908141 20.33651703 49.80699358 13.140625 60.73828125 C6.56624282 69.57347419 -1.65810259 75.52745659 -12.609375 77.48828125 C-27.31013535 78.7549264 -39.00747342 77.22666496 -50.609375 67.48828125 C-59.58369234 58.6084304 -62.89722203 48.96012789 -62.984375 36.48828125 C-62.84328598 23.72364441 -59.48582489 14.94965738 -50.7265625 5.4453125 C-38.0582521 -6.58188908 -15.02636251 -8.70539265 0 0 Z " fill="#000000" transform="translate(861.609375,563.51171875)"/>
<path d="M0 0 C9.14984663 6.02319786 15.79724267 13.62631822 18.81640625 24.28125 C21.09353319 36.99908141 20.33651703 49.80699358 13.140625 60.73828125 C6.56624282 69.57347419 -1.65810259 75.52745659 -12.609375 77.48828125 C-27.31013535 78.7549264 -39.00747342 77.22666496 -50.609375 67.48828125 C-59.58369234 58.6084304 -62.89722203 48.96012789 -62.984375 36.48828125 C-62.84328598 23.72364441 -59.48582489 14.94965738 -50.7265625 5.4453125 C-38.0582521 -6.58188908 -15.02636251 -8.70539265 0 0 Z " fill="#000000" transform="translate(941.609375,483.51171875)"/>
<path d="M0 0 C9.14984663 6.02319786 15.79724267 13.62631822 18.81640625 24.28125 C21.09353319 36.99908141 20.33651703 49.80699358 13.140625 60.73828125 C6.56624282 69.57347419 -1.65810259 75.52745659 -12.609375 77.48828125 C-27.31013535 78.7549264 -39.00747342 77.22666496 -50.609375 67.48828125 C-59.58369234 58.6084304 -62.89722203 48.96012789 -62.984375 36.48828125 C-62.84328598 23.72364441 -59.48582489 14.94965738 -50.7265625 5.4453125 C-38.0582521 -6.58188908 -15.02636251 -8.70539265 0 0 Z " fill="#000000" transform="translate(781.609375,483.51171875)"/>
<path d="M0 0 C9.14984663 6.02319786 15.79724267 13.62631822 18.81640625 24.28125 C21.09353319 36.99908141 20.33651703 49.80699358 13.140625 60.73828125 C6.56624282 69.57347419 -1.65810259 75.52745659 -12.609375 77.48828125 C-27.31013535 78.7549264 -39.00747342 77.22666496 -50.609375 67.48828125 C-59.58369234 58.6084304 -62.89722203 48.96012789 -62.984375 36.48828125 C-62.84328598 23.72364441 -59.48582489 14.94965738 -50.7265625 5.4453125 C-38.0582521 -6.58188908 -15.02636251 -8.70539265 0 0 Z " fill="#000000" transform="translate(861.609375,403.51171875)"/>
</svg>
