<svg xmlns="http://www.w3.org/2000/svg" width="25" height="25" viewBox="0 0 25 25"><defs><style>.a{fill:none;}.b{fill:#373737;}</style></defs><rect class="a" width="25" height="25"/><rect class="a" width="25" height="25"/><g transform="translate(1.042 4.688)"><path class="b" d="M18.188,4.5a9.688,9.688,0,0,0-5.729,1.563A9.688,9.688,0,0,0,6.729,4.5a11.27,11.27,0,0,0-4.458.823A2.122,2.122,0,0,0,1,7.25V19a2.078,2.078,0,0,0,2.583,2.021,12.865,12.865,0,0,1,3.146-.375,11.015,11.015,0,0,1,4.75.958,2.141,2.141,0,0,0,1.948,0,10.865,10.865,0,0,1,4.75-.958,12.865,12.865,0,0,1,3.146.375A2.068,2.068,0,0,0,23.906,19V7.25a2.122,2.122,0,0,0-1.271-1.927A11.185,11.185,0,0,0,18.188,4.5Zm3.646,13.26a1.052,1.052,0,0,1-1.25,1.021,13.134,13.134,0,0,0-2.4-.208,12.547,12.547,0,0,0-5.729,1.563V8.146a12.547,12.547,0,0,1,5.729-1.562A13.215,13.215,0,0,1,21,6.875,1.057,1.057,0,0,1,21.833,7.9Z" transform="translate(-1 -4.5)"/><path class="b" d="M14.011,11.093a.78.78,0,0,1-.24-1.521A13.857,13.857,0,0,1,19.355,9.1a.781.781,0,1,1-.177,1.552,12.313,12.313,0,0,0-4.927.406A2.165,2.165,0,0,1,14.011,11.093Z" transform="translate(-0.49 -4.312)"/><path class="b" d="M14.011,13.753a.78.78,0,0,1-.24-1.521,13.841,13.841,0,0,1,5.583-.469.781.781,0,1,1-.177,1.552,12.313,12.313,0,0,0-4.927.406A1.01,1.01,0,0,1,14.011,13.753Z" transform="translate(-0.49 -4.201)"/><path class="b" d="M14.011,16.413a.78.78,0,0,1-.24-1.521,13.841,13.841,0,0,1,5.583-.469.781.781,0,1,1-.177,1.552,12.313,12.313,0,0,0-4.927.406A1.01,1.01,0,0,1,14.011,16.413Z" transform="translate(-0.49 -4.09)"/><path class="b" d="M18.188,4.5a9.688,9.688,0,0,0-5.729,1.563A9.688,9.688,0,0,0,6.729,4.5a11.27,11.27,0,0,0-4.458.823A2.122,2.122,0,0,0,1,7.25V19a2.078,2.078,0,0,0,2.583,2.021,12.865,12.865,0,0,1,3.146-.375,11.015,11.015,0,0,1,4.75.958,2.141,2.141,0,0,0,1.948,0,10.865,10.865,0,0,1,4.75-.958,12.865,12.865,0,0,1,3.146.375A2.068,2.068,0,0,0,23.906,19V7.25a2.122,2.122,0,0,0-1.271-1.927A11.185,11.185,0,0,0,18.188,4.5Zm3.646,13.26a1.052,1.052,0,0,1-1.25,1.021,13.134,13.134,0,0,0-2.4-.208,12.547,12.547,0,0,0-5.729,1.563V8.146a12.547,12.547,0,0,1,5.729-1.562A13.215,13.215,0,0,1,21,6.875,1.057,1.057,0,0,1,21.833,7.9Z" transform="translate(-1 -4.5)"/></g></svg>