<svg xmlns="http://www.w3.org/2000/svg" width="25" height="25" viewBox="0 0 25 25"><defs><style>.a,.d{fill:none;}.b,.c{fill:#373737;}.c{font-size:10px;font-family:Rubik;}.d{stroke:#373737;stroke-linecap:round;}</style></defs><g transform="translate(-5922 -230)"><g transform="translate(5922 230)"><path class="a" d="M0,0H25V25H0Z"/><path class="b" d="M-6005.139-262.142h-14.453a2.353,2.353,0,0,1-2.409-2.287v-18.285a2.353,2.353,0,0,1,2.409-2.287h14.453a2.353,2.353,0,0,1,2.409,2.287v18.285A2.353,2.353,0,0,1-6005.139-262.142Zm-6.727-3.521a1,1,0,0,0-1,1,1,1,0,0,0,1,1,1,1,0,0,0,1-1A1,1,0,0,0-6011.865-265.663Zm-7-17a1,1,0,0,0-1,1v14a1,1,0,0,0,1,1h13a1,1,0,0,0,1-1v-14a1,1,0,0,0-1-1Z" transform="translate(6024.865 285.663)"/></g><text class="c" transform="translate(5928 242)"><tspan x="0" y="0">A</tspan></text><path class="d" d="M5931,237.947h4.382" transform="translate(5.245 4.053)"/><path class="d" d="M5931,237.947h12.253" transform="translate(-2.626 6.553)"/><path class="d" d="M5931,237.947h12.253" transform="translate(-2.626 9.053)"/></g></svg>