<svg fill="#000000" xmlns="http://www.w3.org/2000/svg"  viewBox="0 0 48 48" width="24px" height="24px"><path d="M 23.085938 2.9804688 A 1.50015 1.50015 0 0 0 21.675781 4.0644531 L 21.128906 5.875 L 19.693359 5.4394531 C 19.312359 5.3254531 18.900828 5.3666875 18.548828 5.5546875 C 18.197828 5.7426875 17.934313 6.0623125 17.820312 6.4453125 L 12.365234 24.685547 C 12.128234 25.477547 12.576188 26.310781 13.367188 26.550781 L 19.109375 28.291016 C 19.252375 28.334016 19.398922 28.355469 19.544922 28.355469 C 19.790922 28.355469 20.035859 28.294781 20.255859 28.175781 C 20.606859 27.987781 20.868422 27.666203 20.982422 27.283203 L 22.097656 23.550781 C 20.815656 22.451781 20 20.823 20 19 C 20 15.945 22.285281 13.429688 25.238281 13.054688 L 26.4375 9.0449219 C 26.6745 8.2529219 26.226547 7.4196875 25.435547 7.1796875 L 24 6.7441406 L 24.546875 4.9355469 A 1.50015 1.50015 0 0 0 23.085938 2.9804688 z M 26 15 A 4 4 0 0 0 26 23 A 4 4 0 0 0 26 15 z M 31.914062 18.023438 C 31.966062 18.342437 32 18.667 32 19 C 32 19.756 31.854609 20.475578 31.599609 21.142578 C 35.417609 22.904578 38 26.773047 38 31.123047 C 38 37.184047 33.068813 42.115234 27.007812 42.115234 C 21.877654 42.115234 17.426448 38.504913 16.296875 33.583984 L 21.058594 35.048828 A 1.50015 1.50015 0 1 0 21.941406 32.181641 L 8.9414062 28.181641 A 1.50015 1.50015 0 0 0 8.4980469 28.109375 A 1.50015 1.50015 0 0 0 8.0585938 31.048828 L 13.175781 32.623047 C 13.144711 32.783211 13.133652 32.948531 13.158203 33.119141 C 13.68245 36.78084 15.640814 39.95135 18.402344 42.115234 L 14.5 42.115234 A 1.50015 1.50015 0 1 0 14.5 45.115234 L 39.5 45.115234 A 1.50015 1.50015 0 1 0 39.5 42.115234 L 35.636719 42.115234 C 38.895525 39.551171 41 35.581776 41 31.123047 C 41 25.237047 37.286062 20.039438 31.914062 18.023438 z"/></svg>