<svg xmlns="http://www.w3.org/2000/svg" width="25" height="25" viewBox="0 0 25 25"><defs><style>.a{fill:none;}.b{fill:#373737;}</style></defs><rect class="a" width="25" height="25"/><g transform="translate(5.206 1.042)"><path class="b" d="M8.948,9.583v-3.9a2.6,2.6,0,1,1,5.208,0v3.9a4.688,4.688,0,1,0-5.208,0Zm5.729,2.573a2.056,2.056,0,0,0-.927-.219h-.635V5.688a1.563,1.563,0,0,0-3.125,0V16.875l-3.583-.75a1.171,1.171,0,0,0-1.073,1.969l4.177,4.177a2.124,2.124,0,0,0,1.479.6h6.354a2.077,2.077,0,0,0,2.062-1.792l.656-4.656a2.085,2.085,0,0,0-1.135-2.156Z" transform="translate(-4.997 -1)"/></g></svg>