<svg width="637" height="442" viewBox="0 0 637 442" fill="none" xmlns="http://www.w3.org/2000/svg">
<path d="M616.109 110.98H258.596C248.353 110.98 240.049 119.285 240.049 129.53V389.229C240.049 399.473 248.353 407.779 258.596 407.779H616.109C626.353 407.779 634.657 399.473 634.657 389.229V129.53C634.657 119.285 626.353 110.98 616.109 110.98Z" stroke="white" stroke-width="4"/>
<path d="M598.841 142.962H275.864C272.685 142.962 270.108 145.54 270.108 148.719V370.039C270.108 373.219 272.685 375.796 275.864 375.796H598.841C602.02 375.796 604.597 373.219 604.597 370.039V148.719C604.597 145.54 602.02 142.962 598.841 142.962Z" stroke="white" stroke-width="4"/>
<path d="M505.316 215.282C505.807 214.424 507.044 214.424 507.535 215.282L578.174 338.54C578.663 339.393 578.047 340.455 577.064 340.455H435.786C434.804 340.455 434.188 339.393 434.676 338.54L505.316 215.282Z" stroke="white" stroke-width="4"/>
<path fill-rule="evenodd" clip-rule="evenodd" d="M336.676 272.926C319.464 263.084 313.489 241.149 323.33 223.934C333.172 206.719 355.103 200.742 372.316 210.585L374.22 207.253C355.168 196.358 330.892 202.973 319.999 222.029C309.105 241.084 315.719 265.363 334.772 276.258L336.676 272.926Z" fill="white"/>
<path d="M460.697 295.15L394.494 182.841C393.253 180.738 390.207 180.745 388.976 182.854L299.775 335.805C298.532 337.938 300.069 340.615 302.537 340.615H435.585" stroke="white" stroke-width="4"/>
<path fill-rule="evenodd" clip-rule="evenodd" d="M158.321 281.486C138.496 281.235 122.627 264.957 122.878 245.128C123.129 225.299 139.405 209.428 159.23 209.679L159.279 205.842C137.334 205.564 119.319 223.131 119.041 245.079C118.763 267.027 136.328 285.045 158.273 285.323L158.321 281.486Z" fill="white"/>
<path fill-rule="evenodd" clip-rule="evenodd" d="M238.131 215.325L166.13 173.002C162.762 171.022 158.506 173.398 158.423 177.305L154.652 354.334C154.568 358.282 158.798 360.834 162.25 358.917L238.131 316.79V312.401L160.388 355.561C159.524 356.04 158.467 355.402 158.488 354.415L162.259 177.387C162.28 176.41 163.344 175.816 164.186 176.311L238.131 219.777V215.325Z" fill="white"/>
<path fill-rule="evenodd" clip-rule="evenodd" d="M12.3993 179.469L324.985 5.93163C333.014 1.47388 343.136 4.37037 347.594 12.4011L401.24 109.061H405.629L350.949 10.5385C345.463 0.654466 333.005 -2.91045 323.122 2.57602L10.5369 176.113C0.654369 181.599 -2.91002 194.06 2.57564 203.944L128.597 431.007C134.082 440.891 146.541 444.456 156.423 438.969L238.131 393.608V389.218L154.561 435.614C146.531 440.071 136.409 437.175 131.952 429.144L5.93076 202.081C1.47366 194.05 4.36972 183.926 12.3993 179.469Z" fill="white"/>
<path fill-rule="evenodd" clip-rule="evenodd" d="M43.0171 199.05L325.406 42.2769C327.259 41.2482 329.595 41.9167 330.623 43.7699L366.86 109.061H371.25L333.979 41.9073C331.922 38.2007 327.25 36.8639 323.544 38.9213L41.1548 195.695C37.4488 197.752 36.1121 202.424 38.1692 206.131L145.566 399.638C147.623 403.345 152.295 404.681 156.001 402.624L238.131 357.028V352.639L154.139 399.268C152.286 400.297 149.95 399.629 148.921 397.775L41.5244 204.268C40.4958 202.415 41.1641 200.079 43.0171 199.05Z" fill="white"/>
</svg>
