<svg id="Camada_1" data-name="Camada 1" xmlns="http://www.w3.org/2000/svg" viewBox="0 0 275.54 441.5"><defs><style>.cls-1{fill:#231f20}.cls-2{fill:#ffc931}.cls-3{fill:#6adbd0}.cls-4{fill:#97c6c4}.cls-5{fill:#9b9496}</style></defs><path class="cls-1" d="M255.51 347.84c2.52 2-1 5.53-3.53 3.55-3.93-3.14-7.91-6.25-12.9-7.37-3.14-.7-1.81-5.52 1.33-4.82 5.85 1.31 10.51 4.98 15.1 8.64zM247.16 357c.86 3.11-4 4.44-4.82 1.33a6.41 6.41 0 00-2.09-3.34 2.08 2.08 0 00-.88-.46c-2.39 1.89-5.76-1.53-3.39-3.64 4.59-4.14 10.02 1.68 11.18 6.11z"/><path class="cls-1" d="M249.19 237.76a102.38 102.38 0 01-20.49 61.69 104.56 104.56 0 01-44.13 34.08l29.65 23.4h4.48a25 25 0 0125 25v3.91a25 25 0 01-25 25H73.09a25 25 0 01-25-25v-3.94a25 25 0 0125-25h4.48l29.59-23.36c-28.07-11-35.41-28.37-41.92-59.64H46.7a12.74 12.74 0 110-25.48h73.42a12.74 12.74 0 010 25.48h-15.77c4.9 16.78 7 21 21.22 26a30.23 30.23 0 0140.84.18 65.94 65.94 0 0045.14-62.33 65.28 65.28 0 00-40.33-60.51 25.76 25.76 0 01-15.83-.9c-1.27 3-3.09 7-5.12 11.2-7.16 14.67-10.79 17.94-14.33 18.45a5.94 5.94 0 01-1 .07 20.66 20.66 0 01-6.7-1.78c-1.68 4.15-2.33 8.69-6.65 11.3-3.88 2.34-11.28-1.31-14.93-2.75a2.58 2.58 0 01-1.75-3.08c1.2-5.14 2.46-10.26 3.73-15.37a102.73 102.73 0 01-7.14 13.83 2.55 2.55 0 01-3.42.9c-4.33-2-8.4-4.59-12.9-6.25-1.16-.43-2.29-1.74-1.75-3.08 2.36-5.77 5.07-11.41 6.76-17.39-3.76-3.16-3.91-4.6-4-5.72-.16-1.56-.27-2.68 8.16-18.7 4.62-8.76 11-20.46 17.57-32.08 26.58-47.16 28.86-47.61 31.27-48.08a5.32 5.32 0 011.07-.1 15.56 15.56 0 014.74 1.2c2.14-4.19 6.63-12.92 11.38-21.58 14.39-26.21 17-26.39 19.82-26.6 4.06-.3 11.52 3.5 17.06 6.73 12.42 7.25 13.34 10.43 13.69 11.61.63 2.19 1.13 3.92-12.53 29.71-4.53 8.54-9.16 16.93-11.48 21.11 6 4.25 6.12 5.81 6.25 7.25s.43 4.56-12.44 24.17a26 26 0 019 12.95 103.47 103.47 0 0159.44 93.5zm-14.51 148.05v-3.91a16 16 0 00-16-16h-23.4a2.38 2.38 0 01.08 2.49c-5.07 9.61-9.4 20.49-10.32 31.4a2.5 2.5 0 01-1.18 2h34.84a16 16 0 0015.98-15.98zm5.51-148a94.46 94.46 0 00-49.49-82.93c0 .43-.11.86-.17 1.28-.1.6-.22 1.19-.36 1.79 0 .11 0 .25-.08.36-.15.58-.31 1.15-.49 1.71 0 .1-.07.19-.1.29-.18.52-.37 1-.57 1.55l-.09.22c-.23.55-.48 1.08-.75 1.62-.05.11-.11.22-.17.33q-.41.8-.87 1.56l-.07.11c-.3.48-.61 1-.94 1.41l-.21.28q-.51.7-1.08 1.38a2.75 2.75 0 01-.22.26c-.36.42-.74.83-1.13 1.23l-.12.13c-.41.42-.85.82-1.3 1.21a2.26 2.26 0 01-.29.25l-.32.28A74.38 74.38 0 01209.29 277a2.32 2.32 0 01.32.85c1.78 9.75-.43 19-2 28.66a2.06 2.06 0 01-.74 1.38 2.7 2.7 0 01-4.08-2.71c1.21-7.43 3-14.8 2.46-22.29a75.28 75.28 0 01-9.53 10.35c.22 8.81-2.66 17-5.44 25.27a2.43 2.43 0 01-1.67 1.63c-1.7.48-3.87-.81-3.15-3 2.18-6.49 4.5-12.93 5.12-19.7a74.17 74.17 0 01-18.27 10.09.54.54 0 00.06.11c.28.5.54 1 .79 1.52.05.1.09.21.14.32.2.42.39.85.57 1.27l.18.45c.2.51.39 1 .56 1.54v.08c.18.55.34 1.09.49 1.64 0 .16.08.31.11.46.12.45.22.89.31 1.34 0 .13.06.25.08.38.11.56.2 1.13.27 1.69v.38c.05.46.1.92.13 1.38v.49q.06.87.06 1.74c0 .73 0 1.46-.09 2.19 0 .2 0 .41-.05.61-.05.57-.12 1.14-.2 1.7 0 .12 0 .24-.05.36a94 94 0 0064.41-89.44zM92.09 356.93h107.6L174.48 337l-.61.17-.92.25c-.33.09-.64.19-1 .26l-.09.14c-.32.55-.66 1.09-1 1.61-.13.19-.27.37-.4.55-.27.37-.53.74-.82 1.1-.16.21-.34.41-.51.62s-.52.63-.8.94-.39.41-.58.61-.55.57-.83.85l-.64.59-.85.76-.69.56-.89.68-.73.52-.92.62-.77.47-1 .55-.8.43-1 .48-.82.37-1 .42-.84.31c-.36.13-.72.24-1.08.35l-.85.26-1.14.28-.84.2c-.4.08-.81.15-1.22.21l-.8.13c-.45.06-.91.1-1.37.14-.23 0-.46.06-.69.07-.69 0-1.39.07-2.09.07s-1.39 0-2.08-.07c-.23 0-.46 0-.69-.07-.46 0-.92-.08-1.37-.14l-.8-.13c-.41-.06-.82-.13-1.22-.22s-.56-.12-.84-.19l-1.14-.28-.84-.26c-.37-.11-.73-.22-1.09-.35l-.84-.31c-.35-.14-.7-.27-1-.42l-.82-.37-1-.49c-.27-.13-.53-.27-.8-.42l-1-.55-.77-.47-.92-.62-.73-.52c-.3-.22-.6-.45-.89-.69l-.69-.55-.85-.76-.65-.59-.82-.84-.58-.62c-.28-.31-.54-.62-.8-.94l-.52-.62c-.27-.35-.53-.72-.8-1.08l-.41-.57c-.34-.5-.67-1-1-1.54l-.13-.21c-.33-.07-.64-.17-1-.26l-.92-.25-.61-.17zM179.36 95c10.12-18.2 20.36-37.75 22.44-43.54-3.61-3.36-15.75-10.29-20.18-11.53-4 4.42-15.15 24.4-24.45 42.72 4.31 2.15 9 4.72 13.18 7.09 3.52 1.96 6.5 3.7 9.01 5.26zm11.67 271h-35.69c-3.43 10-7.58 19.71-10.39 29.89-.86 3.11-5.69 1.79-4.83-1.33 2.69-9.73 6.6-19 9.94-28.56h-12.8c-3.34 5.47-4.55 11.68-6.21 17.8-1.54 5.68-4.35 11-5.44 16.76a2.29 2.29 0 01-.68 1.29h55.94a2.05 2.05 0 01-.83-2c.96-11.85 5.48-23.48 10.96-33.92zm-9.17-214a17.23 17.23 0 00-.38-3.56 17.13 17.13 0 10-27.72 16.71 17.41 17.41 0 001.77 1.29A17.12 17.12 0 00181.86 152zm-9.14-24.87c4.67-7.14 9.37-14.88 11-18.4-6.12-4.92-30.48-18.65-38.13-21.52-8.05 11-44.4 75.23-49.87 88.14 5.16 4.49 23.61 15.16 33.59 19.69a2.27 2.27 0 011.08.48 27.05 27.05 0 004 1.47c2.81-2.78 8.66-14.34 13.28-25.25l-.56-.51-.38-.35c-.34-.32-.68-.65-1-1a.6.6 0 00-.08-.08c-.34-.36-.68-.76-1-1.15-.11-.12-.2-.25-.3-.37s-.43-.55-.64-.83l-.33-.47c-.19-.25-.36-.52-.54-.78l-.32-.51-.48-.81-.28-.51-.46-.89-.3-.48c-.21-.44-.4-.88-.58-1.33v-.06c-.19-.47-.36-.94-.52-1.43-.05-.15-.09-.31-.14-.46-.1-.33-.2-.67-.29-1s-.09-.37-.14-.55-.15-.64-.21-.95-.08-.39-.11-.59-.11-.64-.16-1 0-.38-.07-.58c-.05-.35-.08-.69-.1-1.05v-.5-1.56a26.16 26.16 0 0126.13-26.13c.62 0 1.23 0 1.84.07h.54q.68.06 1.35.15c.17 0 .35 0 .52.09.6.09 1.2.21 1.79.35h.08c.56.13 1.12.29 1.67.47zM166.85 326a21.28 21.28 0 10-42.14-5.65c-.06.65-.09 1.31-.09 2a21.28 21.28 0 0042.23 3.65zm-35.29 39.91h-14.18c-3.31 11.39-7.91 22.28-12.43 33.23a2.67 2.67 0 01-2.54 1.66c-1.55 0-3-1.18-2.29-3 4.35-10.52 8.76-21 12-31.9H94.87a2.77 2.77 0 01.08 1.23c-2.11 12.2-10 22.55-12.25 34.62h39.18a2.51 2.51 0 01-1.09-2.62c1.26-6.72 4.49-13 6.19-19.67a67.86 67.86 0 014.58-13.53zm-7.7-104.74a3.75 3.75 0 00-3.74-3.74H46.7a3.74 3.74 0 100 7.48h73.42a3.75 3.75 0 003.74-3.72zm-3.64-50.69c2-2.25 2.65-5.27 3.64-8.11-3.53-1.66-7.3-3.63-10.66-5.46q-1.49 6-2.92 12c3.28 1.45 8.33 3.4 9.94 1.59zm-.68 96.95l.09-.18c-12.55-5-17.16-10.93-21-21.49A38 38 0 0195.28 296c-2.11 4-5 7.54-7.26 11.48a2.41 2.41 0 01-1.12 1c6 8.34 14.79 14 29.11 18.73 0-.12 0-.24-.05-.35-.08-.57-.15-1.14-.2-1.71l-.06-.62c0-.73-.08-1.46-.08-2.19s0-1.19.06-1.78v-.48c0-.49.08-1 .14-1.46v-.33c.08-.58.18-1.15.29-1.72 0-.14 0-.28.08-.42.1-.46.2-.91.32-1.36l.11-.44c.16-.56.32-1.11.51-1.66 0-.08.06-.17.08-.25.17-.47.34-.94.53-1.4l.19-.46c.2-.48.41-1 .64-1.42l.09-.19c.34-.51.59-.97.88-1.52zm-15.22-115.6c-4.18-2.48-7.39-4.53-9.85-6.25-1.47 4.6-3.47 9-5.36 13.49 3.16 1.39 6.18 3.05 9.26 4.61a100.92 100.92 0 005.95-11.85zM94.2 282.51a2.09 2.09 0 012.82-1.7c-.66-2.12-1.33-4.41-2-6.88H93c-1.75 4.31-2.71 9.37-5.41 13.24-1.73 2.47-5.31 5.6-5.47 8.76a2.4 2.4 0 01-1 1.88 57.46 57.46 0 003 6.35c1.94-3.17 4.36-6.05 6.08-9.35a40.08 40.08 0 004-12.3zm-4.1 83.42H79.66c-2.33 11.3-7.79 21.53-13 31.82a2.12 2.12 0 01-2.78 1.11 15.89 15.89 0 009.18 2.92h4.64c2.3-12.56 10.19-23.23 12.4-35.85zm-2.45-92h-3c-1.47 4.81-4.44 8.77-7.15 13 .38 1.42.78 2.78 1.2 4.11a48.52 48.52 0 013.35-4.7c2.8-3.75 3.95-8.14 5.6-12.41zm-8.31 0h-4.91c.47 2.24.95 4.38 1.43 6.44a34.84 34.84 0 003.48-6.44zm-4.7 92h-1.55a16 16 0 00-16 16v3.91a15.93 15.93 0 005.38 11.92 2.44 2.44 0 01-.11-2.5c4.75-9.45 10.03-18.96 12.28-29.33z"/><path class="cls-1" d="M228.7 251.16c0-3.22 5-3.23 5 0 0 5.78-.62 11.55-.66 17.33 0 3.22-5 3.23-5 0 .04-5.78.62-11.55.66-17.33zM226.38 372.56c1.51-2.84 5.83-.32 4.31 2.53-3.23 6.08-4.95 12.82-8.66 18.66-1.73 2.72-6.06.21-4.32-2.52 3.71-5.84 5.43-12.59 8.67-18.67zM223 266.49c0 8.3.41 16.51-1.43 24.67a2.69 2.69 0 01-.32.81c-1.29 2-5.13.69-4.5-2.14 1.74-7.71 1.29-15.5 1.25-23.34a2.72 2.72 0 01.21-1.07c1-2.1 4.79-1.74 4.79 1.07zM210.38 367.23c1.56-2.82 5.87-.3 4.31 2.52-4 7.33-10.08 16.75-9.65 25.41.15 3.23-4.85 3.21-5 0-.47-9.56 5.88-19.86 10.34-27.93zM209.25 113.61a86.52 86.52 0 01-1.09 15.67c-.59 3.16-5.41 1.82-4.82-1.33a79.88 79.88 0 00.91-14.34c0-3.22 5-3.22 5 0zM200.16 111c1.2 4.82 1.84 9.25-.26 13.92-1.31 2.94-5.62.4-4.31-2.52 1.47-3.29.57-6.74-.25-10.07-.78-3.18 4.04-4.51 4.82-1.33z"/><path class="cls-2" d="M199.69 356.93H92.09L117.31 337l.61.17.92.25c.33.09.64.19 1 .26l.13.21c.31.52.64 1 1 1.54l.41.57c.27.36.53.73.8 1.08l.52.62c.26.32.52.63.8.94l.58.62.82.84.65.59.85.76.69.55c.29.24.59.47.89.69l.73.52.92.62.77.47 1 .55c.27.15.53.29.8.42l1 .49.82.37c.34.15.69.28 1 .42l.84.31c.36.13.72.24 1.09.35l.84.26 1.14.28c.28.07.56.14.84.19s.81.16 1.22.22l.8.13c.45.06.91.1 1.37.14.23 0 .46.06.69.07.69 0 1.38.07 2.08.07s1.4 0 2.09-.07c.23 0 .46 0 .69-.07.46 0 .92-.08 1.37-.14l.8-.13c.41-.06.82-.13 1.22-.21l.84-.2 1.14-.28.85-.26c.36-.11.72-.22 1.08-.35l.84-.31 1-.42.82-.37 1-.48.8-.43 1-.55.77-.47.92-.62.73-.52.89-.68.69-.56.85-.76.64-.59c.28-.28.56-.56.83-.85s.39-.4.58-.61.54-.62.8-.94.35-.41.51-.62c.29-.36.55-.73.82-1.1.13-.18.27-.36.4-.55.36-.52.7-1.06 1-1.61l.09-.14c.33-.07.64-.17 1-.26l.92-.25.61-.17z"/><path class="cls-3" d="M201.8 51.43c-2.08 5.79-12.32 25.34-22.44 43.54-2.51-1.53-5.49-3.27-9-5.26-4.18-2.37-8.87-4.94-13.18-7.09 9.3-18.32 20.44-38.3 24.45-42.72 4.42 1.24 16.56 8.17 20.17 11.53zm-18-1c1-3.07-3.8-4.37-4.82-1.33a45.31 45.31 0 01-12 19.23c-2.38 2.18 1.16 5.71 3.54 3.53 6.24-5.77 10.57-13.38 13.25-21.43zM165 79.6c3.23 0 3.23-5 0-5s-3.19 5 0 5z"/><path class="cls-4" d="M190.7 154.83c0 .43-.11.86-.17 1.28-.1.6-.22 1.19-.36 1.79 0 .11 0 .25-.08.36-.15.58-.31 1.15-.49 1.71 0 .1-.07.19-.1.29-.18.52-.37 1-.57 1.55l-.09.22c-.23.55-.48 1.08-.75 1.62-.05.11-.11.22-.17.33q-.41.8-.87 1.56l-.07.11c-.3.48-.61 1-.94 1.41l-.21.28q-.51.7-1.08 1.38a2.75 2.75 0 01-.22.26c-.36.42-.74.83-1.13 1.23l-.12.13c-.41.42-.85.82-1.3 1.21a2.26 2.26 0 01-.29.25l-.32.28A74.38 74.38 0 01209.29 277a2.32 2.32 0 01.32.85c1.78 9.75-.43 19-2 28.66a2.06 2.06 0 01-.74 1.38 2.7 2.7 0 01-4.08-2.71c1.21-7.43 3-14.8 2.46-22.29a75.28 75.28 0 01-9.53 10.35c.22 8.81-2.66 17-5.44 25.27a2.43 2.43 0 01-1.67 1.63c-1.7.48-3.87-.81-3.15-3 2.18-6.49 4.5-12.93 5.12-19.7a74.17 74.17 0 01-18.27 10.09.54.54 0 00.06.11c.28.5.54 1 .79 1.52.05.1.09.21.14.32.2.42.39.85.57 1.27l.18.45c.2.51.39 1 .56 1.54v.08c.18.55.34 1.09.49 1.64 0 .16.08.31.11.46.12.45.22.89.31 1.34 0 .13.06.25.08.38.11.56.2 1.13.27 1.69v.38c.05.46.1.92.13 1.38v.49q.06.87.06 1.74c0 .73 0 1.46-.09 2.19 0 .2 0 .41-.05.61-.05.57-.12 1.14-.2 1.7 0 .12 0 .24-.05.36a94.27 94.27 0 0015.03-172.35zm30.91 136.33a2.69 2.69 0 01-.32.81c-1.29 2-5.13.69-4.5-2.14 1.74-7.71 1.29-15.5 1.25-23.34a2.72 2.72 0 01.21-1.07c1-2.1 4.77-1.74 4.79 1.07.04 8.3.41 16.51-1.43 24.67zm6.39-22.67c0-5.78.62-11.55.66-17.33 0-3.22 5-3.23 5 0 0 5.78-.62 11.55-.66 17.33 0 3.22-5 3.23-5 0z"/><path class="cls-1" d="M179 49.1c1-3 5.85-1.74 4.82 1.33-2.68 8-7 15.66-13.3 21.43-2.38 2.18-5.92-1.35-3.54-3.53A45.31 45.31 0 00179 49.1z"/><path class="cls-2" d="M181.48 148.39a17.12 17.12 0 01-25.95 18 17.41 17.41 0 01-1.77-1.29 17.12 17.12 0 1127.72-16.71zM165 147.6c3.22 0 3.22-5 0-5s-3.19 5 0 5zm-3-3.35c2.87-1.46.34-5.78-2.52-4.31-5.39 2.75-7.29 9.2-6.15 14.82.63 3.17 5.45 1.82 4.82-1.33-.75-3.53.48-7.43 3.85-9.18z"/><path class="cls-3" d="M183.69 108.68c-1.6 3.52-6.3 11.26-11 18.4l-.21-.06c-.55-.18-1.11-.34-1.67-.47h-.08c-.59-.14-1.19-.26-1.79-.35-.17 0-.35-.06-.52-.09q-.67-.09-1.35-.15h-.54c-.61 0-1.22-.07-1.84-.07a26.16 26.16 0 00-26.1 26.11v2.06c0 .36 0 .7.1 1.05 0 .2.05.39.07.58s.1.64.16 1 .07.39.11.59.13.63.21.95.09.36.14.55.19.67.29 1c.05.15.09.31.14.46.16.49.33 1 .52 1.43v.06c.18.45.37.89.58 1.33l.22.46.46.89.28.51.48.81.32.51c.18.26.35.53.54.78l.33.47c.21.28.42.56.64.83s.19.25.3.37c.32.39.66.79 1 1.15a.6.6 0 01.08.08c.32.35.66.68 1 1l.38.35.56.51c-4.62 10.91-10.47 22.47-13.28 25.25a27.05 27.05 0 01-4-1.47 2.27 2.27 0 00-1.08-.48c-10-4.53-28.43-15.2-33.59-19.69 5.47-12.91 41.82-77.15 49.87-88.14 7.79 2.75 32.15 16.51 38.27 21.43zm-32.4-12.43c2.53-1.92.05-6.27-2.52-4.31-3.87 3-6.22 7-9.17 10.72-2 2.52 1.54 6.07 3.53 3.54 2.61-3.33 4.75-7.35 8.16-9.95zm-8.77 16.11c1.86-2.65-2.47-5.14-4.32-2.53a145.9 145.9 0 00-9 15c-1.52 2.85 2.8 5.37 4.32 2.53a144.84 144.84 0 019-15zm-6.9 69.73c.95 3.07 5.77 1.76 4.82-1.33-.64-2.07-.69-4.26-1.33-6.33-1-3.07-5.78-1.75-4.82 1.33.64 2.07.71 4.24 1.33 6.33zm-3.26 4.84a2.5 2.5 0 002.5-2.5c-.32-2.56-.67-5.11-1-7.67a2.55 2.55 0 00-2.5-2.5 2.51 2.51 0 00-2.5 2.5c.33 2.56.68 5.11 1 7.67a2.56 2.56 0 002.5 2.5z"/><path class="cls-1" d="M170.79 371.83c1.16-3 6-1.68 4.82 1.33-2.91 7.43-8.33 13.68-10.66 21.33-.94 3.07-5.77 1.76-4.83-1.33 2.36-7.72 7.76-13.88 10.67-21.33z"/><path class="cls-2" d="M167.17 322.34a21.23 21.23 0 01-2.23 9.48 21.28 21.28 0 01-40.32-9.48c0-.66 0-1.32.09-2a21.28 21.28 0 0142.46 2z"/><path class="cls-1" d="M165 74.6c3.23 0 3.23 5 0 5s-3.19-5 0-5zM165 142.6c3.22 0 3.22 5 0 5s-3.19-5 0-5z"/><path class="cls-1" d="M159.44 139.94c2.86-1.47 5.39 2.85 2.52 4.31-3.33 1.7-4.56 5.65-3.85 9.18.63 3.15-4.19 4.5-4.82 1.33-1.14-5.62.76-12.07 6.15-14.82zM148.77 91.94c2.57-2 5 2.39 2.52 4.31-3.41 2.6-5.55 6.62-8.16 10-2 2.53-5.5-1-3.53-3.54 2.95-3.82 5.3-7.82 9.17-10.77zM138.2 109.83c1.85-2.61 6.18-.12 4.32 2.53a144.84 144.84 0 00-9 15c-1.52 2.84-5.84.32-4.32-2.53a145.9 145.9 0 019-15zM140.44 180.76c.95 3.09-3.87 4.4-4.82 1.33-.64-2.07-.69-4.26-1.33-6.33-1-3.08 3.87-4.4 4.82-1.33.64 2.07.69 4.26 1.33 6.33zM134.86 184.43a2.5 2.5 0 01-2.5 2.5 2.56 2.56 0 01-2.5-2.5c-.32-2.56-.67-5.11-1-7.67a2.51 2.51 0 012.5-2.5 2.55 2.55 0 012.5 2.5c.33 2.56.68 5.11 1 7.67z"/><path class="cls-2" d="M120.12 257.45a3.74 3.74 0 010 7.48H46.7a3.74 3.74 0 110-7.48z"/><path class="cls-5" d="M123.86 202.39c-1 2.84-1.63 5.86-3.64 8.11-1.61 1.81-6.66-.14-9.94-1.53q1.43-6 2.92-12c3.36 1.79 7.13 3.76 10.66 5.42zM94.47 185.58c2.46 1.72 5.67 3.77 9.85 6.25a100.92 100.92 0 01-5.95 11.85c-3.08-1.56-6.1-3.22-9.26-4.61 1.89-4.47 3.89-8.89 5.36-13.49z"/><path class="cls-4" d="M98.67 285.78A38 38 0 0195.28 296c-2.11 4-5 7.54-7.26 11.48a2.41 2.41 0 01-1.12 1c6 8.34 14.79 14 29.11 18.73 0-.12 0-.24-.05-.35-.08-.57-.15-1.14-.2-1.71l-.06-.62c0-.73-.08-1.46-.08-2.19s0-1.19.06-1.78v-.48c0-.49.08-1 .14-1.46v-.33c.08-.58.18-1.15.29-1.72 0-.14 0-.28.08-.42.1-.46.2-.91.32-1.36l.11-.44c.16-.56.32-1.11.51-1.66 0-.08.06-.17.08-.25.17-.47.34-.94.53-1.4l.19-.46c.2-.48.41-1 .64-1.42l.09-.19c.25-.51.52-1 .81-1.52l.09-.18c-12.48-5.03-17.09-10.93-20.89-21.49zM94.2 282.51a2.09 2.09 0 012.82-1.7c-.66-2.12-1.33-4.41-2-6.88H93c-1.75 4.31-2.71 9.37-5.41 13.24-1.73 2.47-5.31 5.6-5.47 8.76a2.4 2.4 0 01-1 1.88 57.46 57.46 0 003 6.35c1.94-3.17 4.36-6.05 6.08-9.35a40.08 40.08 0 004-12.3zM87.65 273.93h-3c-1.47 4.81-4.44 8.77-7.15 13 .38 1.42.78 2.78 1.2 4.11a48.52 48.52 0 013.35-4.7c2.8-3.75 3.95-8.14 5.6-12.41zM74.43 273.93c.47 2.24.95 4.38 1.43 6.44a34.84 34.84 0 003.48-6.44z"/><path class="cls-1" d="M71.34 180c1.1-3 5.93-1.71 4.82 1.33-1.87 5.07-1.9 11-1.91 16.33 0 3.22-5 3.23-5 0 .01-5.81.08-12.25 2.09-17.66z"/><path class="cls-5" d="M218.7 365.93h-23.42a2.38 2.38 0 01.08 2.49c-5.07 9.61-9.4 20.49-10.32 31.4a2.5 2.5 0 01-1.18 2h34.84a16 16 0 0016-16v-3.92a16 16 0 00-16-15.97zm-4 3.82c-4 7.33-10.08 16.75-9.65 25.41.15 3.23-4.85 3.21-5 0-.47-9.56 5.88-19.86 10.34-27.93 1.55-2.82 5.86-.3 4.3 2.52zm16 5.34c-3.23 6.08-4.95 12.82-8.66 18.66-1.73 2.72-6.06.21-4.32-2.52 3.71-5.84 5.43-12.59 8.67-18.67 1.5-2.84 5.82-.32 4.3 2.53zM180 399.82c1-11.82 5.48-23.45 11-33.89h-35.66c-3.43 10-7.58 19.71-10.39 29.89-.86 3.11-5.69 1.79-4.83-1.33 2.69-9.73 6.6-19 9.94-28.56h-12.8c-3.34 5.47-4.55 11.68-6.21 17.8-1.54 5.68-4.35 11-5.44 16.76a2.29 2.29 0 01-.68 1.29h55.94a2.05 2.05 0 01-.87-1.96zm-4.43-26.66c-2.91 7.43-8.33 13.68-10.66 21.33-.94 3.07-5.77 1.76-4.83-1.33 2.36-7.72 7.76-13.88 10.67-21.33 1.25-2.97 6.04-1.68 4.86 1.33zM120.79 399.16c1.26-6.72 4.49-13 6.19-19.67a67.86 67.86 0 014.58-13.56h-14.18c-3.31 11.39-7.91 22.28-12.43 33.23a2.67 2.67 0 01-2.54 1.66c-1.55 0-3-1.18-2.29-3 4.35-10.52 8.76-21 12-31.9H94.87a2.77 2.77 0 01.08 1.23c-2.11 12.2-10 22.55-12.25 34.62h39.18a2.51 2.51 0 01-1.09-2.61zM79.66 365.93c-2.33 11.3-7.79 21.53-13 31.82a2.12 2.12 0 01-2.78 1.11 15.89 15.89 0 009.18 2.92h4.64c2.3-12.56 10.19-23.23 12.4-35.85zM62.38 395.23c4.73-9.42 10-18.93 12.26-29.3h-1.55a16 16 0 00-16 16v3.91a15.93 15.93 0 005.38 11.92 2.44 2.44 0 01-.09-2.53z"/><path class="cls-1" d="M64.48 175.45c2.66-1.84 5.16 2.5 2.53 4.32a12.6 12.6 0 00-4.85 7.51c-.83 3.11-5.65 1.79-4.82-1.33a17.93 17.93 0 017.14-10.5zM35 269.45c2.63 1.83.13 6.16-2.53 4.32a17.87 17.87 0 01-7.14-10.49c-.83-3.13 4-4.45 4.82-1.33a12.61 12.61 0 004.85 7.5zM30.51 274.84c2.28 2.3-1.25 5.82-3.53 3.55-3-3-6.15-6.06-7.64-10.11-1.13-3 3.71-4.33 4.82-1.33s4.06 5.59 6.35 7.89z"/></svg>