<svg id="Camada_1" data-name="Camada 1" xmlns="http://www.w3.org/2000/svg" viewBox="0 0 100 100"><path d="M53.84,28.22a3.1,3.1,0,0,1-3.1-3.1,13.77,13.77,0,1,0-27.53,0,3.1,3.1,0,0,1-6.2,0,20,20,0,1,1,39.93,0A3.1,3.1,0,0,1,53.84,28.22Z"/><path d="M80.89,95H38.29A10.52,10.52,0,0,1,35,94.47a9.59,9.59,0,0,1-6.29-3.4l-18-21.76A9.51,9.51,0,0,1,25.42,57.2L27.75,60V23.89a9.51,9.51,0,0,1,19,0v8.74a9.42,9.42,0,0,1,5.43-1.71,9.53,9.53,0,0,1,8.07,4.49,9.5,9.5,0,0,1,16.3,5.42,9.5,9.5,0,0,1,14.85,7.86V84.46A10.55,10.55,0,0,1,80.89,95ZM18.08,59.94a3.32,3.32,0,0,0-2.55,5.42l18,21.77a3.29,3.29,0,0,0,2.36,1.19,2.86,2.86,0,0,1,.91.2,4.26,4.26,0,0,0,1.52.28h42.6a4.34,4.34,0,0,0,4.34-4.34V48.69a3.32,3.32,0,0,0-6.63,0v4.49a3.1,3.1,0,0,1-3.1,3.1h-2a3.1,3.1,0,0,1-3.1-3.1V42a3.31,3.31,0,0,0-6.62,0v11.2a3.1,3.1,0,0,1-3.1,3.1H58.61a3.1,3.1,0,0,1-3.1-3.1V40.43a3.31,3.31,0,1,0-6.62,0V53.18a3.1,3.1,0,0,1-3.1,3.1H43.67a3.1,3.1,0,0,1-3.1-3.1V23.89a3.31,3.31,0,0,0-6.62,0V68.65a3.1,3.1,0,0,1-5.49,2l-7.82-9.47A3.24,3.24,0,0,0,18.4,60Z"/></svg>