<?xml version="1.0" encoding="utf-8"?>
<!-- Generator: Adobe Illustrator 26.0.3, SVG Export Plug-In . SVG Version: 6.00 Build 0)  -->
<svg version="1.1" id="Camada_1" xmlns="http://www.w3.org/2000/svg" xmlns:xlink="http://www.w3.org/1999/xlink" x="0px" y="0px"
	 viewBox="0 0 352.4 352.4" fill="#ffffff" style="enable-background:new 0 0 352.4 352.4;" xml:space="preserve">
<g id="texto_gio">
	<path d="M110.8,215.9c-8.4,6.9-19.9,10.4-34.2,10.4c-16.3,0-28.9-4.3-37.3-12.8c-8.4-8.5-12.7-21.1-12.7-37.4s4.3-28.7,12.7-37.2
		c8.4-8.5,20.9-12.8,37.3-12.8c13.5,0,24.7,3.2,33.1,9.4l1.6,1.2l9.5-12.7l-1.6-1.2c-11.1-8.4-25.5-12.6-42.6-12.6
		c-9.4-0.1-18.7,1.4-27.6,4.5c-7.8,2.8-14.9,7.2-20.7,13c-5.8,5.9-10.3,13-13,20.8c-3.1,8.8-4.6,18.1-4.5,27.5
		c-0.1,9.4,1.4,18.7,4.5,27.6c5.5,15.8,18,28.2,33.8,33.8c8.9,3.1,18.2,4.6,27.6,4.5c20,0,36-5.7,47.8-16.8l0.2-0.2
		c1.4-1.6,2.1-3.6,2.2-5.7v-51.8l-15.8,4.7V215.9z"/>
	<rect x="164.7" y="111.6" width="15.8" height="129.4" />
	<path d="M337.2,203.8c3.1-8.9,4.6-18.2,4.5-27.6c0.1-9.4-1.4-18.7-4.5-27.5c-2.8-7.8-7.2-14.9-13-20.8c-5.9-5.8-13-10.2-20.7-13
		c-17.9-6-37.2-6-55.1,0c-7.8,2.8-14.9,7.2-20.7,13c-5.8,5.9-10.3,13-13,20.8c-3.1,8.8-4.6,18.1-4.5,27.5
		c-0.1,9.4,1.4,18.7,4.5,27.6c5.5,15.8,17.9,28.2,33.8,33.8c17.9,6,37.2,6,55.1,0C319.3,232,331.7,219.6,337.2,203.8L337.2,203.8z
		 M325.8,176.2c0,16.3-4.3,28.9-12.7,37.4c-8.4,8.5-21,12.8-37.3,12.8s-28.8-4.3-37.3-12.8c-8.4-8.5-12.7-21.1-12.7-37.4
		s4.3-28.7,12.7-37.2c8.4-8.5,21-12.8,37.3-12.8s28.9,4.3,37.3,12.8C321.5,147.5,325.8,160,325.8,176.2L325.8,176.2z"/>
</g>
</svg>
