<svg xmlns="http://www.w3.org/2000/svg" viewBox="0 0 72 72"><defs><style>.cls-1{fill:#373737;}</style></defs><g id="Camada_3" data-name="Camada 3"><path class="cls-1" d="M29.48,19.79c0-.19-.06-.41-.09-.69a.92.92,0,0,1,0-.18C29.41,19.22,29.45,19.52,29.48,19.79Z"/><path class="cls-1" d="M36,39h-.29a1,1,0,0,1,0,.15.81.81,0,0,1,0-.16A1.62,1.62,0,0,0,36,39Z"/><path class="cls-1" d="M36.35,38.94V39a.78.78,0,0,0,0-.09h-.15Z"/><path class="cls-1" d="M42.43,19.74c0,.23,0,.44-.06.53a1.55,1.55,0,0,1,0,.21C42.37,20.26,42.4,20,42.43,19.74Z"/><path class="cls-1" d="M42.58,18v0Z"/><path class="cls-1" d="M71,14.56a.22.22,0,0,1-.25.22l-2-.07h0a.14.14,0,0,0-.12.08.15.15,0,0,0,.09.17l1.69.36c.12,0,.17.27.17.27a.23.23,0,0,1-.29.17l-1.62-.31h0a.14.14,0,0,0-.14.11.16.16,0,0,0,.07.18l1,.35a.23.23,0,0,1,.15.3h0a.14.14,0,0,1-.16.06l-1.69-.38L66,16l-.79-.05c-.26,0-1,0-1,0s-3.23.51-5.07.66c-1.52.12-3.58.09-5,.11-.7,0-4.79.93-8.23.65-1.35-.11-2.69-.17-3.28.66h0v.16c0,.17,0,.35,0,.5a1.09,1.09,0,0,0,0,.18l0,.22c0,.16,0,.39-.08.65s-.06.52-.1.74l0,.2c0,.23-.09.46-.14.69l-.15.68c-.06.31-.12.61-.19.91s-.12.61-.17.91-.06.36-.09.54,0,.36-.08.54l0,.31q0,.34-.06.69c0,.25,0,.52,0,.79a13.29,13.29,0,0,0,.07,1.38q.09.84.24,1.68a3.06,3.06,0,0,0,.05.32c.07.41.15.81.23,1.2.13.71.27,1.41.41,2.11l.06.28c.08.39.15.79.21,1.19a2,2,0,0,1,.05.26c0,.17,0,.34.07.51s0,.23.06.36a.2.2,0,0,1,0,.07.06.06,0,0,0,0,0c.07.37.15.81.24,1.2,0,.15.08.29.11.42l.06.23c.6,2.18,1.62,4.14,2.38,6.26.86,2.43,1.43,3.49,2.45,5.92a43.88,43.88,0,0,0,1.14,5.44c1.13,5,1.64,7.1,2.07,8a2.73,2.73,0,0,0,.13.29,5,5,0,0,0,1,1.29,9.34,9.34,0,0,0,2.23.36L57,64.67v.54l-2,1.33s-1.55.62-1.9.8c0,0-1.51,1.24-2.25,1.22a.41.41,0,0,1-.34-.34l-.31-1-.13-.48L50,66.48l-.63-1.56,0-.11s-.91-2-1.61-3.07a46.9,46.9,0,0,1-3-5.25c-.83-1.84-1.17-3.88-2.17-5.76l0,0a.47.47,0,0,0,0-.1,1.4,1.4,0,0,0-.1-.16c0,.43-.05.94-.08,1.58-.51,1.45-.78,5-1.08,6.33-1.1,5-1.49,7.2-1.49,8.2v.31a4.17,4.17,0,0,0,.29,1.47A9.58,9.58,0,0,0,42,69.62l2.56.22-.22.5L42,70.71s-1.66-.08-2.06-.07a5.64,5.64,0,0,1-2.56.15.41.41,0,0,1-.16-.45l.14-1,.08-.5v-.29l.1-1.68,0-.1s0-2.16-.16-3.47a46.83,46.83,0,0,1-.49-6c0-2.29.76-4.57.37-7a55.22,55.22,0,0,1-.93-10.11c0-.31,0-.6,0-.87v-.31l-.16,0H36a1.62,1.62,0,0,1-.31,0,.81.81,0,0,0,0,.16.75.75,0,0,0,0,.15c0,.27,0,.56,0,.87a54.61,54.61,0,0,1-.94,10.11c-.38,2.46.2,4.74.22,7a46.81,46.81,0,0,1-.48,6,23.67,23.67,0,0,0,0,3.47l.06.24a1.71,1.71,0,0,1-.06,1.07l.2,1.26L35,70.57a.48.48,0,0,1-.17.45.4.4,0,0,1-.24.1,11.11,11.11,0,0,1-2.23,0,1.13,1.13,0,0,1-.85-.45.47.47,0,0,1,0-.5A11,11,0,0,0,32.32,69a1.69,1.69,0,0,0-.1-.84c-.11-.31.31-.63.31-1.62s-.6-3.16-1.7-8.2a22.68,22.68,0,0,1-.54-4.11c-.05-1.42,0-2.88-.07-4.29l0-.44a1.13,1.13,0,0,0-.1.13.41.41,0,0,0-.05.09c-1.39,2.06-1.83,4.37-2.77,6.46a45.46,45.46,0,0,1-3,5.25,25.37,25.37,0,0,0-1.48,3.13l0,.25a1.65,1.65,0,0,1-.51.94L21.91,67l-.33,1.22a.5.5,0,0,1-.35.34.46.46,0,0,1-.26,0,10.38,10.38,0,0,1-2-1,1.11,1.11,0,0,1-.58-.78.46.46,0,0,1,.22-.44,11.92,11.92,0,0,0,1.22-.7,1.61,1.61,0,0,0,.26-.8c0-.33.55-.44,1-1.35s.79-3.11,1.92-8.14a23.55,23.55,0,0,1,1.25-3.95c.55-1.32,1.21-2.62,1.75-3.92a41.05,41.05,0,0,0,1.1-4.2c.54-1.84,1.31-3.66,1.81-5.52,0-.09.05-.19.07-.31s.09-.38.14-.59c.07-.37.14-.74.17-1,.08-.53.16-1,.24-1.52.25-1.37.53-2.63.78-4,.08-.48.16-1,.23-1.43a5.3,5.3,0,0,0,0-.85c0-.09,0-.2,0-.31,0-.9-.19-2.1-.35-3.25-.09-.72-.19-1.44-.27-2s-.23-1.31-.25-1.58a7.37,7.37,0,0,0-.14-.88,1.92,1.92,0,0,0,0-.22c0-.27-.07-.57-.1-.87s-.1-.78-.13-1.15c-.66-.57-1.92-.51-3.11-.41-3.45.28-7.53-.64-8.23-.65-1.43,0-3.49,0-5-.11-1.83-.15-5.07-.66-5.07-.66a8.81,8.81,0,0,0-1.05-.08A5.06,5.06,0,0,0,6,16a14.31,14.31,0,0,1-1.86.09l-1.75.44h0a.13.13,0,0,1-.12-.06.24.24,0,0,1,0-.23l1.24-.46a.17.17,0,0,0,.07-.15.12.12,0,0,0,0-.08.15.15,0,0,0-.19-.09l-1.65.26H1.65a.22.22,0,0,1-.22-.18.23.23,0,0,1,.16-.26L3.28,15a.14.14,0,0,0,.1-.13.06.06,0,0,0,0,0,.12.12,0,0,0-.13-.08l-2,.13h0A.22.22,0,0,1,1,14.62a.22.22,0,0,1,.2-.22l2.09-.14a.12.12,0,0,0,.11-.1A.12.12,0,0,0,3.3,14l-1.83-.16a.16.16,0,0,1,0-.32c.35,0,1.33-.16,1.65-.11a4.36,4.36,0,0,0,1.06,0L5,13.21l-.06-.4-.66-.72a.24.24,0,0,1,0-.14.21.21,0,0,1,.32-.18A3,3,0,0,0,5,12a3.66,3.66,0,0,1,.75.61,2.6,2.6,0,0,1,.55.69,2.21,2.21,0,0,0,.76.64,3.17,3.17,0,0,0,1,.25,37.5,37.5,0,0,0,4.86-.52,17.16,17.16,0,0,1,4.51-.08c.44-.09,2.61-.17,4.4-.29l-.19-.09L20,12.41l-.87-.47c-1.28-.64-3.13-1.53-4.46-2.32-1.57-.94-4.25-2.83-4.25-2.83a6.34,6.34,0,0,0-.8-.53C9.46,6.19,9,6.07,8.78,6a15.91,15.91,0,0,1-1.7-.74L5.31,4.93a.18.18,0,0,1-.15-.16.17.17,0,0,1,.15-.17l1.32.06a.13.13,0,0,0,.13-.12s0,0,0,0a.16.16,0,0,0-.13-.14L4.93,3.92A.23.23,0,0,1,5,3.47H5l1.79.43A.13.13,0,0,0,7,3.79v0a.13.13,0,0,0-.08-.11L5,2.94a.22.22,0,0,1-.12-.3.22.22,0,0,1,.2-.12h.08l2,.75a.13.13,0,0,0,.15,0,.13.13,0,0,0,0-.06.11.11,0,0,0,0-.09l-1.47-1a.16.16,0,0,1,0-.2.19.19,0,0,1,.15-.09l.07,0c.32.16,1.21.58,1.47.77a3.26,3.26,0,0,0,.93.35s.6.28.77.18.12-.39.12-.39L9,1.77a.26.26,0,0,1,0-.15.2.2,0,0,1,.18-.12.18.18,0,0,1,.18.11A2.25,2.25,0,0,0,9.63,2a4.45,4.45,0,0,1,.39.84,4,4,0,0,1,.2.9,2.11,2.11,0,0,0,.4.92,3.54,3.54,0,0,0,.75.67A38.75,38.75,0,0,0,16,7a17.57,17.57,0,0,1,4.09,1.92c.6.18,4.34,1.88,5.84,2.38s3.62-.39,6.22,1l.12.07.19-.07A3.93,3.93,0,0,0,33,12.1l.51-.27.28-.18A2.53,2.53,0,0,0,34.4,11a2.08,2.08,0,0,0,.12-.26.61.61,0,0,0,0-.18v-.13c0-.1,0-.21,0-.32a3.08,3.08,0,0,1-.53-.6,6.51,6.51,0,0,1-.41-.73A7.52,7.52,0,0,1,33.28,8c-.09-.26-.16-.53-.23-.77a.15.15,0,0,1-.1,0,.32.32,0,0,1-.17-.09l-.06-.08a.3.3,0,0,1,0-.08c-.08-.5,0-.29-.13-.8,0-.09-.37-.92-.1-1a.34.34,0,0,1,.29.05c0-2.31.27-4.4,3.26-4.4s3.35,2.05,3.35,4.47l0,0a.4.4,0,0,1,.35-.09c.27.12-.09,1-.1,1a1.43,1.43,0,0,0,0,.16,1.3,1.3,0,0,1,0,.15v0a.43.43,0,0,0,0,.12c0,.06,0,.15-.06.33a.36.36,0,0,1-.27.25.21.21,0,0,1-.15-.08,5.92,5.92,0,0,1-1.51,2.88,1.65,1.65,0,0,0,0,.31.6.6,0,0,0,0,.19.42.42,0,0,0,0,.15.35.35,0,0,0,0,.11l0,.07.06.1a2.25,2.25,0,0,0,.66.64,2.84,2.84,0,0,0,.34.22,5.71,5.71,0,0,0,.7.35l0,0,.38.15.12-.06c2.59-1.38,4.71-.49,6.2-1S51.35,9.12,52,8.94A17.57,17.57,0,0,1,56.05,7a29.42,29.42,0,0,0,4.6-1.81,3.54,3.54,0,0,0,.75-.67c.18-.28.43-.59.4-.77a3.5,3.5,0,0,1,.24-1A2.43,2.43,0,0,1,62.39,2a2.3,2.3,0,0,0,.28-.42.21.21,0,0,1,.37,0,.29.29,0,0,1,0,.09.13.13,0,0,1,0,.06l-.26.93s0,.34.12.39.77-.18.77-.18a4.52,4.52,0,0,0,.93-.41c.26-.18,1-.5,1.35-.66a.18.18,0,0,1,.23.08.24.24,0,0,1,0,.08.16.16,0,0,1-.06.12l-1.36,1a.12.12,0,0,0,0,.15.14.14,0,0,0,.11.06h0l2-.75a.22.22,0,0,1,.28.11.19.19,0,0,1,0,.1.21.21,0,0,1-.15.2l-1.88.72a.12.12,0,0,0-.08.13.13.13,0,0,0,.12.12h0l1.73-.38a.22.22,0,0,1,.26.17.09.09,0,0,1,0,0A.24.24,0,0,1,67,4l-1.72.4a.07.07,0,0,0,0,.1s0,.18,0,.18l1.44,0a.16.16,0,0,1,.11.14.24.24,0,0,1-.2.21l-1.72.29A15.39,15.39,0,0,1,63.23,6c-.19.05-.61.17-.8.24s-.86.53-.86.53S58.9,8.68,57.32,9.62c-1.32.79-3.18,1.68-4.45,2.32-.3.16-1.22.67-2.45,1.3l-.19.09c1.79.12,3.93.2,4.37.29a17.17,17.17,0,0,1,4.51.08,32,32,0,0,0,4.87.46,4.87,4.87,0,0,0,1-.33c.3-.17.71-.33.77-.5s.25-.33.36-.56a.82.82,0,0,1,.39-.39c.22-.1.44-.32.55-.35a3.61,3.61,0,0,0,.45-.26.19.19,0,0,1,.1,0,.2.2,0,0,1,.21.21.24.24,0,0,1,0,.14l-.65.72s-.12.31-.06.4.76.18.76.18a4.41,4.41,0,0,0,1.06,0c.33,0,1.25,0,1.58,0a.13.13,0,0,1,.14.13v.06a.13.13,0,0,1-.11.12L68.7,14a.12.12,0,0,0-.09.11v0a.11.11,0,0,0,.11.1l2.08.09A.21.21,0,0,1,71,14.56Z"/><path class="cls-1" d="M30.17,24.51c-.22-1.6-.47-3.1-.54-3.61,0-.23-.07-.54-.12-.89a7.37,7.37,0,0,1,.14.88c0,.27.16.86.25,1.58S30.08,23.79,30.17,24.51Z"/><path class="cls-1" d="M34,9.52a6.51,6.51,0,0,1-.41-.73A6.51,6.51,0,0,0,34,9.52Z"/><path class="cls-1" d="M42.15,21.37c-.13.66-.26,1.28-.39,1.89,0-.1,0-.2.05-.3.07-.3.13-.6.19-.91Z"/><path class="cls-1" d="M42.58,18.19c0,.17,0,.35,0,.5A4.07,4.07,0,0,0,42.58,18.19Z"/><path class="cls-1" d="M42.8,36c0-.13,0-.25-.06-.36s0-.34-.07-.51C42.72,35.45,42.76,35.74,42.8,36Z"/></g></svg>