<svg xmlns="http://www.w3.org/2000/svg" viewBox="0 0 72 72"><defs><style>.cls-1{fill:#373737;}</style></defs><g id="Camada_9" data-name="Camada 9"><rect class="cls-1" x="21.1" y="63.22" width="10.45" height="2.42" transform="translate(-43.28 64.6) rotate(-67.92)"/><rect class="cls-1" x="44.52" y="59.21" width="2.42" height="10.45" transform="translate(-20.96 22.06) rotate(-22.21)"/><rect class="cls-1" x="34.79" y="58.38" width="2.42" height="2.42"/><path class="cls-1" d="M61.41,60.8H39.63V58.38H61.41A2.42,2.42,0,0,0,63.83,56V19.67a2.42,2.42,0,0,0-2.42-2.42H43.26V14.83H61.41a4.84,4.84,0,0,1,4.84,4.84V56A4.84,4.84,0,0,1,61.41,60.8Z"/><path class="cls-1" d="M32.37,60.8H10.59A4.84,4.84,0,0,1,5.75,56V19.67a4.84,4.84,0,0,1,4.84-4.84H28.74v2.42H10.59a2.42,2.42,0,0,0-2.42,2.42V56a2.42,2.42,0,0,0,2.42,2.42H32.37Z"/><rect class="cls-1" x="17.85" y="68.06" width="36.3" height="2.42"/><rect class="cls-1" x="6.96" y="52.33" width="58.08" height="2.42"/><path class="cls-1" d="M44.29,42.65H27.71a5,5,0,0,1-5-5,5.07,5.07,0,0,1,.68-2.53l7.79-13.35V11.2h9.68V21.76l7.79,13.35a5.07,5.07,0,0,1,.68,2.53A5,5,0,0,1,44.29,42.65Zm-10.71-29v8.79L25.46,36.32a2.66,2.66,0,0,0-.35,1.32,2.6,2.6,0,0,0,2.6,2.59H44.29a2.6,2.6,0,0,0,2.6-2.59,2.57,2.57,0,0,0-.36-1.32L38.42,22.41V13.62Z"/><path class="cls-1" d="M39.63,30.56a6.94,6.94,0,0,1-4.3-1.42,4.58,4.58,0,0,0-3-1,4.1,4.1,0,0,0-2.72.91l-.14.09-1.34-2L28.3,27a6.46,6.46,0,0,1,4.07-1.32,6.94,6.94,0,0,1,4.3,1.41,4.58,4.58,0,0,0,3,1,4.42,4.42,0,0,0,2.89-1l1.34,2A6.71,6.71,0,0,1,39.63,30.56Z"/><polygon class="cls-1" points="36 31.77 33.58 31.77 33.58 34.19 36 34.19 36 31.77 36 31.77"/><polygon class="cls-1" points="31.16 35.4 28.74 35.4 28.74 37.81 31.16 37.81 31.16 35.4 31.16 35.4"/><polygon class="cls-1" points="42.05 35.4 39.63 35.4 39.63 37.81 42.05 37.81 42.05 35.4 42.05 35.4"/><rect class="cls-1" x="10.59" y="32.98" width="2.42" height="2.42"/><rect class="cls-1" x="10.59" y="23.3" width="2.42" height="7.26"/><rect class="cls-1" x="58.99" y="43.86" width="2.42" height="6.05"/><path class="cls-1" d="M49.92,12.81l-1.22-2.1a3.63,3.63,0,1,0-5.23-4.37l-2.28-.82a6.05,6.05,0,1,1,8.73,7.29Z"/><path class="cls-1" d="M44.47,8.78H42.05a3.63,3.63,0,1,0-7.26,0H32.37a6.05,6.05,0,1,1,12.1,0Z"/></g></svg>