<svg xmlns="http://www.w3.org/2000/svg" width="22.521" height="18.426" viewBox="0 0 22.521 18.426"><defs><style>.a{fill:#373737;}</style></defs><path class="a" d="M21.474,3H3.047A2.053,2.053,0,0,0,1,5.047V17.332a2.053,2.053,0,0,0,2.047,2.047H8.166V20.4a1.027,1.027,0,0,0,1.024,1.024h6.142A1.027,1.027,0,0,0,16.355,20.4V19.379h5.118a2.053,2.053,0,0,0,2.047-2.047V5.047A2.047,2.047,0,0,0,21.474,3ZM20.45,17.332H4.071a1.027,1.027,0,0,1-1.024-1.024V6.071A1.027,1.027,0,0,1,4.071,5.047H20.45a1.027,1.027,0,0,1,1.024,1.024V16.308A1.027,1.027,0,0,1,20.45,17.332Zm-4.095-6.142a1.027,1.027,0,0,1-1.024,1.024H13.284v2.047a1.024,1.024,0,1,1-2.047,0V12.213H9.189a1.024,1.024,0,1,1,0-2.047h2.047V8.118a1.024,1.024,0,1,1,2.047,0v2.047h2.047A1.027,1.027,0,0,1,16.355,11.189Z" transform="translate(-1 -3)"/></svg>