<svg xmlns="http://www.w3.org/2000/svg" viewBox="0 0 72 72"><defs><style>.cls-1{fill:#373737;}</style></defs><g id="Camada_3" data-name="Camada 3"><path class="cls-1" d="M61.23,4.77a6,6,0,0,1,6,6V61.23a6,6,0,0,1-6,6H10.77a6,6,0,0,1-6-6V10.77a6,6,0,0,1,6-6H61.23m0-4H10.77a10,10,0,0,0-10,10V61.23a10,10,0,0,0,10,10H61.23a10,10,0,0,0,10-10V10.77a10,10,0,0,0-10-10Z"/><path class="cls-1" d="M32.42,34.48l-2.3,2.29A11.86,11.86,0,0,1,27.23,32l3.14-.79A8.52,8.52,0,0,0,32.42,34.48Zm.59-9.7-4.52-4.52a.8.8,0,0,0-1.14,0l-4.51,4.52a.81.81,0,0,0,.58,1.37h2.93a23.7,23.7,0,0,0,.3,3.51l3.13-.8a22.5,22.5,0,0,1-.21-2.71h2.88A.8.8,0,0,0,33,24.78Zm16.15,0-4.51-4.5a.78.78,0,0,0-1.14,0L39,24.78a.8.8,0,0,0,.57,1.37h2.87c-.16,5.94-2.06,7.67-4.1,9.49A14.17,14.17,0,0,0,36,38.15a11.75,11.75,0,0,0-1.82-2L31.9,38.42a6.26,6.26,0,0,1,2.49,5.49h0v6.46A1.61,1.61,0,0,0,36,52h0a1.61,1.61,0,0,0,1.61-1.61V43.91h0c0-3.26,1.15-4.29,2.89-5.86,2.23-2,5-4.49,5.17-11.9h2.91A.81.81,0,0,0,49.16,24.78Z"/></g></svg>