<?xml version="1.0" encoding="utf-8"?>
<!-- Generator: Adobe Illustrator 26.4.1, SVG Export Plug-In . SVG Version: 6.00 Build 0)  -->
<svg version="1.1" id="Layer_1" xmlns="http://www.w3.org/2000/svg" xmlns:xlink="http://www.w3.org/1999/xlink" x="0px" y="0px"
	 viewBox="0 0 72 72" style="enable-background:new 0 0 72 72;" xml:space="preserve">
<style type="text/css">
	.st0{fill:#373737;}
</style>
<g id="Camada_3">
	<path class="st0" d="M61.2,4.8c3.3,0,6,2.7,6,6v50.5c0,3.3-2.7,6-6,6H10.8c-3.3,0-6-2.7-6-6V10.8c0-3.3,2.7-6,6-6L61.2,4.8
		 M61.2,0.8H10.8c-5.5,0-10,4.5-10,10v50.5c0,5.5,4.5,10,10,10h50.5c5.5,0,10-4.5,10-10V10.8C71.2,5.2,66.8,0.8,61.2,0.8z"/>
</g>
<g>
	<path class="st0" d="M36,51.9c-6.6,0-13.4-1.7-13.4-12.5V20.9c0-0.5,0.4-0.8,0.9-0.8h8.3c0.5,0,0.8,0.4,0.8,0.8v18.5
		c0,3.3,1.2,4.1,3.4,4.1c2.2,0,3.4-0.7,3.4-4.1V20.9c0-0.5,0.4-0.8,0.8-0.8h8.3c0.5,0,0.9,0.4,0.9,0.8v18.5
		C49.4,50.3,42.6,51.9,36,51.9z"/>
</g>
</svg>
