<svg xmlns="http://www.w3.org/2000/svg" width="25" height="25" viewBox="0 0 25 25"><defs><style>.a{fill:none;}.b{fill:#373737;}</style></defs><path class="a" d="M0,0H25V25H0Z"/><path class="b" d="M10.9,17.615l4.146-2.375a1.046,1.046,0,0,0,0-1.812L10.9,11.052a1.048,1.048,0,0,0-1.562.906V16.7A1.049,1.049,0,0,0,10.9,17.615ZM21.833,6c.02.076-4.687-.01-9.375-.01S3.208,6,3.083,6A2.083,2.083,0,0,0,1,8.084v12.5a2.089,2.089,0,0,0,2.083,2.083h18.75a2.089,2.089,0,0,0,2.083-2.083V8.084A2.083,2.083,0,0,0,21.833,6ZM20.792,20.584H4.125a1.045,1.045,0,0,1-1.042-1.042V9.125A1.045,1.045,0,0,1,4.125,8.084H20.792a1.045,1.045,0,0,1,1.042,1.042V19.542A1.045,1.045,0,0,1,20.792,20.584Z" transform="translate(0.042 -1.75)"/></svg>