<svg id="Camada_1" data-name="Camada 1" xmlns="http://www.w3.org/2000/svg" xmlns:xlink="http://www.w3.org/1999/xlink" viewBox="0 0 169.62 169.62"><defs><style>.cls-1{fill:none;}.cls-2{fill:#5136e4;}.cls-3{fill:url(#Unnamed_Pattern);}.cls-4{fill:#fff;}</style><pattern id="Unnamed_Pattern" data-name="Unnamed Pattern" width="69.66" height="73.1" patternTransform="translate(-504.3 1059.61)" patternUnits="userSpaceOnUse" viewBox="0 0 69.66 73.1"><rect class="cls-1" width="69.66" height="73.1"/><polygon class="cls-2" points="69.66 0 69.66 73.1 0 73.1 0 0 69.66 0"/></pattern></defs><title>p4</title><circle class="cls-3" cx="84.81" cy="84.81" r="84.81"/><path class="cls-4" d="M43.76,102l17.33,17.32c6.37,6.38,28.13,17.63,30.59,18.89a3.57,3.57,0,0,0,4.17-.66L128,105.41a3.58,3.58,0,0,0,.84-3.74c0-.11-3.62-10.16-4.5-13.48-1-3.83-2-8.68-3.09-13.82-1.46-7-3.12-15-5.31-23-1.71-6.19-5.53-9.74-10.49-9.74a10.5,10.5,0,0,0-7.48,3.11l0,0a10.66,10.66,0,0,0-3.11,7.53c0,.08,0,.16,0,.24l.78,11.59L65.63,34.21a10.61,10.61,0,1,0-15,15l8.32,8.32a10.36,10.36,0,0,0-2.83,2,10.61,10.61,0,0,0-2.59,10.72,10.49,10.49,0,0,0-4,2.52,10.64,10.64,0,0,0-2.21,11.74A10.61,10.61,0,0,0,43.76,102Zm48.07,30.14c-3.6-1.9-21.85-11.63-26.89-16.67L47.62,98.09a5.26,5.26,0,0,1-1.55-3.66,5.11,5.11,0,0,1,5.12-5.18,5.23,5.23,0,0,1,3.73,1.55l7.38,7.38a1.86,1.86,0,0,0,2.64,0,1.87,1.87,0,0,0,0-2.63L53.39,84a5.22,5.22,0,0,1,0-7.36A5.11,5.11,0,0,1,57,75.16a5.21,5.21,0,0,1,3.72,1.55l8.23,8.23a1.87,1.87,0,0,0,2.64-2.64L60,70.76a5.21,5.21,0,0,1,0-7.35,5.11,5.11,0,0,1,3.63-1.49,5.2,5.2,0,0,1,3.72,1.54l8.23,8.23a1.86,1.86,0,0,0,2.64-2.63l-23.7-23.7a5.2,5.2,0,0,1,0-7.35,5.1,5.1,0,0,1,3.62-1.5,5.23,5.23,0,0,1,3.73,1.55l36.7,36.7a1.86,1.86,0,0,0,3.17-1.44l-1.41-21.07v-.08a5.23,5.23,0,0,1,5.15-5.09c1.68,0,3.94,1,5.24,5.73,2.16,7.87,3.79,15.73,5.23,22.67,1.08,5.21,2.1,10.14,3.16,14.11.68,2.54,2.72,8.47,3.88,11.77l.36,1L93,132.69Z"/></svg>