<svg id="Camada_1" data-name="Camada 1" xmlns="http://www.w3.org/2000/svg" viewBox="0 0 169.62 169.62"><defs><style>.cls-1{fill:#11d05f;}.cls-2{fill:#fff;}</style></defs><title>p2</title><circle class="cls-1" cx="84.81" cy="84.81" r="84.81"/><path class="cls-2" d="M42.66,62.89a4.45,4.45,0,0,1,0-8.9H67.18a4.45,4.45,0,0,1,0,8.9Z"/><path class="cls-2" d="M99.47,62.89a4.45,4.45,0,0,1,0-8.9H127a4.45,4.45,0,1,1,0,8.9Z"/><path class="cls-2" d="M83,62.89A4.45,4.45,0,1,1,83,54h2.22a4.45,4.45,0,0,1,0,8.9Z"/><path class="cls-2" d="M53.69,115.63a4.45,4.45,0,0,1,0-8.9H93.37a4.45,4.45,0,0,1,0,8.9Z"/><path class="cls-2" d="M109.7,115.63a4.45,4.45,0,0,1,0-8.9h2.23a4.45,4.45,0,0,1,0,8.9Z"/><path class="cls-2" d="M104.88,89.31a4.5,4.5,0,0,1,0-9h14a4.5,4.5,0,0,1,0,9Z"/><path class="cls-2" d="M85.88,89.31a4.5,4.5,0,0,1,0-9h4a4.5,4.5,0,0,1,0,9Z"/><path class="cls-2" d="M48.88,89.31a4.5,4.5,0,1,1,0-9h22a4.5,4.5,0,0,1,0,9Z"/></svg>